<?xml version="1.0" encoding="UTF-8" standalone="no"?><!DOCTYPE svg PUBLIC "-//W3C//DTD SVG 1.1//EN" "http://www.w3.org/Graphics/SVG/1.1/DTD/svg11.dtd"><svg width="100%" height="100%" viewBox="0 0 535 131" version="1.1" xmlns="http://www.w3.org/2000/svg" xmlns:xlink="http://www.w3.org/1999/xlink" xml:space="preserve" xmlns:serif="http://www.serif.com/" style="fill-rule:evenodd;clip-rule:evenodd;stroke-linejoin:round;stroke-miterlimit:2;"><g id="Background"><path d="M146.493,16.314c1.03,0.483 0.961,0.417 2.07,0.457l0.983,0.057c1,0.471 0.935,0.43 2.064,0.455c14.101,1.668 36.665,-1.902 36.508,10.284c-0.304,0.209 -0.608,0.418 -0.912,0.627c-2.24,0.529 -2.425,1.425 -4.128,-0.068c-0.937,-0.822 -3.421,1.969 -4.387,0.81c-2.072,-2.485 -2.546,-1.269 -5.76,-0.708c-0.729,-0.263 -0.665,-0.395 -1.437,-0.269c-3.348,-2.338 -15.819,1.676 -18.218,0.433c-3.591,-1.861 -3.519,-2.578 -11.847,-2.201c-2.767,0.125 0.394,1.895 3.64,34.427c0.538,5.394 0.702,5.305 1.544,10.668c2.707,17.244 0.714,17.348 1.055,18.816c1.714,7.38 -1.026,10.265 0.407,12.148c0.309,0.202 0.617,0.404 0.926,0.606c0.998,1.443 0.446,2.19 0.334,2.342c-3.363,4.55 0.866,9.14 -0.405,10.753c-2.381,3.022 0.328,3.385 0.603,5.174c0.648,4.207 -2.046,6.311 -2.494,6.661c-0.326,0.188 -0.652,0.377 -0.978,0.565c-2.004,2.143 -2.36,0.983 -5.111,0.321c-0.329,-0.328 -0.658,-0.655 -0.987,-0.983c-0.047,-0.808 -0.566,-9.696 -0.727,-10.085c-1.063,-2.562 -0.875,-10.825 -1.481,-12.191c-1.1,-2.48 0.011,-13.276 -0.739,-14.865c0.119,-0.818 0.016,-0.743 -0.262,-1.448c-0.015,-2.137 0.138,-2.073 -0.216,-3.644c-1.666,-7.384 -0.652,-11.104 -1.352,-12.576c-0.095,-0.199 -0.394,-0.826 -0.693,-2.67c0.186,-1.01 0.149,-0.956 -0.218,-1.951c0.003,-2.541 0.006,-5.083 0.009,-7.624l-0.068,-2.053c-0.002,-0.654 0.014,-0.569 -0.26,-1.079c0.13,-0.778 0.059,-0.7 -0.228,-1.448l0.327,-0.561c-0.013,-0.51 -0.025,-1.019 -0.038,-1.529c-0.157,-0.525 -0.16,-8.041 -0.79,-9.082c0.403,-1.303 0.563,-1.311 0.019,-2.546c-0.047,-1.335 0.135,-1.285 -0.294,-2.121c0.087,-1.324 -0.017,-1.223 -0.194,-2.455l0.035,-1.018c-0.183,-0.677 -0.367,-1.354 -0.55,-2.032c0.114,-0.53 0.228,-1.06 0.341,-1.59c0.099,-1.083 0.066,-0.981 -0.258,-1.944c0.142,-0.401 0.074,-0.364 1.393,-5.13c0.041,-0.085 1.32,-1.46 -0.473,-1.351c-5.02,0.359 -5.023,0.329 -5.391,0.142c-1.558,-0.796 -1.534,0.178 -3.199,0.28c-12.7,0.772 -12.631,1.107 -13.734,1.111c-7.238,0.024 -7.064,1.087 -14.238,1.493c-0.754,-0.305 -0.731,-0.306 -1.532,0.02c-3.591,0.553 -5.529,-0.53 -3.125,-3.274c2.635,-3.008 5.013,-2.72 6.712,-3.435c10.822,-4.557 11.302,-1.923 22.925,-3.931c0.813,0.142 0.729,0.039 1.448,-0.234c14.856,-2.06 21.539,-0.878 23.382,-0.553Z" style="fill:#dc4c23;fill-opacity:0.99;"/><path d="M496.206,130.525l-6.1,0c-5.391,-2.678 -9.833,-0.436 -12.215,-2.258c-0.561,-0.444 -1.004,-0.821 -1.09,-0.894l-1.416,-0.187c-0.196,-0.317 -0.391,-0.635 -0.587,-0.952c-0.472,-0.591 -0.504,-0.51 -1.963,-1.572c-0.335,-0.343 -0.669,-0.686 -1.004,-1.028c-0.688,-0.432 -0.457,-0.57 -1.059,-0.976c-0.313,-0.355 -0.626,-0.711 -0.939,-1.066l-0.103,-0.448c-0.18,-0.507 -0.36,-1.015 -0.54,-1.522c-0.178,-0.227 -2.41,-5.863 -2.567,-6.05c-9.23,-11.018 2.282,-13.212 3.441,-11.572c5.09,7.199 5.846,6.559 7.667,10.063c4.063,7.815 7.201,7.454 9.133,9.75c2.727,3.239 7.734,2.135 8.827,2.148c4.455,0.054 4.474,0.161 8.56,-1.523c1.669,-0.688 9.965,-12.42 10.608,-13.596c4.919,-9.007 -0.658,-10.807 -0.95,-12.608c-0.461,-2.842 -12.773,-18.862 -13.98,-20.433c0.235,-0.788 0.376,-0.809 -0.223,-1.407c-0.636,-0.93 -6.264,-9.157 -9.05,-10.786c-3.911,-2.287 -2.538,-3.937 -6.717,-5.877c-4.894,-2.272 -4.147,-3.278 -8.549,-6.284c-0.614,-0.42 -5.217,-3.563 -6.545,-6.609c-3.904,-8.956 -2.766,-18.695 0.383,-23.362c0.59,-0.803 0.534,-0.741 1.051,-1.509c0.581,-0.557 6.174,-5.923 7.127,-7.102c0.324,-0.195 0.648,-0.39 0.972,-0.585c0.398,-0.287 2.839,-2.278 3.085,-2.478c0.329,-0.191 0.657,-0.381 0.986,-0.572c2.703,-0.64 2.373,-1.317 5.198,-1.806c0.76,0.1 0.677,0.07 1.443,-0.184c1.354,0.034 2.709,0.068 4.063,0.102c1.008,0.301 0.953,0.324 2.042,-0.017l1.011,-0.067c0.678,0.17 1.355,0.339 2.033,0.509c2.596,0.325 1.991,1.549 4.485,2.256c5.976,1.695 5.724,8.888 5.706,8.94c-1.948,5.443 -3.462,-5.448 -11.746,-7.447c-2.278,-0.55 -2.273,0.503 -4.525,0.073c-7.725,-1.473 -10.142,3.614 -11.598,4.511c-13.276,8.177 -4.439,21.802 -3.41,23.388c4.597,7.087 11.78,9.513 15.069,12.946c0.32,0.169 0.641,0.338 0.961,0.506c2.166,1.487 2.037,1.517 3.981,3.196c5.997,5.178 4.983,6.077 10.873,11.459c8.023,7.332 10.916,14.29 14.045,17.985c0.176,0.329 0.352,0.658 0.528,0.987c0.537,0.944 6.342,11.152 5.832,12.261c-0.105,0.687 -0.118,0.61 -0.028,1.386c0.539,3.657 -0.906,3.456 -1.198,7.181c-0.32,4.074 -9.038,9.533 -10.867,12.083c-3.867,5.389 -4.68,4.403 -10.015,8.175c-4.958,3.506 -8.897,0.447 -10.126,2.87Z" style="fill:#e65724;fill-opacity:0.99;"/><path d="M390.99,42.293c1.262,0.404 1.193,0.399 2.564,0.44c2.388,0.147 2.221,0.43 4.584,1.032c0.511,0.177 1.021,0.354 1.532,0.531c0.92,1.329 1.209,1.024 2.729,2.973c3.572,4.578 -6.779,2.009 -7.369,1.863c-1.892,-0.47 -1.629,1.249 -3.556,0.962c-6.939,-1.031 -12.522,4.656 -12.316,5.993c1.287,8.365 -2.534,12.338 -1.246,15.163c3.854,8.449 -1.876,13.869 0.957,25.951c2.005,8.551 1.568,8.662 3.456,12.243c1.33,2.524 -1.699,9.136 5.67,7.27c0.504,0.034 1.008,0.069 1.512,0.103c5.461,-0.312 15.412,-7.754 16.675,-5.804c3.45,5.325 -11.263,8.532 -12.023,9.682c-2.167,3.277 -2.982,2.202 -6.158,4.594c-0.514,0.181 -1.028,0.363 -1.541,0.544c-2.534,1.959 -2.791,0.885 -8.18,0.884c-0.324,-0.179 -0.648,-0.359 -0.972,-0.538l-0.158,-1.431c-0.293,-0.199 -0.587,-0.397 -0.88,-0.596c-1.276,-2.472 -2.884,-7.443 -3.097,-8.103c-1.277,-3.949 -6.97,-18.918 -5.716,-31.553c2.583,-26.011 -0.786,-43.805 -0.479,-45.24c0.762,-3.561 -0.495,-3.447 -0.57,-7.082c-0.197,-9.566 -2.25,-10.067 -0.283,-11.642c3.246,-2.599 3.16,-2.585 3.506,-2.643c3.365,-0.565 5.306,7.366 5.523,7.71c2.023,3.212 1.58,12.558 3.67,17.731c0.183,0.303 0.366,0.605 0.549,0.908c0.938,-0.094 7.757,-0.776 11.617,-1.944Z" style="fill:#e65723;fill-opacity:0.99;"/><path d="M277.188,53.562c1.735,-29.871 1.845,-30.035 3.287,-32.184c5.831,-8.689 4.617,7.352 5.575,13.863c1.756,11.927 0.341,13.873 2.315,18.764c0.168,0.417 -0.36,0.334 -0.308,5.618c0.032,3.282 -1.023,3.43 0.637,6.163c0.587,0.967 0.643,9.522 -0.516,15.148c-0.116,0.565 1.929,0.279 0.87,7.161c-0.081,0.524 0.94,0.409 0.507,6.61c-0.349,5.006 1.867,4.82 1.013,9.663c-0.402,2.276 1.337,2.263 0.153,7.567c-1.233,5.524 5.051,2.381 14.382,3.991c5.013,0.865 6.24,-1.904 10.723,-2.783c1.063,-0.208 10.519,-2.063 13.453,1.545c2.687,3.304 -14.077,8.172 -15.593,7.595c-1.114,0.248 -1.495,-0.548 -2.396,1.028c-3.667,2.776 -13.675,-0.345 -14.841,-0.574c-0.747,-0.259 -0.663,-0.347 -1.465,-0.231c-2.064,-0.341 -1.984,-0.04 -4.128,0.262c-0.663,-0.16 -1.326,-0.32 -1.989,-0.481c-3.038,2.612 -11.361,-1.004 -11.425,-8.27c-0.028,-3.214 -0.318,-36.089 0.488,-40.176c0.644,-3.266 -2.362,-6.805 -0.506,-17.795c0.118,-0.701 -0.204,-0.983 -0.22,-1.058c-0.184,-0.738 -0.192,-0.659 -0.016,-1.426Z" style="fill:#e75723;fill-opacity:0.99;"/><path d="M410.293,92.659c0.218,-13.688 2.77,-13.517 8.111,-18.358c3.588,-3.253 5.993,-0.19 8.755,-0.738c4.25,-0.842 5.409,2.691 6.95,3.011c3.793,0.787 4.802,4.615 5.992,6.093c3.904,4.851 1.259,10.301 -2.846,10.574c-0.68,0.162 -1.36,0.324 -2.04,0.487l-0.936,0.101c-0.697,0.621 -0.598,0.588 -1.114,1.349c-3.927,0.127 -3.729,0.78 -7.582,1.649c-1.281,0.468 -1.233,0.42 -2.503,1.04l-0.455,0.073c-0.35,0.666 -0.31,0.653 -0.027,1.313c0.495,1.882 0.495,1.869 0.534,2.033c0.065,0.27 -0.068,0.174 0.011,0.51c0.167,0.711 4.004,8.324 5.502,10.109c0.527,0.603 0.474,0.544 1,1.072l0.115,0.434c0.482,0.603 0.414,0.523 0.931,1.029l0.502,0.353l0.47,-0.168c1.364,0.254 1.316,0.38 2.525,-0.241c4.249,-0.474 5.79,-2.162 9.14,-2.976c8.874,-2.155 8.892,-1.9 9.658,-2.097c4.132,-1.063 3.989,3.038 0.015,4.191c-3.92,1.137 -3.702,1.439 -7.19,3.406c-6.686,3.77 -6.67,3.589 -8.04,4.752c-1.344,0.818 -1.261,0.771 -2.054,2.004c-2.879,0.067 -2.782,0.106 -3.024,0.107l-1.594,0.044c-8.098,-0.105 -6.941,-3.021 -12.579,-6.427c-2.641,-1.595 -1.038,-3.326 -4.729,-6.364c-0.014,-0.165 0.008,-0.055 -0.576,-1.543c-0.062,-0.339 -0.189,-0.231 -0.288,-0.591c-1.271,-4.61 -1.392,-4.456 -2.405,-9.191c0.224,-1.259 0.197,-1.187 -0.046,-2.393c0.385,-0.808 0.221,-0.749 0.265,-2.093c-0.149,-0.851 -0.299,-1.703 -0.448,-2.554l15.27,-14.99c-8.243,-1.513 -7.156,2.562 -6.454,10.903c0.115,1.364 0.727,8.642 17.1,-0.527c4.295,-2.405 -6.443,-9.963 -10.645,-10.376l-15.27,14.99Z" style="fill:#e55724;fill-opacity:0.98;"/><path d="M36.701,66.238c-0.677,0.168 -1.354,0.336 -2.031,0.504l-0.499,0.032c-0.34,0.162 -0.681,0.324 -1.021,0.486c-3.471,1.629 -2.452,2.76 -5.526,5.143c-0.35,0.271 -1.01,3.349 -3.113,4.009c-0.545,0.171 -5.501,-1.158 1.637,-6.948c7.032,-5.704 15.249,-15.191 19.776,-2.251c1.779,5.085 2.345,11.817 4.194,21.361c0.394,2.034 3.459,17.853 -0.853,25.878c-0.196,0.365 1.32,0.688 -1.024,5.083c-0.262,0.491 0.459,2.476 -1.943,4.021c-0.499,-0.092 -0.997,-0.184 -1.496,-0.275c-0.772,-0.233 -0.724,0.099 -1.489,-0.132c-0.054,-0.016 -0,0 -0.537,-0.46c-0.32,-0.198 -0.64,-0.397 -0.96,-0.595c-0.697,-0.268 -10.259,1.869 -12.732,4.119c-0.337,0.34 -0.675,0.681 -1.012,1.021c-0.521,0.028 -1.042,0.057 -1.563,0.085c-1.186,-0.053 -5.409,-0.243 -12.663,-7.739c-3.874,-4.003 -4.061,-11.154 -4.088,-12.182c0.27,-0.761 0.269,-0.682 0.205,-1.448c0.129,-0.52 0.258,-1.041 0.386,-1.561c0.27,-0.21 0.539,-0.42 0.809,-0.63c0.188,-0.489 0.376,-0.978 0.564,-1.466c0.182,-0.506 0.365,-1.013 0.547,-1.519c0.874,-0.983 0.861,-0.859 1.562,-2.013c3.173,-3.559 18.991,-7.546 21.982,-3.668c0.3,0.389 0.781,-0.164 4.387,4.292c-0.214,2.05 -0.242,1.929 -0.29,3.986c-0.108,4.605 -6.397,-8.386 -10.401,-6.321c-0.783,-0.087 -0.69,-0.073 -1.449,0.189c-1.945,0.239 -4.78,2.189 -7.156,1.69c-5.228,-1.098 -4.47,9.444 0.595,14.525c6.038,6.058 6.491,7.826 14.598,4.874c7.06,-2.571 4.556,-4.993 4.643,-7.88c0.638,-1.672 0.361,-1.642 0.472,-4.59c0.011,-0.839 0.022,-1.677 0.032,-2.516l-0.145,-1.525c-0.042,-0.819 -0.085,-1.638 -0.127,-2.457c-0.071,-1.895 -0.141,-3.791 -0.212,-5.686l-0.21,-1.456c-0.109,-0.359 -0.219,-0.718 -0.328,-1.077l-0.007,-2.036c-0.158,-0.511 -0.316,-1.021 -0.474,-1.532c-1.176,-21.519 -2.832,-21.175 -3.042,-21.336Z" style="fill:#e65723;fill-opacity:0.99;"/><path d="M198.836,69.754c0.519,-0.014 1.038,-0.028 1.557,-0.043c0.336,0.291 0.965,0.003 1.301,0.294c3.117,2.7 5.248,22.191 5.463,24.161c0.774,7.078 2.634,9.377 1.876,11.714c-0.401,1.237 -0.924,2.849 0.603,16.25c0.17,1.494 -3.219,3.73 -6.773,1.132c-0.32,-0.205 -0.641,-0.411 -0.961,-0.616c-2.313,-2.725 -2.838,-2.508 -3.169,-6.07c-0.381,-4.101 -3.133,2.014 -6.517,5.534c-0.985,0.662 -0.912,0.611 -1.502,1.548l-0.459,0.098c-1.491,0.763 -1.315,0.891 -2.575,1.963c-0.513,0.174 -1.025,0.349 -1.538,0.523c-0.363,-0.109 -0.726,-0.219 -1.089,-0.328c-0.484,0.101 -0.968,0.202 -1.452,0.303c-0.72,-0.367 -3.189,-0.528 -3.395,-0.705c-8.481,-7.311 -6.69,-12.543 -7.945,-15.512c-1.97,-4.658 -6.264,-30.353 -3.196,-32.896c7.256,-6.016 6.668,7.47 7.036,10.451c1.074,8.692 1.959,8.412 2.026,9.16c0.492,5.476 0.93,5.323 1.998,10.667c1.208,6.049 2.99,5.504 3.574,11.694c0.346,3.664 8.334,-4.058 9.426,-5.644l0.138,-0.441c0.362,-0.503 0.323,-0.437 0.468,-1.053c1.338,-2.491 1.499,-2.345 2.15,-5.011c0.282,-0.361 0.563,-0.723 0.845,-1.084c0.971,-2.356 0.849,-2.358 0.962,-2.544c-0.005,-1.587 0.191,-1.53 -0.437,-3.019c-0.055,-0.856 -0.626,-9.654 -1.003,-10.674c0.379,-1.008 0.404,-0.942 0.047,-2.031c-0.15,-7.655 -1.03,-7.548 -0.974,-15.233c0.329,-0.177 0.657,-0.354 0.986,-0.53l0.425,-0.118c1.967,-1.8 1.929,-1.794 2.105,-1.941Z" style="fill:#e65724;fill-opacity:0.98;"/><path d="M236.467,67.808c4.836,-0.023 4.762,-0.244 9.61,0.543c0.345,0.322 0.69,0.643 1.034,0.965c0.183,0.149 0.367,0.298 0.55,0.447c0.311,0.209 0.621,0.418 0.932,0.627c0.812,0.748 0.775,0.659 1.64,1.386c0.163,0.179 0.326,0.357 0.489,0.536c0.142,0.187 0.283,0.374 0.425,0.562c0.185,0.329 0.369,0.658 0.554,0.987c0.156,0.178 0.312,0.355 0.468,0.533c2.99,3.179 3.73,7.125 5.665,11.136c1.173,2.432 -0.039,2.889 0.361,4.633c1.217,5.308 1.626,5.079 1.685,5.538c0.084,0.653 1.046,8.129 1.038,8.159c-1.515,5.52 4.014,16.456 -6.611,20.952c-0.596,0.252 -0.487,0.202 -1.05,0.436c-0.846,0.407 -0.799,0.301 -1.543,0.958c-0.607,0.424 -0.366,0.571 -1,1.047c-0.347,0.154 -0.694,0.308 -1.041,0.462c-0.503,0.183 -1.006,0.367 -1.509,0.55c-0.511,0.162 -1.022,0.323 -1.533,0.485c-9.776,0.419 -13.265,1.705 -17.355,-0.467c-0.164,-0.345 -0.327,-0.69 -0.491,-1.035l-0.091,-0.444c-1.359,-1.571 -1.316,-1.464 -1.427,-1.593c-0.381,-0.565 -0.729,-1.494 -0.78,-1.63c0.104,-0.749 0.084,-0.672 -0.222,-1.441c-2.642,-10.655 -1.428,-13.647 -0.983,-14.742c0.174,-0.335 0.347,-0.671 0.521,-1.006c0.148,-0.182 0.296,-0.363 0.444,-0.545c0.161,-0.345 0.322,-0.69 0.482,-1.035c0.925,-0.621 0.861,-0.559 0.925,-0.621c0.336,-0.324 -0.126,-0.47 0.232,-0.816c1.457,-1.092 1.346,-1.043 2.559,-2.469c0.854,-0.472 0.833,-0.38 1.475,-1.053l0.469,-0.099c0.506,-0.178 1.013,-0.357 1.519,-0.535c0.512,-0.16 1.024,-0.319 1.536,-0.479c5.904,-2.106 10.773,0.333 11.105,0.646c0.69,0.481 0.628,0.338 1.524,0.483c0.518,0.584 0.448,0.514 1.053,0.987c0.821,1.164 0.758,1.118 1.961,2.037c0.267,8.207 -3.874,3.916 -3.99,3.507c-1.07,-3.784 -1.741,-3.465 -5.569,-4.353c-2.448,-0.568 -4.921,0.911 -5.032,0.94c-7.27,1.884 -4.17,5.288 -3.985,6.439c2.064,12.869 5.874,15.617 17.232,11.307c4.692,-1.781 3.559,-23.219 -1.095,-34.169c-3.732,-8.779 -4.337,-8.358 -4.615,-9.127c-2.165,-5.984 -13.22,-5.722 -17.119,-0.962c-5.186,6.332 -5.358,-1.95 -5.291,-2.162c0.359,-1.144 4.207,-2.492 4.608,-2.632c0.572,-0.377 1.471,-0.787 1.603,-0.848c0.331,-0.189 0.661,-0.379 0.992,-0.568c2.637,-0.844 2.352,-1.472 2.583,-1.423c1.798,0.379 1.69,-0.059 3.534,-0.571c0.508,-0.154 1.016,-0.309 1.524,-0.463Z" style="fill:#e55524;fill-opacity:0.99;"/><path d="M73.826,67.783c2.684,-0.476 9.319,-1.105 10.038,-4.116c0.904,-3.785 5.06,-0.443 10.774,2.074c2.141,0.943 1.952,1.135 4.089,1.985c1.102,1.078 1.012,1.017 2.061,2.027c3.398,3.768 1.959,4.327 0.504,9.201c-1.962,6.573 -8.509,-11.098 -16.297,-9.659c-1.241,0.229 -1.439,-0.971 -4.46,0.726c-1.744,0.979 -1.654,0.946 -3.631,1.482c-1.367,0.371 -3.242,8.862 -2.533,11.48c2.531,9.339 -3.925,12.088 7.747,28.892c0.465,0.67 2.185,3.146 8.465,5.688c8.886,3.597 13.909,-12.594 15.4,-7.687c0.318,1.046 -1.271,10.786 -10.9,12.583c-1.395,0.26 -1.67,-0.663 -2.609,0.488c-0.426,0.523 -5.484,0.773 -5.965,0.797c-0.755,-0.274 -0.667,-0.345 -1.444,-0.276c-0.144,-0.05 -1.788,-0.914 -2.535,-1.035c-2.987,-0.484 -5.99,1.185 -9.799,-4.824c-0.64,-1.01 -1.871,-1.892 -2.058,-2.026c-0.16,-0.35 -0.32,-0.699 -0.479,-1.049c-5.446,-8.322 -4.818,-8.636 -4.733,-13.742c0.007,-0.409 -0.461,-0.356 -0.507,-5.084c-0.038,-3.868 1.43,-4.942 0.709,-8.638c-0.946,-4.856 3.93,-13.706 4.527,-14.79c0.191,-0.323 0.382,-0.646 0.572,-0.969c0.167,-0.172 0.334,-0.345 0.501,-0.517c1.134,-0.638 1.08,-0.597 1.935,-1.582l0.043,-0.474c0.195,-0.318 0.391,-0.636 0.586,-0.954Z" style="fill:#e65723;fill-opacity:0.99;"/><path d="M343.71,71.319c0.171,0.335 0.341,0.671 0.512,1.006l0.018,1.015c0.185,0.671 0.37,1.342 0.555,2.013c0.131,0.856 0.262,1.711 0.393,2.567c0.563,2.555 0.515,2.478 0.566,5.079c0.257,12.917 4.239,17.238 4.111,20.845c-0.161,4.545 2.693,13.925 1.803,15.074c-3.279,4.235 -9.366,0.719 -10.063,0.316c-3.336,-1.927 -12.342,-47.574 2.105,-47.915Z" style="fill:#e65723;fill-opacity:0.99;"/><path d="M436.201,46.387c-0.155,0.18 -0.31,0.36 -0.465,0.54c-0.491,0.394 -4.146,5.109 -4.565,5.181c-0.449,0.077 -2.49,0.424 -3.474,4.513c-1.564,6.496 -4.219,3.774 -5.1,4.253c-1.04,0.564 -1.073,0.893 -2.028,0.145c-2.852,-2.233 -0.955,-5.619 -0.717,-6.043c6.439,-11.493 15.617,-19.041 17.268,-20.4c7.005,-5.761 5.375,1.256 5.199,1.655c-1.572,3.552 -1.749,3.351 -4.594,6.08c-0.251,0.241 0.54,0.503 -1.523,4.076Z" style="fill:#e55724;fill-opacity:0.98;"/><path d="M326.912,48.774c0.53,-0.004 1.059,-0.008 1.589,-0.012c8.568,0.962 9.275,2.762 11.153,4.242c0.138,0.513 0.182,0.377 0.994,1.03c0.175,5.762 -4.252,2.219 -4.61,2.228c-5.217,0.12 -5.137,-0.224 -10.165,-1.521c-0.422,-0.109 -4.744,-1.224 -3.967,-3.742c0.732,-2.374 4.569,-2.241 5.007,-2.225Z" style="fill:#e35827;fill-opacity:0.97;"/><path d="M41.213,105.858c-0.111,2.948 0.165,2.918 -0.472,4.59c0.05,-4.092 0.233,-4.308 0.472,-4.59Z" style="fill:#ae644c;fill-opacity:0.22;"/><path d="M280.756,112.996c0.397,-0.582 0.368,-0.93 0.858,-0.436c0.47,0.474 -0.566,2.166 -0.858,0.436Z" style="fill:#df9176;"/><path d="M230.447,100.907c-1.213,1.425 -1.102,1.376 -2.559,2.469c1.233,-1.397 1.114,-1.398 2.559,-2.469Z" style="fill:#ac3f1e;fill-opacity:0.25;"/><path d="M277.188,53.562c-0.176,0.767 -0.168,0.688 0.016,1.426c-2.778,-0.543 -0.125,-1.391 -0.016,-1.426Z" style="fill:#c25b79;fill-opacity:0.41;"/><path d="M98.727,67.725c1.294,0.736 1.266,0.687 2.061,2.027c-1.049,-1.01 -0.96,-0.95 -2.061,-2.027Z" style="fill:#c64d1f;fill-opacity:0.2;"/><path d="M190.255,123.756c-1.308,0.974 -1.087,1.101 -2.575,1.963c1.26,-1.072 1.084,-1.2 2.575,-1.963Z" style="fill:#ae371c;fill-opacity:0.25;"/><path d="M431.664,114.624c1.32,-0.237 1.206,-0.389 2.525,-0.241c-1.209,0.621 -1.162,0.494 -2.525,0.241Z" style="fill:#86a3a5;fill-opacity:0.45;"/><path d="M437.772,121.659c-0.708,0.663 -1.891,1.842 -2.054,2.004c0.793,-1.233 0.71,-1.185 2.054,-2.004Z" style="fill:#a95129;fill-opacity:0.19;"/><path d="M198.836,69.754c-0.176,0.147 -0.138,0.14 -2.105,1.941c0.879,-1.257 0.833,-1.216 2.105,-1.941Z" style="fill:#b7461d;fill-opacity:0.25;"/><path d="M249.128,100.856c1.075,0.969 1.035,0.915 1.961,2.037c-1.203,-0.919 -1.14,-0.872 -1.961,-2.037Z" style="fill:#ae4126;fill-opacity:0.23;"/><path d="M73.197,69.211c-0.855,0.985 -0.801,0.943 -1.935,1.582c0.969,-0.873 0.879,-0.876 1.935,-1.582Z" style="fill:#b9461e;fill-opacity:0.17;"/><path d="M410.477,97.306c0.242,1.206 0.27,1.134 0.046,2.393c-0.281,-1.222 -0.422,-1.152 -0.046,-2.393Z" style="fill:#ce4c4a;fill-opacity:0.26;"/><path d="M344.795,75.354c0.535,0.995 0.324,0.986 0.393,2.567c-0.131,-0.856 -0.262,-1.711 -0.393,-2.567Z" style="fill:#ac7a55;fill-opacity:0.23;"/><path d="M13.832,98.759c-0.701,1.155 -0.689,1.03 -1.562,2.013c0.67,-1.166 0.659,-1.064 1.562,-2.013Z" style="fill:#b9451b;fill-opacity:0.22;"/><path d="M425.583,96.826c-1.002,0.496 -1.861,0.923 -2.023,1.003l-0.48,0.037c1.27,-0.62 1.222,-0.572 2.503,-1.04Z" style="fill:#a9764f;fill-opacity:0.3;"/><path d="M133.244,42.337c0.544,1.235 0.384,1.243 -0.019,2.546c0.006,-0.849 0.013,-1.697 0.019,-2.546Z" style="fill:#a56752;fill-opacity:0.23;"/><path d="M248.593,70.389c0.873,0.48 0.802,0.381 1.513,1.017l0.127,0.369c-0.865,-0.727 -0.828,-0.638 -1.64,-1.386Z" style="fill:#71646c;fill-opacity:0.33;"/><path d="M198.836,69.754c0.699,-0.719 0.832,-0.724 1.557,-0.043c-0.519,0.014 -1.038,0.028 -1.557,0.043Z" style="fill:#85cca1;fill-opacity:0.26;"/><path d="M146.493,16.314c1.136,0.053 1.147,-0.214 2.07,0.457c-1.108,-0.039 -1.04,0.026 -2.07,-0.457Z" style="fill:#78918a;fill-opacity:0.42;"/><path d="M149.545,16.827c1.143,0.061 1.142,-0.189 2.064,0.455c-1.129,-0.024 -1.065,0.017 -2.064,-0.455Z" style="fill:#787c95;fill-opacity:0.42;"/><path d="M192.216,122.109c-0.402,0.405 -0.22,0.407 -0.657,0.876c-0.403,0.432 -0.458,0.28 -0.845,0.672c0.591,-0.937 0.517,-0.887 1.502,-1.548Z" style="fill:#b24a1f;fill-opacity:0.2;"/><path d="M227.268,125.211c0.112,0.13 0.068,0.022 1.427,1.593c-0.918,-0.658 -0.858,-0.616 -1.427,-1.593Z" style="fill:#bc4f1b;fill-opacity:0.24;"/><path d="M231.921,99.854c-0.642,0.673 -0.621,0.581 -1.475,1.053c0.674,-0.651 0.625,-0.57 1.475,-1.053Z" style="fill:#544fa1;fill-opacity:0.32;"/><path d="M410.293,92.659c0.149,0.851 0.299,1.703 0.448,2.554c-0.126,-0.165 -0.418,-0.547 -0.448,-2.554Z" style="fill:#a34f32;fill-opacity:0.22;"/><path d="M132.756,37.761c0.177,1.232 0.281,1.131 0.194,2.455c-0.301,-1.234 -0.171,-1.179 -0.194,-2.455Z" style="fill:#a86a49;fill-opacity:0.35;"/><path d="M227.835,70.832c-0.132,0.06 -1.031,0.471 -1.603,0.848c0.582,-0.786 0.593,-0.733 1.603,-0.848Z" style="fill:#8d6477;fill-opacity:0.35;"/><path d="M40.216,89.106l0.007,2.036c-0.596,-0.633 -0.452,-0.668 -0.288,-1.479l0.282,-0.556Z" style="fill:#b46e56;fill-opacity:0.22;"/><path d="M133.244,24.696c1.794,-0.109 0.515,1.265 0.473,1.351c-0.108,-0.772 -0.017,-0.755 -0.473,-1.351Z" style="fill:#a5656d;fill-opacity:0.22;"/><path d="M134.214,58.582l0.068,2.053c-0.342,-1.106 -0.773,-1.119 -0.068,-2.053Z" style="fill:#9e5d56;fill-opacity:0.29;"/><path d="M26.51,127.318c0.521,-0.028 1.042,-0.057 1.563,-0.085c-0.695,0.755 -0.854,0.725 -1.563,0.085Z" style="fill:#b4a068;fill-opacity:0.24;"/><path d="M434.279,93.828c-0.308,0.903 -0.449,0.749 -1.114,1.349c0.515,-0.761 0.416,-0.728 1.114,-1.349Z" style="fill:#b95c38;fill-opacity:0.18;"/><path d="M253.257,125.247c-0.818,0.617 -0.746,0.522 -1.543,0.958c0.744,-0.657 0.698,-0.551 1.543,-0.958Z" style="fill:#b73114;fill-opacity:0.22;"/><path d="M499.707,74.394c0.599,0.598 0.458,0.618 0.223,1.407c-0.074,-0.469 -0.149,-0.938 -0.223,-1.407Z" style="fill:#a371aa;fill-opacity:0.2;"/><path d="M132.325,31.177c0.324,0.964 0.357,0.861 0.258,1.944c-0.25,-1.002 -0.317,-0.942 -0.258,-1.944Z" style="fill:#ab603c;fill-opacity:0.2;"/><path d="M44.803,123.28c0.499,0.092 0.997,0.184 1.496,0.275c-0.87,0.162 -0.864,0.291 -1.496,-0.275Z" style="fill:#c8b564;fill-opacity:0.24;"/><path d="M134.273,68.259c0.367,0.996 0.404,0.941 0.218,1.951c-0.258,-0.995 -0.186,-0.89 -0.218,-1.951Z" style="fill:#ab565d;fill-opacity:0.3;"/><path d="M326.912,48.774c0.751,-0.527 0.789,-0.557 1.589,-0.012c-0.53,0.004 -1.059,0.008 -1.589,0.012Z" style="fill:#869072;fill-opacity:0.37;"/><path d="M36.701,66.238c-1,0.469 -0.97,0.375 -2.031,0.504c0.677,-0.168 1.354,-0.336 2.031,-0.504Z" style="fill:#a96745;fill-opacity:0.24;"/><path d="M470.28,19.967c-0.517,0.769 -0.461,0.706 -1.051,1.509c0.456,-0.877 0.333,-0.83 1.051,-1.509Z" style="fill:#a06a57;fill-opacity:0.31;"/><path d="M431.1,123.814l1.594,-0.044c-0.746,0.612 -0.794,0.63 -1.594,0.044Z" style="fill:#a5863d;fill-opacity:0.28;"/><path d="M493.154,7.342c0.681,-0.006 1.361,-0.011 2.042,-0.017c-1.089,0.34 -1.035,0.317 -2.042,0.017Z" style="fill:#5a71a3;fill-opacity:0.4;"/><path d="M39.743,87.574c0.158,0.511 0.316,1.021 0.474,1.532l-0.282,0.556c-0.146,-1.11 -0.049,-1.034 -0.192,-2.088Z" style="fill:#a15937;fill-opacity:0.24;"/><path d="M428.645,111.904c0.333,0.357 0.667,0.714 1,1.072c-0.526,-0.527 -0.473,-0.469 -1,-1.072Z" style="fill:#788154;fill-opacity:0.49;"/><path d="M132.241,34.712c0.183,0.677 0.367,1.354 0.55,2.032c-0.418,-0.973 -0.378,-0.914 -0.55,-2.032Z" style="fill:#aa4020;fill-opacity:0.27;"/><path d="M437.255,93.241c-0.68,0.162 -1.36,0.324 -2.04,0.487c0.68,-0.162 1.36,-0.324 2.04,-0.487Z" style="fill:#a05d31;fill-opacity:0.27;"/><path d="M196.294,87.576c0.357,1.089 0.332,1.024 -0.047,2.031c0.016,-0.677 0.031,-1.354 0.047,-2.031Z" style="fill:#854f61;fill-opacity:0.29;"/><path d="M496.206,7.259c1.054,0.143 0.976,0.071 2.033,0.509c-0.678,-0.17 -1.355,-0.339 -2.033,-0.509Z" style="fill:#ae441b;fill-opacity:0.26;"/><path d="M429.761,113.41c0.284,0.206 0.569,0.413 0.853,0.619l0.078,0.41c-0.516,-0.506 -0.449,-0.426 -0.931,-1.029Z" style="fill:#53718a;fill-opacity:0.41;"/><path d="M246.077,68.351c0.596,0.464 0.529,0.407 1.034,0.965c-0.345,-0.322 -0.69,-0.643 -1.034,-0.965Z" style="fill:#ab675a;fill-opacity:0.19;"/><path d="M11.213,103.297l-0.054,0.462c-0.27,0.21 -0.539,0.42 -0.809,0.63c0.069,-0.087 0.435,-0.545 0.863,-1.092Z" style="fill:#b3451c;fill-opacity:0.17;"/><path d="M235.446,98.74c-0.512,0.16 -1.024,0.319 -1.536,0.479l-0.497,0.035c1.008,-0.41 0.933,-0.358 2.034,-0.514Z" style="fill:#9a4f41;fill-opacity:0.29;"/><path d="M236.467,67.808c-0.508,0.154 -1.016,0.309 -1.524,0.463c0.634,-0.528 0.637,-0.373 1.524,-0.463Z" style="fill:#906587;fill-opacity:0.3;"/><path d="M187.68,125.719c-0.679,0.585 -0.657,0.39 -1.538,0.523c0.513,-0.174 1.025,-0.349 1.538,-0.523Z" style="fill:#ae635f;fill-opacity:0.26;"/><path d="M11.723,102.292c-0.188,0.489 -0.376,0.978 -0.564,1.466l0.054,-0.462c0.17,-0.335 0.34,-0.67 0.51,-1.005Z" style="fill:#aa684e;fill-opacity:0.23;"/><path d="M471.832,123.635c0.335,0.343 0.669,0.686 1.004,1.028c-0.526,-0.528 -0.464,-0.463 -1.004,-1.028Z" style="fill:#b44822;fill-opacity:0.19;"/><path d="M196.726,105.843c-0.282,0.361 -0.563,0.723 -0.845,1.084c0.432,-0.587 0.386,-0.528 0.845,-1.084Z" style="fill:#9b6a56;fill-opacity:0.21;"/><path d="M476.802,127.374c0.086,0.073 0.529,0.449 1.09,0.894c-0.363,-0.298 -0.726,-0.596 -1.09,-0.894Z" style="fill:#bc4836;fill-opacity:0.28;"/><path d="M469.834,121.593c0.313,0.355 0.626,0.711 0.939,1.066c-0.495,-0.553 -0.437,-0.486 -0.939,-1.066Z" style="fill:#af451c;fill-opacity:0.19;"/><path d="M171.493,27.958c0.771,-0.126 0.708,0.006 1.437,0.269c-0.82,-0.056 -0.735,-0.043 -1.437,-0.269Z" style="fill:#c99639;fill-opacity:0.29;"/><path d="M339.654,53.004c0.602,0.534 0.523,0.459 0.994,1.03c-0.812,-0.653 -0.855,-0.517 -0.994,-1.03Z" style="fill:#7f8b7c;fill-opacity:0.33;"/><path d="M344.24,73.341c0.185,0.671 0.37,1.342 0.555,2.013c-0.185,-0.671 -0.37,-1.342 -0.555,-2.013Z" style="fill:#a53f19;fill-opacity:0.29;"/><path d="M233.412,99.254l0.497,-0.035c-0.506,0.178 -1.013,0.357 -1.519,0.535c0.341,-0.167 0.681,-0.334 1.022,-0.501Z" style="fill:#a1665b;fill-opacity:0.28;"/><path d="M388.001,125.289c-0.725,0.556 -0.714,0.371 -1.541,0.544c0.514,-0.181 1.028,-0.363 1.541,-0.544Z" style="fill:#a29133;fill-opacity:0.33;"/><path d="M139.962,127.689c0.329,0.328 0.658,0.655 0.987,0.983c-0.555,-0.459 -0.506,-0.407 -0.987,-0.983Z" style="fill:#b84f1c;fill-opacity:0.22;"/><path d="M133.725,56.055c0.288,0.747 0.359,0.67 0.228,1.448c-0.198,-0.737 -0.183,-0.66 -0.228,-1.448Z" style="fill:#c0956a;fill-opacity:0.29;"/><path d="M136.753,89.101c0.278,0.705 0.381,0.63 0.262,1.448c-0.087,-0.483 -0.174,-0.965 -0.262,-1.448Z" style="fill:#c26752;fill-opacity:0.26;"/><path d="M121.663,17.1c0.483,-0.078 0.966,-0.156 1.448,-0.234c-0.719,0.273 -0.636,0.376 -1.448,0.234Z" style="fill:#858d91;fill-opacity:0.33;"/><path d="M469.19,119.623c0.18,0.507 0.36,1.015 0.54,1.522c-0.18,-0.507 -0.36,-1.015 -0.54,-1.522Z" style="fill:#a96233;fill-opacity:0.27;"/><path d="M246.551,99.386c0.508,0.161 1.016,0.322 1.524,0.483c-0.896,-0.145 -0.834,-0.002 -1.524,-0.483Z" style="fill:#6c3c73;fill-opacity:0.35;"/><path d="M294.985,122.505c0.802,-0.116 0.718,-0.029 1.465,0.231c-0.769,-0.045 -0.686,-0.017 -1.465,-0.231Z" style="fill:#b8a250;fill-opacity:0.33;"/><path d="M29.085,126.212c-0.533,0.538 -0.461,0.466 -1.012,1.021c0.337,-0.34 0.675,-0.681 1.012,-1.021Z" style="fill:#a46643;fill-opacity:0.23;"/><path d="M73.826,67.783c-0.195,0.318 -0.391,0.636 -0.586,0.954c0.163,-0.602 0.15,-0.543 0.586,-0.954Z" style="fill:#cb7564;fill-opacity:0.14;"/><path d="M398.138,43.765c0.511,0.177 1.021,0.354 1.532,0.531c-0.511,-0.177 -1.021,-0.354 -1.532,-0.531Z" style="fill:#746b5f;fill-opacity:0.33;"/><path d="M248.164,128.265c-0.717,0.526 -0.679,0.365 -1.533,0.485c0.511,-0.162 1.022,-0.323 1.533,-0.485Z" style="fill:#b04e22;fill-opacity:0.26;"/><path d="M193.31,112.012l0.422,-0.074c-0.145,0.617 -0.106,0.55 -0.468,1.053l0.046,-0.979Z" style="fill:#8e5e9a;fill-opacity:0.47;"/><path d="M422.626,97.939l-0.071,0.355c0.015,0.319 0.029,0.639 0.044,0.958c-0.283,-0.66 -0.323,-0.647 0.027,-1.313Z" style="fill:#b95923;fill-opacity:0.15;"/><path d="M422.626,97.939l0.455,-0.073l0.48,-0.037c-0.454,0.385 -0.392,0.336 -1.006,0.465l0.071,-0.355Z" style="fill:#b37936;fill-opacity:0.23;"/><path d="M487.648,7.424c0.481,-0.061 0.962,-0.123 1.443,-0.184c-0.766,0.254 -0.683,0.284 -1.443,0.184Z" style="fill:#c85a82;fill-opacity:0.35;"/><path d="M226.266,122.14c0.306,0.769 0.326,0.693 0.222,1.441c-0.074,-0.48 -0.148,-0.961 -0.222,-1.441Z" style="fill:#ad5483;fill-opacity:0.3;"/><path d="M85.064,123.468c0.777,-0.069 0.69,0.002 1.444,0.276c-0.481,-0.092 -0.963,-0.184 -1.444,-0.276Z" style="fill:#b75612;fill-opacity:0.28;"/><path d="M377.308,126.179c0.324,0.179 0.648,0.359 0.972,0.538c-0.324,-0.179 -0.648,-0.359 -0.972,-0.538Z" style="fill:#cc572e;fill-opacity:0.19;"/><path d="M70.192,114.533c0.16,0.35 0.32,0.699 0.479,1.049c-0.16,-0.35 -0.32,-0.699 -0.479,-1.049Z" style="fill:#ae7d57;fill-opacity:0.25;"/><path d="M28.061,97.237c0.758,-0.262 0.665,-0.276 1.449,-0.189c-0.483,0.063 -0.966,0.126 -1.449,0.189Z" style="fill:#ba6e51;fill-opacity:0.31;"/><path d="M147.037,127.787c-0.326,0.188 -0.652,0.377 -0.978,0.565c0.326,-0.188 0.652,-0.377 0.978,-0.565Z" style="fill:#b18664;fill-opacity:0.25;"/><path d="M193.31,112.012l-0.046,0.979l-0.138,0.441c-0.134,-0.799 -0.043,-0.72 0.185,-1.42Z" style="fill:#57327d;fill-opacity:0.29;"/><path d="M478.38,12.28c-0.324,0.195 -0.648,0.39 -0.972,0.585c0.324,-0.195 0.648,-0.39 0.972,-0.585Z" style="fill:#8b7e77;fill-opacity:0.3;"/><path d="M528.44,98.83c-0.009,0.462 -0.019,0.924 -0.028,1.386c-0.09,-0.776 -0.077,-0.699 0.028,-1.386Z" style="fill:#914e31;fill-opacity:0.11;"/><path d="M34.171,66.774c-0.34,0.162 -0.681,0.324 -1.021,0.486c0.34,-0.162 0.681,-0.324 1.021,-0.486Z" style="fill:#b26b2c;fill-opacity:0.21;"/><path d="M343.71,71.319c0.171,0.335 0.341,0.671 0.512,1.006c-0.171,-0.335 -0.341,-0.671 -0.512,-1.006Z" style="fill:#c1542f;fill-opacity:0.22;"/><path d="M250.714,127.253c-0.347,0.154 -0.694,0.308 -1.041,0.462c0.347,-0.154 0.694,-0.308 1.041,-0.462Z" style="fill:#b93916;fill-opacity:0.22;"/><path d="M196.306,71.812c-0.329,0.177 -0.657,0.354 -0.986,0.53c0.329,-0.177 0.657,-0.354 0.986,-0.53Z" style="fill:#ac534e;fill-opacity:0.24;"/><path d="M250.106,71.406c0.205,0.302 0.411,0.604 0.616,0.905c-0.163,-0.179 -0.326,-0.357 -0.489,-0.536l-0.127,-0.369Z" style="fill:#c44627;fill-opacity:0.25;"/><path d="M474.799,126.235c0.196,0.317 0.391,0.635 0.587,0.952c-0.196,-0.317 -0.391,-0.635 -0.587,-0.952Z" style="fill:#bc6722;fill-opacity:0.24;"/><path d="M251.576,73.456c0.198,0.312 0.396,0.624 0.594,0.936c-0.156,-0.178 -0.312,-0.355 -0.468,-0.533l-0.126,-0.403Z" style="fill:#94327b;fill-opacity:0.33;"/><path d="M40.551,92.218l0.21,1.456c-0.277,-0.72 -0.289,-0.64 -0.21,-1.456Z" style="fill:#aa401f;fill-opacity:0.19;"/><path d="M492.22,52.435c0.32,0.169 0.641,0.338 0.961,0.506c-0.32,-0.169 -0.641,-0.338 -0.961,-0.506Z" style="fill:#3a188e;fill-opacity:0.35;"/><path d="M228.786,127.249c0.164,0.345 0.327,0.69 0.491,1.035c-0.164,-0.345 -0.327,-0.69 -0.491,-1.035Z" style="fill:#b0451c;fill-opacity:0.22;"/><path d="M41.1,101.817l0.145,1.525c-0.378,-0.723 -0.312,-0.678 -0.145,-1.525Z" style="fill:#a77855;fill-opacity:0.45;"/><path d="M9.964,105.95c0.064,0.766 0.065,0.687 -0.205,1.448c0.068,-0.483 0.137,-0.965 0.205,-1.448Z" style="fill:#c24b1d;fill-opacity:0.31;"/><path d="M226.73,104.813c-0.161,0.345 -0.322,0.69 -0.482,1.035c0.161,-0.345 0.322,-0.69 0.482,-1.035Z" style="fill:#ae4722;fill-opacity:0.24;"/><path d="M201.902,122.645c0.32,0.205 0.641,0.411 0.961,0.616c-0.32,-0.205 -0.641,-0.411 -0.961,-0.616Z" style="fill:#b27850;fill-opacity:0.29;"/><path d="M70.761,71.31c-0.191,0.323 -0.382,0.646 -0.572,0.969c0.191,-0.323 0.382,-0.646 0.572,-0.969Z" style="fill:#bc451c;fill-opacity:0.18;"/><path d="M376.269,124.152c0.293,0.199 0.587,0.397 0.88,0.596c-0.594,-0.195 -0.495,-0.185 -0.88,-0.596Z" style="fill:#bf4421;fill-opacity:0.14;"/><path d="M188.117,27.566c-0.304,0.209 -0.608,0.418 -0.912,0.627c0.304,-0.209 0.608,-0.418 0.912,-0.627Z" style="fill:#b24b69;fill-opacity:0.3;"/><path d="M228.826,70.264c-0.331,0.189 -0.661,0.379 -0.992,0.568c0.331,-0.189 0.661,-0.379 0.992,-0.568Z" style="fill:#b5451f;fill-opacity:0.27;"/><path d="M148.074,102.25c0.309,0.202 0.617,0.404 0.926,0.606c-0.309,-0.202 -0.617,-0.404 -0.926,-0.606Z" style="fill:#8d6981;fill-opacity:0.34;"/><path d="M185.053,125.914c-0.484,0.101 -0.968,0.202 -1.452,0.303c0.484,-0.101 0.968,-0.202 1.452,-0.303Z" style="fill:#904510;fill-opacity:0.16;"/><path d="M225.804,106.392c-0.174,0.335 -0.347,0.671 -0.521,1.006c0.174,-0.335 0.347,-0.671 0.521,-1.006Z" style="fill:#bb4620;fill-opacity:0.29;"/><path d="M387.995,116.714c0.799,-0.126 0.743,-0.077 1.512,0.103c-0.504,-0.034 -1.008,-0.069 -1.512,-0.103Z" style="fill:#987f63;fill-opacity:0.5;"/><path d="M134.014,53.965c0.013,0.51 0.025,1.019 0.038,1.529c-0.061,-1.24 -0.085,-1.202 -0.038,-1.529Z" style="fill:#8f553d;fill-opacity:0.25;"/><path d="M482.45,9.231c-0.329,0.191 -0.657,0.381 -0.986,0.572c0.329,-0.191 0.657,-0.381 0.986,-0.572Z" style="fill:#a36558;fill-opacity:0.32;"/><path d="M41.817,122.093c0.32,0.198 0.64,0.397 0.96,0.595c-0.32,-0.198 -0.64,-0.397 -0.96,-0.595Z" style="fill:#bd230e;fill-opacity:0.28;"/><path d="M247.662,69.763c0.311,0.209 0.621,0.418 0.932,0.627c-0.311,-0.209 -0.621,-0.418 -0.932,-0.627Z" style="fill:#bb491f;fill-opacity:0.26;"/><path d="M251.147,72.873c0.143,0.194 0.286,0.389 0.428,0.583l0.126,0.403c-0.185,-0.329 -0.369,-0.658 -0.554,-0.987Z" style="fill:#856f14;fill-opacity:0.29;"/><path d="M522.08,85.582c0.176,0.329 0.352,0.658 0.528,0.987c-0.176,-0.329 -0.352,-0.658 -0.528,-0.987Z" style="fill:#5a6971;fill-opacity:0.47;"/><path d="M430.614,114.029c0.193,0.254 0.387,0.508 0.58,0.763l-0.502,-0.353l-0.078,-0.41Z" style="fill:#50657e;fill-opacity:0.36;"/><path d="M378.824,43.329c0.431,0.43 0.402,0.359 0.549,0.908c-0.183,-0.303 -0.366,-0.605 -0.549,-0.908Z" style="fill:#7a6459;fill-opacity:0.38;"/></g></svg>