<?xml version="1.0" encoding="UTF-8" standalone="no"?><!DOCTYPE svg PUBLIC "-//W3C//DTD SVG 1.1//EN" "http://www.w3.org/Graphics/SVG/1.1/DTD/svg11.dtd"><svg width="100%" height="100%" viewBox="0 0 1198 147" version="1.1" xmlns="http://www.w3.org/2000/svg" xmlns:xlink="http://www.w3.org/1999/xlink" xml:space="preserve" xmlns:serif="http://www.serif.com/" style="fill-rule:evenodd;clip-rule:evenodd;stroke-linejoin:round;stroke-miterlimit:2;"><g id="Background"><path d="M314.045,62.204c-1.904,0.264 -1.908,0.21 -2.056,0.285c-9.434,4.795 1.917,2.409 2.161,2.335c1.233,-0.14 6.516,-0.738 15.129,3.404c0.169,0.081 -0.16,0.329 1.629,1.691c1.65,1.257 1.756,0.932 4.243,1.712c0.415,1.82 0.584,1.832 2.365,2.293c0.591,0.609 0.532,0.527 1.147,1.183c2.055,2.187 2.017,2.128 4.482,3.688c0.18,0.114 8.634,17.464 5.583,22.927c-3.206,5.74 -1.409,6.632 -5.674,11.643c-0.304,0.357 -1.627,5.042 -2.461,5.596c-0.504,0.334 -3.436,2.279 -4.348,6.189c-1.862,0.419 -1.615,0.802 -2.239,1.285c-9.831,1.204 -8.989,3.171 -9.773,4.139c-1.437,1.774 -11.281,2.011 -12.276,2.035c-1.451,0.061 -1.354,0.23 -3.563,1.054c-1.322,-0.029 -8.856,-0.197 -16.308,-2.708c-2.274,-0.766 -6.456,-1.548 -1.487,-5.012c3.835,-2.674 0.961,-3.738 -0.122,-20.468c-0.027,-4.75 -0.918,-4.479 -1.019,-4.714c0.006,-2.474 -0,-2.434 -0.052,-17.425c-0.356,-1.179 -0.712,-2.358 -1.068,-3.537c0.457,-52.785 -1.663,-59.627 4.843,-60.789c7.259,-1.297 17.049,-7.509 29.148,1.403c7.431,5.475 8.262,5.056 11.657,13.956c0.747,1.959 -4.872,15.295 -7.369,17.039c-4.903,3.425 -3.6,4.964 -12.573,10.798Zm15.244,58.152c-2.03,0.105 -2.096,-0.086 -3.555,1.224c-5.554,4.507 -22.398,6.325 -22.778,2.397c-1.321,-13.664 -1.322,-13.864 -1.325,-15.075c-0.027,-11.735 -1.029,-11.598 -1.153,-23.306c-0.064,-6.04 -3.542,-7.637 -0.489,-10.696c7.718,-7.732 20.783,1.599 21.053,1.678c3.171,0.927 10.899,7.828 11.355,9.213c3.481,10.557 6.467,9.9 5.974,20.748c-0.149,3.291 -4.572,11.675 -9.082,13.817Zm-18.669,-95.225c1.022,0.893 0.931,0.88 2.233,1.369c3.414,2.283 3.703,1.844 6.352,5.306c3.441,4.498 3.906,4.331 3.931,6.07c0.122,8.781 -7.167,12.603 -8.028,13.757c-1.661,2.227 -6.216,5.141 -6.344,5.267c-0.653,0.64 -5.983,5.866 -8.604,7.524c-0.995,-0.624 -1.029,-0.425 -1.964,-1.023c-0.091,-4.696 -0.443,-4.607 -0.1,-9.211c0.696,-9.353 -2.09,-9.128 -2.205,-26.805c-0.025,-3.891 7.999,-9.212 14.731,-2.253Z" style="fill:#7c85d6;fill-opacity:0.96;"/><path d="M1197.499,133.354l0,6.987c-10.258,4.798 -8.832,-1.944 -15.117,-11.259c-0.752,-1.114 -0.152,-1.374 -8.37,-14.571c-0.53,-0.852 1.514,-1.586 -4.654,-11.645c-1.258,-2.052 -0.181,-2.506 -1.7,-4.35c-2.396,-2.908 -0.375,-3.697 -3.739,-10.392c-1.738,-3.458 -2.117,-3.327 -2.229,-7.142c-0.111,-3.754 -1.964,-1.061 -5.357,0.421c-1.65,0.721 -2.275,1.765 -2.403,1.979c-0.729,1.219 -7.487,3.779 -6.665,8.035c1.35,6.994 -0.959,7.121 0.743,13.988c0.65,2.622 -2.145,4.803 -0.903,9.241c1.317,4.704 1.686,4.759 0.279,9.516c-1.351,4.567 0.033,4.789 -1.726,9.183c-1.055,2.636 -9.624,7.584 -9.599,-3.486c0.008,-3.537 1.226,-3.513 0.276,-6.976c-1.107,-4.033 1.421,-9.901 -0.02,-15.133c-0.165,-0.6 -1.021,-16.712 -0.784,-18.581c0.246,-1.947 -0.807,-1.899 -0.684,-24.525c0.076,-14.023 -0.046,-14.025 -0.841,-16.292c-0.556,-1.585 0.653,-1.623 0.799,-20.977c0.087,-11.452 3.376,-13.899 5.068,-12.841c2.585,1.616 2.702,1.507 5.634,0.653c1.359,-0.396 5.066,-1.476 17.678,-0.872c0.901,0.043 13.297,4.863 18.325,9.837c4.988,4.935 5.125,5.986 5.212,6.657c0.919,7.079 1.226,7.06 -0.107,14.059c-0.584,1.618 -0.762,1.527 -0.616,3.317c-5.706,16.966 -11.461,13.187 -14.624,20.02c-0.94,2.03 -3.379,1.154 -2.552,3.433c1.447,3.988 3.227,2.986 6.45,10.165c0.541,1.206 3.477,5.818 3.793,6.315c0.428,0.672 -1.014,1.19 3.477,9.334c2.319,4.206 5.057,16.523 10.446,23.436c0.462,0.593 -0.071,0.685 2.576,9.041c0.626,1.976 0.959,1.697 1.936,3.426Zm-53.614,-92.002c-0.088,-2.091 -0.254,-12.015 -0.571,-12.797c-3.857,-9.529 9.468,-8.349 14.212,-5.013c2.841,1.997 3.35,0.764 5.789,2.334c5.731,3.688 6.197,2.518 6.632,2.9c10.153,8.934 7.285,17.408 6.764,21.843c-0.729,6.199 -20.806,25.632 -26.381,27.992c-0.57,0.241 -4.265,4.966 -4.271,1.125c-0.008,-5.316 -1.649,-5.209 -0.712,-10.526c1.105,-6.27 -1.125,-6.275 -0.018,-11.646c1.668,-8.094 -0.464,-7.943 -1.444,-16.213Z" style="fill:#6d81fe;fill-opacity:0.96;"/><path d="M703.902,20.547c-0.172,1.763 -0.006,1.658 0.578,3.331c0.045,1.925 -0.182,1.895 0.579,3.659c-0.442,2.396 -0.283,2.332 0.655,4.473c0.279,1.164 1.189,17.373 3.6,26.777c3.212,12.527 -0.862,17.226 1.623,21.161c3.24,5.131 1.938,5.465 2.013,11.484c0.124,10.012 1.996,9.764 2.192,19.783c0.18,9.197 4.834,12.869 3.175,18.655c-1.228,4.281 -2.969,4.8 -3.429,4.938c-6.634,1.979 -8.815,-4.321 -9.088,-5.109c-1.417,-4.093 -4.735,0.58 -5.224,0.946c-6.816,5.104 -7.555,3.009 -16.077,2.929c-3.562,-1.274 -3.505,-1.258 -3.566,-1.27c-6.62,-5.193 -6.163,-5.527 -11.65,-11.676c-5.557,-6.228 -3.458,-7.232 -5.908,-15.216c0.349,-1.184 0.698,-2.368 1.048,-3.551c0.064,-0.738 0.677,-7.781 1.697,-9.099c2.316,-2.993 2.616,-2.681 4.454,-5.969c0.679,-0.485 1.358,-0.971 2.037,-1.456c2.842,-3.133 2.649,-3.218 6.023,-5.638c0.743,-0.436 1.486,-0.872 2.229,-1.307c6.641,-4.624 7.105,-3.362 15.249,-3.627c4.501,-0.146 -0.297,-16.208 1.038,-24.122c2.913,-17.261 -6.423,-22.064 -1.381,-33.888c4.093,-9.597 7.541,2.437 8.133,3.791Zm-1.17,89.514c0.048,4.264 2.507,11.971 -6.416,15.501c-1.601,0.633 -9.531,3.77 -18.48,-11.017c-4.16,-6.874 -2.312,-7.407 -4.576,-17.337c-1.15,-5.047 3.303,-2.845 10.418,-12.515c2.723,-3.701 10.349,-4.608 15.087,0.684c0.964,1.077 4.181,16.2 3.812,17.608c-0.144,0.548 -0.546,2.082 0.154,7.076Z" style="fill:#7c85d9;fill-opacity:0.96;"/><path d="M104.965,27.571c3.313,-6.358 3.651,-6.355 4.262,-6.35c3.926,0.034 1.682,17.425 4.654,27.122c0.334,1.091 -0.184,6.97 1.019,9.367c0.547,1.09 -0.663,1.292 1.901,15.128c1.177,6.353 -1.838,6.37 -0.5,12.748c1.029,4.904 -1.295,6.279 -0.117,10.511c0.265,0.952 1.213,20.032 2.638,25.539c0.585,2.262 0.453,3.103 -1.504,10.516c-0.435,1.648 -2.966,1.433 -3.429,1.499c-1.692,-0.617 -1.569,-0.903 -3.371,-0.616c-7.084,-1.788 -5.135,-4.896 -7.352,-6.333c-3.255,-2.11 -2.169,-2.966 -4.553,-6.058c-0.132,-2.458 -0.133,-2.394 -1.243,-4.697c-1.397,-3.389 -3.418,-3.966 -6.368,-9.599c-4.496,-8.584 -5.506,-8.009 -8.47,-17.278c-0.218,-0.682 -3.516,-8.16 -5.468,-10.786c-0.394,-0.529 -0.021,-3.382 -2.891,-6.565c-3.58,-3.971 -5.123,-24.122 -8.191,-22.506c-0.226,0.119 -0.416,0.299 -0.641,0.418c0.374,2.31 4.382,27.088 4.794,28.857c4.385,18.825 0.053,23.667 0.894,29.214c1.677,11.068 0.384,15.147 -0.012,16.397c-1.232,3.888 0.579,4.047 -0.4,8.012c-4.396,0.196 -4.509,2.765 -8.32,0.597c-0.145,-0.083 -0.15,-0.038 -2.029,-0.507c-0.631,-10.62 2.574,-10.7 0.064,-20.979c-0.244,-1.001 1.729,-22.488 -2.314,-38.435c-1.216,-4.798 0.976,-5.071 -1.258,-12.786c-0.416,-1.435 0.968,-1.424 0.905,-18.654c-0.03,-8.255 -1.506,-22.101 5.114,-20.134c0.037,0.011 6.371,8.046 6.845,9.664c1.965,6.696 4.385,5.867 4.9,12.79c0.09,1.214 5.027,15.143 6.856,17.404c0.103,0.549 0.132,0.51 1.288,3.519c0.326,0.809 1.595,3.962 5.71,9.288c0.09,0.516 0.116,0.478 1.232,3.555c0.373,2.677 0.752,2.546 7.069,15.001c0.306,0.603 1.037,0.103 4.745,6.989c5.594,10.392 7.898,27.606 8.799,18.754c0.465,-4.563 -3.67,-5.461 -3.653,-30.24c0.009,-12.913 0.389,-12.933 -0.858,-18.63c-0.099,-0.45 -0.149,-0.679 -0.336,-5.755c-0.141,-5.418 1.053,-5.54 -1.053,-10.545c-0.005,-3.11 -0.009,-6.221 -0.014,-9.331c1.511,-3.342 1.152,-3.419 0.031,-6.975l-0.034,-5.837c0.668,-1.651 0.888,-1.55 0.66,-3.295Z" style="fill:#7c86d8;fill-opacity:0.96;"/><path d="M427.229,30.797c0.453,1.767 0.437,1.855 2.127,2.479c0.822,2.353 4.905,6.583 6.002,8.031c0.407,0.777 0.815,1.555 1.222,2.332c1.342,3.047 1.324,3.029 1.476,3.32c2.065,3.952 5.606,5.697 5.575,9.517c-0.038,4.616 4.95,8.035 4.935,12.706c-0.005,1.55 2.426,3.551 3.238,0.315c0.42,-1.675 1.121,-1.055 2.345,-2.304c3.771,-3.848 3.865,-3.621 4.136,-3.993c3.244,-4.464 2.674,-4.842 3.058,-5.125c2.773,-2.042 2.877,-1.903 4.306,-5.032c1.717,-0.554 1.71,-0.635 2.23,-2.4c2.795,-1.987 3.587,-2.906 3.849,-3.209c1.115,-1.292 0.729,-1.481 1.887,-2.689c4.821,-5.028 7.345,-5.373 12.14,-13.677c2.258,-3.909 2.833,-3.444 3.022,-3.782c0.222,-0.396 1.742,-2.069 2.432,-2.203c3.854,-0.748 2.736,10.405 2.695,12.784c-0.173,9.939 1.053,9.817 1.129,19.791c0.107,14.075 1.502,13.952 1.245,27.953c-0.378,20.572 1.622,25.302 2.674,35.082c-0.173,1.78 0.04,1.681 0.649,3.328c-0.37,3.773 0.293,4.293 -1.258,4.929c-3.546,1.455 -2.704,2.883 -4.812,3.25c-1.024,0.178 -2.735,0.476 -5.445,-11.793c0.218,-1.708 0.164,-1.648 -0.066,-3.367c-0.585,-7.523 -0.639,-7.422 -0.661,-8.07c-0.348,-1.575 -0.696,-3.149 -1.044,-4.724l-0.025,-2.338c0.898,-2.335 0.882,-2.357 -0.008,-4.653l0.005,-3.5c1.228,-2.835 0.846,-2.896 -0.007,-5.814c-0.211,-19.268 -0.038,-19.262 -0.187,-20.93c-1.159,-12.978 0.485,-14.634 -0.097,-23.298c-0.406,-6.043 -4.625,1.128 -8.518,3.828c-1.009,0.7 -7.522,9.465 -8.149,10.309c-6.028,8.113 -5.932,8.049 -6.468,8.734c-0.376,0.48 -4.525,2.792 -5.007,4.087c-2.19,5.88 -4.666,6.359 -6.002,7.114c-1.72,0.972 -0.527,5.548 -3.687,5.734c-6.049,0.356 -5.493,-1.376 -9.465,-5.972c-0.048,-0.462 -0.091,-0.436 -1.286,-3.551c-0.161,-1.439 -0.15,-1.372 -0.793,-2.577c-0.748,-0.685 -1.496,-1.37 -2.244,-2.055c0.175,-3.959 0.161,-4.1 -2.626,-6.999c-0.109,-0.525 -0.214,-0.396 -0.327,-0.94c-0.177,-0.855 -0.458,-0.59 -1.039,-1.339c-1.295,-3.163 -1.313,-3.013 -2.884,-6.1c-4.711,-9.26 -7.411,-18.926 -7.594,-10.272c0.353,0.758 0.707,1.516 1.06,2.274c0.319,1.227 0.639,2.453 0.958,3.68c-0.17,4.687 -0.488,4.655 0.738,9.146c0.054,3.677 -0.329,14.539 0.659,18.75c2.177,9.276 4.094,28.73 2.545,31.282c-1.916,3.159 1.028,15.081 -3.861,20.585c-6.931,7.803 -6.893,-11.249 -6.891,-12.382c0.053,-26.849 -1.103,-26.781 -1.088,-29.112c0.164,-24.705 -1.212,-24.671 -0.83,-26.78c2.141,-11.821 -0.372,-28.584 1.521,-32.45c2.615,-5.341 0.883,-7.297 4.258,-7.546c4.514,-0.333 0.745,3.999 4.43,6.574c2.017,1.409 2.013,1.294 3.82,3.063Z" style="fill:#7c85d9;fill-opacity:0.96;"/><path d="M1038.903,41.524c3.469,-6.723 5.485,-9.354 6.417,-18.843c0.214,-2.179 1.467,-1.547 2.084,-3.644c1.274,-4.334 1.609,-4.116 4.267,-7.768c0.995,-1.367 0.502,-3.633 3.205,-2.59c3.364,1.298 1.857,9.246 1.079,10.522c-1.609,2.638 -0.272,2.909 -1.147,5.839c-2.08,6.964 -2.731,6.74 -3.247,14.025c-0.141,1.985 -2.994,6.625 -3.325,7.164c-2.356,3.831 -3.023,3.499 -3.78,7.966c-0.231,1.366 -2.078,0.672 -5.878,16.285c-1.031,4.235 -0.746,8.865 -2.528,11.559c-2.144,3.242 -2.46,13.463 -4.55,16.35c-2.099,2.9 -1.805,5.558 -5.011,8.974c-4.062,4.328 -2.67,10.938 -2.81,15.539c-0.083,2.724 -2.457,1.791 -3.972,8.094c-2.833,2.297 -1.798,4.066 -5.424,4.082c-2.523,0.011 -2.386,0.127 -4.817,0.563c-8.054,-3.553 -9.136,-6.15 -12.225,-17.221c-5.865,-21.017 -7.312,-20.58 -7.959,-26.924c-0.17,-1.667 -2.267,-0.946 -7.084,-19.715c-1.813,-7.066 -4.902,-14.081 -5.425,-15.267c-1.296,-2.943 -3.379,-15.542 -6.549,-21.161c-0.678,-1.202 -1.821,-9.942 -4.677,-15.14c-2.256,-4.104 0.258,-12.331 7.368,-4.127c2.149,2.479 0.906,6.675 5.825,12.782c0.309,0.384 -0.788,0.805 2.373,5.688c0.787,1.215 -0.05,3.857 2.742,6.76c4.52,4.699 3.488,11.273 8.84,17.849c1.83,2.249 -0.685,3.337 2.338,6.976c0.106,0.128 0.051,0.146 0.686,1.965c-0.923,2.312 -0.939,2.347 -0.038,4.667c0.707,4.336 1.137,4.135 4.446,11.664c5.151,11.723 0.516,17.692 4.975,21.828c3.791,3.516 3.197,18.987 8.771,12.93c1.036,-1.126 3.365,-12.215 5.224,-14.754c5.466,-7.465 5.991,-23.541 8.655,-26.068c1.471,-1.395 3.464,-18.448 6.466,-22.849c0.187,-0.274 0.524,-0.066 4.044,-10.756c0.662,-1.616 0.944,-1.525 0.644,-3.243Z" style="fill:#6d81fe;fill-opacity:0.96;"/><path d="M862.569,91.347c3.252,-4.545 3.56,-10.526 9.799,-14.608c19.582,-12.812 25.1,5.144 27.306,7.922c6.997,8.806 7.401,24.204 6.862,25.21c-2.058,3.841 -1.198,3.976 -1.616,9.552c-0.245,3.273 -1.826,2.589 -2.753,5.714c-0.738,2.491 -2.88,0.232 -3.995,2.621c-2.291,4.907 -1.63,5.032 -1.882,5.415c-0.255,0.388 -4.551,0.649 -5.655,0.196c-4.693,-1.926 -6.406,1.807 -10.506,1.429c-7.024,-0.647 -7.841,2.987 -11.258,0.421c-11.495,-8.632 -8.125,-19.435 -9.327,-25.259c-1.555,-7.539 0.493,-7.383 1.785,-15.061c1.132,-3.086 1.162,-3.049 1.24,-3.552Zm6.459,8.224c0.023,-1.157 0.232,-11.453 2.602,-14.225c7.667,-8.966 10.471,-5.233 10.627,-5.15c0.977,0.512 7.141,10.117 7.933,12.577c4.543,14.118 5.453,14.168 3.521,28.897c-0.766,5.84 -12.571,6.775 -16.813,4.265c-0.694,-0.411 -1.65,-0.976 -4.454,-9.043c-0.101,-0.291 -3.408,-17.253 -3.416,-17.321Z" style="fill:#6d81fe;fill-opacity:0.96;"/><path d="M825.553,14.883c2.297,0.663 2.258,0.624 4.616,0.473c10.306,1.193 15.18,6.359 13.493,8.154c-1.658,1.765 -6.516,-1.304 -6.799,-1.402c-12.484,-4.314 -15.023,0.869 -21.729,3.385c-1.992,0.747 -7.538,6.941 -10.346,13.678c-0.395,1.138 -0.789,2.276 -1.184,3.414c-0.02,0.715 -0.228,8.099 -0.796,8.902c-3.793,5.371 0.162,14.047 -2.269,18.784c-3.192,6.22 -1.106,23.467 -0.76,24.662c1.314,4.533 1.926,12.334 4.296,17.606c-0.26,1.766 -0.061,1.718 0.592,3.318c0.97,6.491 2.193,5.905 6.852,10.438c0.384,1.488 0.2,1.772 2.354,2.282c3.772,2.753 6.361,2.229 13.672,-0.329c3.908,-1.368 2.347,-5.531 8.128,-8.044c2.518,-1.094 3.515,-10.122 7.322,-9.342c5.288,1.084 -3.564,12.662 -4.756,15.503c-0.628,1.495 -4.776,3.443 -5.44,4.885c-2.815,6.11 -6.403,1.712 -10.885,6.744c-1.787,2.006 -12.401,2.002 -12.512,1.929c-3.895,-2.551 -2.97,-3.641 -7.066,-5.828c-4.035,-2.154 -2.81,-3.428 -6.211,-6.362c-6.572,-5.67 -3.768,-7.297 -7.231,-15.167c-3.42,-7.772 -0.74,-8.326 -3.008,-16.5c-2.035,-7.332 1.145,-7.328 2.075,-26.787c0.091,-1.9 0.781,-1.647 0.96,-3.524c0.605,-6.333 1.951,-8.345 2.186,-10.488c0.686,-6.275 -0.62,-6.772 9.86,-25.566c0.717,-0.468 1.433,-0.937 2.15,-1.405c2.595,-2.236 3.11,-5.786 7.047,-7.107c0.32,-0.108 7.541,-4.869 15.39,-6.311Z" style="fill:#7c85d9;fill-opacity:0.95;"/><path d="M201.463,70.937c-4.265,3.755 -4.431,3.929 -4.787,4.3c-2.821,0.4 -2.652,0.717 -4.78,2.583c-1.696,-0.365 -2.342,0.348 -2.685,-1.418c-0.731,-3.756 4.786,-5.234 6.015,-6.171c7.059,-5.386 7.524,-4.389 8.112,-4.865c6.021,-4.866 13.53,6.06 13.727,6.49c5.641,12.248 7.175,12.061 6.501,25.426c-0.873,2.282 -0.89,2.323 -0.017,4.602c-0.258,2.753 0.758,2.823 -0.783,8.37c-0.838,3.017 1.038,5.061 0.819,13.808c-0.09,3.586 -5.048,4.386 -7.293,3.84c-3.423,-0.832 -3.36,-0.475 -6.857,-0.063c-11.316,1.333 -11.878,1.155 -12.861,0.843c-4.974,-1.579 -4.874,-1.886 -12.834,-2.281c-0.088,-0.467 -0.191,-0.352 -0.282,-0.836c-0.172,-0.914 -0.498,-0.599 -1.124,-1.351c-4.289,-6.574 -5.564,-12.03 -2.44,-17.802c2.106,-3.89 2.864,-7.033 17.853,-11.444c6.489,-1.91 16.217,3.887 13.103,-2.495c0.62,-2.281 0.52,-2.262 -0.517,-4.491c-0.187,-0.77 -1.714,-7.067 -3.377,-9.306c-1.093,-1.472 -1.207,-3.164 -2.302,-4.663c-0.229,-1.174 -0.365,-1.057 -1.144,-2.341c-0.049,-0.044 0.169,-1.132 -1.123,-1.015c-0.537,0.049 -0.404,0.235 -0.924,0.282Zm-9.586,33.28c1.066,-1.796 0.512,-2.309 2.495,-2.9c0.454,-0.135 5.666,-1.69 5.681,-1.686c8.386,2.037 11.93,0.857 10.897,9.408c-0.479,1.705 -0.442,1.617 -0.649,3.343l-0.017,4.666c-0.077,3.372 -1.13,2.974 -4.4,3.227c-1.392,-0.025 -15.349,-0.275 -17.053,-3.502c-4.874,-9.233 0.366,-10.718 0.898,-11.114c1.303,-0.483 1.213,-0.479 2.147,-1.443Zm18.407,12.831c1.012,2.378 1.42,2.357 0.914,3.264c-1.56,2.794 -2.321,1.113 -5.313,-0.037c3.27,-0.253 4.323,0.145 4.4,-3.227Z" style="fill:#7c85d8;fill-opacity:0.95;"/><path d="M572.664,78.479c5.131,-2.326 4.9,-2.8 10.489,-3.73c1.15,-0.191 8.459,-1.408 13.385,5.772c5.747,8.376 6.923,8 8.331,18.028c-0.149,1.804 0.041,1.707 0.7,3.352c-1.842,5.174 -0.886,7.69 -0.649,8.314c-0.302,2.672 -0.317,2.554 -0.346,3.412c-0.083,2.952 -0.155,2.862 0.688,5.775c0.979,3.383 -0.748,5.643 -0.807,6.995c-0.474,10.808 -8.501,6.996 -15.417,9.323c-5.273,1.774 -19.965,-2.406 -21.025,-3.482c-5.008,-5.085 -3.683,-8.918 -3.626,-12.878c0.565,-1.642 0.742,-1.554 0.551,-3.308l0.466,-0.316c0.356,-0.454 0.712,-0.907 1.068,-1.361c0.414,-0.445 0.625,0.31 1.04,-0.136c0.107,-0.115 0.038,-0.14 0.517,-1.891c1.839,-1.336 2.086,-1.098 2.772,-3.24c1.182,-3.687 8.474,-7.683 13.546,-5.988c0.559,0.187 6.966,2.327 6.985,2.336c6.756,3.119 2.511,-5.832 0.868,-11.638c-0.202,-0.714 -1.424,-5.031 -4.411,-8.153c-9.024,-9.43 -10.781,-1.396 -13.862,-1.037c-4.686,0.545 -4.993,2.278 -6.619,0.591c-2.789,-2.893 -0.212,-3.023 2.984,-5.555c2.414,-0.501 2.122,-1.019 2.373,-1.185Zm8.186,32.73c3.131,-3.517 5.471,0.467 7.198,0.795c4.078,0.775 4.076,0.755 4.262,0.819c1.327,0.456 0.99,13.382 0.96,14.548c-0.28,0.348 -0.561,0.697 -0.841,1.045c-8.483,0.108 -28.528,-3.897 -13.756,-15.776c1.292,-0.473 1.202,-0.46 2.178,-1.432Z" style="fill:#7c85d9;fill-opacity:0.95;"/><path d="M728.094,89.248c1.89,-6.545 5.619,-9.436 7.567,-13.048c2.03,-3.764 11.574,-7.214 17.541,-4.514c7.751,3.507 9.634,0.438 12.964,5.642c0.082,0.129 4.019,2.497 1.8,5.752c-3.487,5.116 -3.06,5.369 -7.318,9.935c-2.105,2.257 -2.247,1.952 -4.882,3.423c-1.919,1.072 -1.402,2.007 -3.64,2.244c-0.975,0.103 -11.307,6.265 -11.165,7.767c0.253,2.681 5.028,12.26 11.102,12.455c11.803,0.38 12.116,1.139 15.469,-1.411c2.034,-1.547 5.906,-0.074 1.666,5.145c-1.226,1.51 -1.303,1.3 -3.095,2.66c-0.485,0.1 -0.448,0.121 -3.532,1.308c-3.567,-0.053 -3.4,-0.974 -6.952,-1.006c-0.387,-0.003 -0.133,1.041 -4.697,1.145c-11.502,0.261 -12.578,-1.113 -21.097,-9.601c-2.69,-2.68 -2.886,-9.303 -2.382,-24.568c0.662,-1.605 0.843,-1.489 0.651,-3.329Zm11.399,-2.436c4.853,-13.799 19.261,-6.465 18.355,-2.38c-0.045,0.201 -0.194,0.874 -1.26,2.243c-0.841,1.04 -0.815,0.97 -1.242,2.335c-1.651,2.432 -1.853,2.092 -4.617,3.239c-1.05,0.239 -2.101,0.478 -3.151,0.716c-5.267,2.289 -7.532,3.013 -8.187,-2.708l0.102,-3.446Z" style="fill:#7c85d9;fill-opacity:0.95;"/><path d="M946.54,126.368c-0.164,0.246 -0.685,0.009 -0.849,0.254c-2.003,3 -1.524,3.499 -3.828,4.369c-16.812,6.35 -17.281,0.224 -20.711,-3.658c-5.367,-6.075 -1.789,-8.36 -3.362,-16.21c-4.793,-23.923 0.91,-35.755 1.603,-36.454c6.677,-6.739 5.189,16.91 5.848,19.199c5.885,20.415 2.79,25.28 5.454,28.686c4.967,6.352 7.04,5.266 12.734,-0.479c7.126,-7.188 -0.394,-18.473 1.686,-27.213c2.639,-11.086 -2.582,-25.972 11.987,-23.447c2.321,0.402 1.172,5.024 0.645,5.701c-2.401,3.085 -0.678,3.647 -1.92,7.318c-1.315,3.888 1.636,5.814 1.035,8.119c-2.793,10.724 2.479,10.877 1.494,18.7c-0.453,3.597 0.784,3.386 1.194,6.926c1.573,13.581 0.61,14.287 -0.358,14.996c-5.004,3.665 -6.269,2.716 -6.725,2.373c-3.549,-2.664 -3.577,-2.794 -4.345,-7.101c0.063,-0.255 0.974,-3.943 -0.415,-3.252c-0.494,0.246 -0.673,0.928 -1.167,1.174Z" style="fill:#6d7cfe;fill-opacity:0.96;"/><path d="M243.067,12.02c2.375,1.476 3.476,0.865 3.466,3.747c-0.008,2.404 0.493,2.233 0.666,4.522c0.192,1.03 1.15,0.895 1.016,19.915c-0.05,7.108 0.962,6.941 1.061,13.959c0.153,10.79 1.171,10.756 0.907,11.653c-2.214,7.52 2.848,7.739 0.499,15.298c-0.186,0.599 -0.354,14.807 -1.145,19.684c-0.664,4.099 1.167,4.184 -0.07,8.217c-0.087,0.285 0.797,6.362 1.981,7.926c-0.361,3.183 1.059,5.333 1.318,5.725c0.296,0.26 0.938,0.827 4.504,1.989c7.348,2.394 15.531,-14.425 16.503,-7.691c0.146,1.012 0.574,3.977 -7.69,10.214c-2.2,1.66 -9.333,3.727 -10.114,3.703c-5.463,-0.168 -8.263,2.772 -14.11,-3.237c-5.097,-5.238 -1.221,-57.892 -2.733,-69.93c-1.9,-15.127 -1.142,-15.196 -1.505,-16.468c-0.968,-3.393 -0.025,-3.357 0.348,-6.942c1,-9.611 1.216,-9.577 1.23,-10.416c0.121,-6.861 -1.757,-8.108 3.867,-11.869Z" style="fill:#7c85d8;fill-opacity:0.96;"/><path d="M17.971,105.571c-0.178,1.812 -0.013,1.698 0.577,3.309c0.682,5.01 0.302,5.282 3.778,8.85c5.671,5.822 12.6,-0.044 15.453,-5.517c2.937,-5.634 -3.881,-36.791 -0.307,-40.211c7.077,-6.771 7.023,8.311 7.359,9.109c0.45,1.069 1.057,1.249 1.091,1.33c0.122,0.282 2.122,25.689 3.978,34.594c2.878,13.805 -7.998,15.467 -9.528,11.742c-2.854,-6.948 -10.208,0.086 -15.008,-1.197c-6.458,-1.725 -7.657,0.809 -12.13,-4.24c-9.755,-11.011 -5.768,-32.731 -6.79,-44.82c-0.892,-10.545 5.514,-9.358 6.136,-8.06c2.5,5.212 3.651,4.742 3.525,5.82c-0.534,4.559 -2.061,4.527 -0.447,16.472c0.889,6.579 -0.051,6.685 2.313,12.818Z" style="fill:#7c85d9;fill-opacity:0.96;"/><path d="M389.455,91.364c0.08,-4.937 -0.706,-11.186 3.398,-16.623c4.762,-6.31 8.016,2.322 8.01,2.688c-0.259,14.8 -1.225,23.251 1.379,27.141c0.928,1.386 0.628,8.553 0.619,12.431c-1.199,5.662 -1.057,5.598 -0.587,12.871c0.082,0.367 -0.171,0.343 0.447,4.68c-6.022,3.282 -7.653,1.987 -9.391,-4.677c-1.031,-3.951 -2.223,-3.266 -10.433,-3.21c-4.119,0.028 -9.788,2.418 -14.266,-1.078c-5.717,-4.462 -4.259,-11.438 -5.216,-14.469c-1.244,-3.939 0.708,-4.101 -0.338,-8.037c-0.311,-1.171 0.175,-1.197 -0.221,-15.142c-0.027,-0.938 -0.83,-8.718 0.848,-10.908c3.19,-4.163 4.889,-1.673 7.494,5.1c0.522,1.357 0.087,9.47 0.398,18.554c0.36,1.182 0.72,2.364 1.08,3.546c0.002,1.101 0.018,11.636 1.333,13.694c2.117,3.313 14.873,3.06 15.635,1.32c0.778,-1.777 0.516,-1.828 -0.202,-24.248c0.005,-1.211 0.01,-2.423 0.015,-3.634Z" style="fill:#7c85d7;fill-opacity:0.96;"/><path d="M1057.043,85.774c0.769,2.52 1.932,1.708 3.43,-0.437c5.554,-4.44 10.179,-12.362 16.264,-7.554c4.143,3.273 2.884,4.118 5.302,8.79c2.706,5.23 4.622,4.912 3.284,10.737c-0.348,1.517 -10.693,4.07 -13.551,-3.336c-4.718,-12.228 -8.493,-2.294 -9.07,-1.723c-5.381,5.324 -0.734,8.962 -0.619,11.962c0.273,7.108 -0.854,7.43 1.593,10.848c1.864,2.602 1.291,3 -0.94,5.265c-1.476,1.499 -1.584,10.946 -1.594,11.907c-0.056,4.917 -8.639,2.303 -8.837,0.007c-0.617,-7.16 -2.397,-6.838 -2.552,-14.007c-0.452,-20.896 -5.711,-27.764 0.818,-34.574c2.939,-3.066 3.376,-0.752 6.472,2.116Z" style="fill:#6d81fe;fill-opacity:0.96;"/><path d="M1108.943,107.783c2.415,11.996 -0.365,12.154 0.669,16.244c0.837,3.313 1.602,16.862 -5.694,13.595c-5.058,-2.264 -3.344,-3.735 -6.029,-11.242c-0.643,-1.799 1.331,-4.697 0.64,-6.899c-2.585,-8.24 0.703,-12.512 -1.873,-18.694c-1.488,-3.572 -0.167,-28.038 8.278,-24.523c4.287,1.785 3.098,18.874 4.596,23.334c0.855,2.544 0.259,2.527 -0.587,8.185Z" style="fill:#6d81fe;fill-opacity:0.96;"/><path d="M564.589,40.173c-1.08,-1.776 -0.862,-1.945 -2.623,-3.075c-6.325,-4.058 0.475,-11.739 8.527,-5.218c3.356,2.718 7.694,3.383 10.145,5.184c5.502,4.045 7.722,4.962 8.458,5.266c0.17,0.127 -0.225,0.767 2.317,1.279c3.445,3.427 13.332,10.263 14.968,14.095c-0.43,1.752 -0.399,1.702 0.221,3.438c-1.482,13.505 -22.192,-12.62 -39.773,-19.599c-0.456,-0.341 0.182,-0.552 -0.228,-0.858c-0.133,-0.1 -0.149,-0.038 -2.011,-0.513Z" style="fill:#7c85d9;fill-opacity:0.96;"/><path d="M766.019,42.282c1.445,0.238 2.795,-1.199 4.649,3.74c1.016,2.707 -4.611,9.48 -6.924,9.606c-5.637,0.307 -6.213,1.214 -18.829,7.437c-2.334,-0.554 -2.235,-0.38 -4.556,-0.456c-14.724,-1.602 6.864,-10.765 6.995,-10.853c1.276,-0.216 1.172,-0.346 3.32,-1.429c0.436,-0.334 0.872,-0.669 1.308,-1.003c0.049,-0.021 7.498,-2.856 10.485,-5.726c1.095,-0.206 0.959,-0.253 3.553,-1.315Z" style="fill:#7c85d9;fill-opacity:0.95;"/><path d="M1118.182,62.311c-0.863,5.577 -3.264,3.269 -10.937,3.688c-0.692,0.038 -12.83,-5.152 -6.626,-11.473c1.872,-1.908 15.638,-6.275 17.563,7.785Z" style="fill:#6d81fe;fill-opacity:0.97;"/><path d="M1022.235,144.416l-1.165,0c-1.349,-3.681 0.029,-3.513 1.038,-4.313c0.42,0.074 -0.177,1.183 0.243,1.258c0,0 1.008,-1.996 1.096,-2.17c-0.171,-5.981 -8.752,-3.681 -9.836,-1.361c-2.489,5.326 -3.969,2.804 -4,2.431c-0.192,-2.374 0.23,-2.329 -0.146,-4.619c2.431,-0.435 2.294,-0.551 4.817,-0.563c3.627,-0.016 2.591,-1.785 5.424,-4.082c0.26,0.341 -0.136,0.94 0.125,1.281c0.672,0.879 5.067,-0.203 6.107,2.132c1.95,4.38 -0.972,6.551 -1.424,6.887c-1.934,1.437 -1.332,1.823 -2.28,3.12Z" style="fill:#e7effc;fill-opacity:0.07;"/><path d="M402.86,117.002c4.254,1.266 5.764,2.17 3.113,5.744c-0.397,0.536 -0.605,0.816 1.654,8.17c0.712,2.319 -0.2,2.555 -2.595,2.397c-0.92,-1.147 -1.839,-2.294 -2.759,-3.44c-0.47,-7.273 -0.612,-7.209 0.587,-12.871Z" style="fill:#a7aee4;fill-opacity:0.06;"/><path d="M245.48,7l2.329,0c-0.038,0.578 -0.413,6.235 0.378,7.226c2.724,3.409 3.067,3.128 4.624,7.274c1.277,3.399 -2.044,0.588 -5.613,-1.211c-0.173,-2.289 -0.673,-2.118 -0.666,-4.522c0.01,-2.882 -1.091,-2.271 -3.466,-3.747c1.854,-2.195 1.979,-2.101 2.413,-5.02Z" style="fill:#edf3fc;fill-opacity:0.09;"/><path d="M60.268,132.202c1.879,0.469 1.883,0.424 2.029,0.507c3.811,2.168 3.924,-0.401 8.32,-0.597c0.225,1.846 0.085,1.956 0.242,1.987c2.865,0.56 2.291,1.311 3.742,3.845c-0.112,0.118 0.308,1.391 -1.447,1.529c-0.732,0.058 -0.607,-0.127 -1.314,-0.071c-3.889,-3.843 -3.51,-7.145 -8.28,-4.299c-0.246,0.147 -2.698,1.61 -3.485,0.823c-0.211,-0.211 -0.44,-0.44 0.194,-3.723Z" style="fill:#d6dcea;fill-opacity:0.06;"/><path d="M314.045,62.204c0.035,0.873 0.069,1.747 0.104,2.62c-0.244,0.074 -11.594,2.46 -2.161,-2.335c0.148,-0.075 0.152,-0.021 2.056,-0.285Z" style="fill:#7a85d5;fill-opacity:0.09;"/><path d="M210.284,117.048c1.012,2.378 1.42,2.357 0.914,3.264c-1.56,2.794 -2.321,1.113 -5.313,-0.037c3.27,-0.253 4.323,0.145 4.4,-3.227Z" style="fill:#6a74bc;fill-opacity:0.11;"/><path d="M104.322,53.009c2.106,5.004 0.912,5.127 1.053,10.545c-0.895,-1.356 -0.538,-1.45 -1.053,-10.545Z" style="fill:#495eaf;fill-opacity:0.2;"/><path d="M421.927,49.668c1.415,4.477 0.777,4.469 0.738,9.146c-1.226,-4.491 -0.907,-4.459 -0.738,-9.146Z" style="fill:#7267a8;fill-opacity:0.2;"/><path d="M251.448,116.941c2.243,2.242 1.637,2.543 1.318,5.725c-0.259,-0.392 -1.679,-2.542 -1.318,-5.725Z" style="fill:#866db9;fill-opacity:0.11;"/><path d="M402.273,129.873c0.92,1.147 1.839,2.294 2.759,3.44c-0.771,0.413 -1.541,0.826 -2.312,1.24c-0.618,-4.337 -0.365,-4.313 -0.447,-4.68Z" style="fill:#777cca;fill-opacity:0.18;"/><path d="M104.338,36.703c1.121,3.556 1.48,3.633 -0.031,6.975l0.031,-6.975Z" style="fill:#565eb5;fill-opacity:0.17;"/><path d="M196.676,75.237c-1.901,2.182 -1.879,2.322 -4.78,2.583c2.127,-1.866 1.959,-2.183 4.78,-2.583Z" style="fill:#7a7ac3;fill-opacity:0.12;"/><path d="M486.281,87.942c0.853,2.918 1.235,2.979 0.007,5.814c-0.416,-2.921 -0.284,-2.861 -0.007,-5.814Z" style="fill:#596fba;fill-opacity:0.15;"/><path d="M1057.043,85.774c0.277,-0.004 0.214,-0.168 3.43,-0.437c-1.498,2.145 -2.661,2.957 -3.43,0.437Z" style="fill:#2e3668;fill-opacity:0.05;"/><path d="M434.379,69.364c0.748,0.685 1.496,1.37 2.244,2.055c-0.205,0.023 -2.562,0.291 -2.562,0.291c-0.136,-0.132 0.023,-0.169 0.317,-2.346Z" style="fill:#7182e1;fill-opacity:0.33;"/><path d="M825.553,14.883c2.462,-0.741 2.587,-1.03 4.616,0.473c-2.357,0.151 -2.318,0.19 -4.616,-0.473Z" style="fill:#6572ba;fill-opacity:0.15;"/><path d="M97.37,115.947c1.11,2.302 1.111,2.238 1.243,4.697c-1.707,-1.885 -1.147,-2.106 -1.243,-4.697Z" style="fill:#4471b8;fill-opacity:0.16;"/><path d="M946.54,126.368c0.494,-0.246 0.673,-0.928 1.167,-1.174c1.389,-0.691 0.478,2.997 0.415,3.252c-0.527,-0.693 -1.055,-1.385 -1.582,-2.078Z" style="fill:#5d78f4;fill-opacity:0.24;"/><path d="M740.359,62.608c2.32,0.076 2.221,-0.098 4.556,0.456c-2.383,0.689 -2.52,1.031 -4.556,-0.456Z" style="fill:#6368b8;fill-opacity:0.17;"/><path d="M210.333,87.98c1.037,2.23 1.138,2.21 0.517,4.491c-0.638,-2.236 -0.46,-2.189 -0.517,-4.491Z" style="fill:#6075c3;fill-opacity:0.14;"/><path d="M995.717,68.104c-0.013,1.556 -0.026,3.111 -0.038,4.667c-0.9,-2.32 -0.885,-2.355 0.038,-4.667Z" style="fill:#5c66bc;fill-opacity:0.12;"/><path d="M486.283,97.256c0.89,2.296 0.906,2.318 0.008,4.653l-0.008,-4.653Z" style="fill:#5d64aa;fill-opacity:0.16;"/><path d="M486.316,104.247c0.348,1.575 0.696,3.149 1.044,4.724c-1.429,-2.086 -0.897,-2.181 -1.044,-4.724Z" style="fill:#485bad;fill-opacity:0.2;"/><path d="M289.459,100.758c0.1,0.236 0.992,-0.036 1.019,4.714c-0.999,-2.326 -0.852,-2.284 -1.019,-4.714Z" style="fill:#4d72b6;fill-opacity:0.19;"/><path d="M705.059,27.537c0.608,2.255 0.461,2.209 0.655,4.473c-0.937,-2.141 -1.097,-2.077 -0.655,-4.473Z" style="fill:#7d8492;fill-opacity:0.18;"/><path d="M223.566,97.283l-0.017,4.602c-0.873,-2.278 -0.856,-2.32 0.017,-4.602Z" style="fill:#76648b;fill-opacity:0.15;"/><path d="M437.416,73.997c1.195,3.116 1.238,3.09 1.286,3.551c-1.359,-1.465 -1.155,-1.537 -1.286,-3.551Z" style="fill:#5b67b9;fill-opacity:0.13;"/><path d="M329.29,120.356c-3.038,1.115 -3.016,1.164 -3.555,1.224c1.459,-1.31 1.524,-1.119 3.555,-1.224Z" style="fill:#6270b3;fill-opacity:0.15;"/><path d="M298.196,63.401c0.935,0.598 0.969,0.398 1.964,1.023c-0.552,0.262 -1.897,2.022 -1.964,-1.023Z" style="fill:#5e67b5;fill-opacity:0.11;"/><path d="M201.463,70.937c0.521,-0.047 0.387,-0.233 0.924,-0.282c1.293,-0.117 1.075,0.971 1.123,1.015l0.092,1.092c-0.151,-0.167 -0.256,0.051 -2.14,-1.825Z" style="fill:#37426b;fill-opacity:0.06;"/><path d="M766.019,42.282c-2.594,1.062 -2.458,1.109 -3.553,1.315c1.511,-1.288 1.563,-1.097 3.553,-1.315Z" style="fill:#5b65a9;fill-opacity:0.17;"/><path d="M739.493,86.812l-0.102,3.446c-0.604,-1.766 -0.565,-1.738 0.102,-3.446Z" style="fill:#7564a2;fill-opacity:0.14;"/><path d="M335.151,71.63c1.284,1.096 1.23,1.043 2.365,2.293c-1.781,-0.46 -1.95,-0.473 -2.365,-2.293Z" style="fill:#5f689f;fill-opacity:0.15;"/><path d="M804.788,39.171c-0.398,1.818 -0.126,1.867 -1.184,3.414c0.395,-1.138 0.789,-2.276 1.184,-3.414Z" style="fill:#5b6198;fill-opacity:0.16;"/><path d="M606.381,57.706c0.074,1.146 0.147,2.292 0.221,3.438c-0.62,-1.735 -0.651,-1.686 -0.221,-3.438Z" style="fill:#7561a4;fill-opacity:0.16;"/><path d="M862.569,91.347c-0.077,0.503 -0.108,0.465 -1.24,3.552c0.194,-1.965 0.008,-2.018 1.24,-3.552Z" style="fill:#475aba;fill-opacity:0.15;"/><path d="M81.379,61.071c1.249,1.475 1.084,1.521 1.288,3.519c-1.156,-3.009 -1.185,-2.97 -1.288,-3.519Z" style="fill:#5b64a4;fill-opacity:0.2;"/><path d="M88.377,73.878c1.209,1.515 1.04,1.557 1.232,3.555c-1.116,-3.077 -1.142,-3.038 -1.232,-3.555Z" style="fill:#5c619e;fill-opacity:0.2;"/><path d="M811.519,126.297c1.238,1.142 1.188,1.094 2.354,2.282c-2.154,-0.51 -1.97,-0.794 -2.354,-2.282Z" style="fill:#5e6aa1;fill-opacity:0.15;"/><path d="M680.933,132.305c0.061,0.012 0.004,-0.004 3.566,1.27c-1.97,-0.189 -2.029,0.015 -3.566,-1.27Z" style="fill:#565fa0;fill-opacity:0.2;"/><path d="M427.229,30.797c1.187,1.213 1.133,1.151 2.127,2.479c-1.69,-0.625 -1.674,-0.712 -2.127,-2.479Z" style="fill:#5d61a1;fill-opacity:0.17;"/><path d="M110.519,133.035c1.802,-0.287 1.679,-0 3.371,0.616c-1.74,-0.164 -1.652,-0.136 -3.371,-0.616Z" style="fill:#6074b8;fill-opacity:0.15;"/><path d="M371.595,100.686c0.765,1.729 0.857,1.644 1.08,3.546c-0.36,-1.182 -0.72,-2.364 -1.08,-3.546Z" style="fill:#646cb0;fill-opacity:0.19;"/><path d="M749.635,50.502l1.039,-0.176c-2.148,1.083 -2.044,1.213 -3.32,1.429c1.072,-0.825 0.982,-0.805 2.281,-1.254Z" style="fill:#4147a6;fill-opacity:0.17;"/><path d="M766.102,125.299c-1.513,1.228 -1.554,1.058 -3.532,1.308c3.084,-1.187 3.046,-1.208 3.532,-1.308Z" style="fill:#555c9b;fill-opacity:0.2;"/><path d="M804.075,112.541c0.439,1.679 0.42,1.588 0.592,3.318c-0.652,-1.6 -0.852,-1.552 -0.592,-3.318Z" style="fill:#696bb5;fill-opacity:0.16;"/><path d="M104.965,27.571c0.228,1.745 0.008,1.644 -0.66,3.295c0.205,-1.702 0.168,-1.615 0.66,-3.295Z" style="fill:#666fb5;fill-opacity:0.17;"/><path d="M467.879,50.643c-0.52,1.765 -0.514,1.846 -2.23,2.4c1.081,-1.281 0.996,-1.193 2.23,-2.4Z" style="fill:#474ca4;fill-opacity:0.15;"/><path d="M311.956,132.607c-1.744,0.734 -1.665,0.804 -3.563,1.054c2.209,-0.823 2.112,-0.993 3.563,-1.054Z" style="fill:#6067ad;fill-opacity:0.2;"/><path d="M1038.903,41.524c0.3,1.718 0.019,1.626 -0.644,3.243c0.215,-1.081 0.429,-2.162 0.644,-3.243Z" style="fill:#3a5bcf;fill-opacity:0.13;"/><path d="M498.953,120.692c0.491,1.717 0.453,1.634 0.649,3.328c-0.609,-1.647 -0.823,-1.549 -0.649,-3.328Z" style="fill:#636aaf;fill-opacity:0.18;"/><path d="M210.95,109.039c0.17,1.784 -0.03,1.679 -0.649,3.343c0.207,-1.726 0.17,-1.638 0.649,-3.343Z" style="fill:#636ab1;fill-opacity:0.21;"/><path d="M747.578,92.965c1.05,-0.239 2.101,-0.478 3.151,-0.716c-1.552,0.713 -1.442,0.954 -3.151,0.716Z" style="fill:#5b69b1;fill-opacity:0.18;"/><path d="M288.339,79.796c0.356,1.179 0.712,2.358 1.068,3.537c-0.708,-1.716 -0.783,-1.633 -1.068,-3.537Z" style="fill:#4e57b1;fill-opacity:0.24;"/><path d="M703.902,20.547c0.424,1.659 0.392,1.56 0.578,3.331c-0.584,-1.674 -0.75,-1.568 -0.578,-3.331Z" style="fill:#5f71a3;fill-opacity:0.22;"/><path d="M604.869,98.548c0.467,1.694 0.433,1.604 0.7,3.352c-0.659,-1.645 -0.849,-1.549 -0.7,-3.352Z" style="fill:#7c4c9d;fill-opacity:0.2;"/><path d="M182.334,124.213c0.626,0.753 0.952,0.437 1.124,1.351c0.091,0.484 0.194,0.369 0.282,0.836c-0.958,-0.992 -0.948,-0.902 -1.406,-2.187Z" style="fill:#656fbb;fill-opacity:0.12;"/><path d="M389.455,91.364c-0.005,1.211 -0.01,2.423 -0.015,3.634c-0.523,-1.839 -0.521,-1.804 0.015,-3.634Z" style="fill:#6572bd;fill-opacity:0.26;"/><path d="M564.938,116.052c0.191,1.754 0.014,1.666 -0.551,3.308c0.174,-1.743 0.157,-1.661 0.551,-3.308Z" style="fill:#4b6ab3;fill-opacity:0.23;"/><path d="M1186.613,44.868c-0.203,1.714 -0.168,1.625 -0.616,3.317c-0.145,-1.79 0.032,-1.699 0.616,-3.317Z" style="fill:#695baf;fill-opacity:0.19;"/><path d="M664.422,101.861c-0.349,1.184 -0.698,2.368 -1.048,3.551c0.28,-1.869 0.303,-1.743 1.048,-3.551Z" style="fill:#494db6;fill-opacity:0.26;"/><path d="M430.387,60.087c0.581,0.748 0.862,0.483 1.039,1.339c0.113,0.544 0.218,0.415 0.327,0.94c-0.964,-1.039 -0.922,-0.995 -1.366,-2.279Z" style="fill:#5f63be;fill-opacity:0.15;"/><path d="M17.971,105.571c0.408,1.694 0.382,1.608 0.577,3.309c-0.59,-1.611 -0.755,-1.497 -0.577,-3.309Z" style="fill:#6f5d9f;fill-opacity:0.22;"/><path d="M728.094,89.248c0.192,1.84 0.011,1.724 -0.651,3.329c0.217,-1.11 0.434,-2.22 0.651,-3.329Z" style="fill:#2d2fca;fill-opacity:0.25;"/><path d="M564.589,40.173c1.862,0.475 1.878,0.413 2.011,0.513c0.41,0.307 -0.228,0.517 0.228,0.858c-1.308,-0.414 -1.245,-0.388 -2.239,-1.371Z" style="fill:#646cb3;fill-opacity:0.15;"/><path d="M336.244,125.148c-0.99,0.868 -0.877,0.89 -2.239,1.285c0.624,-0.483 0.377,-0.866 2.239,-1.285Z" style="fill:#8c4786;fill-opacity:0.17;"/><path d="M566.764,113.429l-0.293,0.946c-0.356,0.454 -0.712,0.907 -1.068,1.361c0.487,-1.316 0.46,-1.25 1.36,-2.307Z" style="fill:#5d78b0;fill-opacity:0.18;"/><path d="M589.095,42.331c1.35,0.425 1.289,0.413 2.317,1.279c-2.542,-0.512 -2.147,-1.152 -2.317,-1.279Z" style="fill:#6269ab;fill-opacity:0.14;"/><path d="M568.027,112.348c-0.479,1.751 -0.41,1.776 -0.517,1.891c-0.415,0.446 -0.625,-0.309 -1.04,0.136l0.293,-0.946c0.421,-0.36 0.843,-0.72 1.264,-1.08Z" style="fill:#5b71b4;fill-opacity:0.15;"/><path d="M191.877,104.217c-0.934,0.964 -0.844,0.96 -2.147,1.443c0.428,-0.338 -0.246,-0.579 0.183,-0.917c0.128,-0.101 0.146,-0.039 1.964,-0.526Z" style="fill:#656cb1;fill-opacity:0.19;"/><path d="M756.588,86.675c-0.504,2.723 -1.157,2.216 -1.242,2.335c0.427,-1.365 0.4,-1.295 1.242,-2.335Z" style="fill:#5a68b4;fill-opacity:0.15;"/><path d="M310.621,25.131c2.647,0.611 2.085,1.248 2.233,1.369c-1.302,-0.489 -1.212,-0.476 -2.233,-1.369Z" style="fill:#5264b7;fill-opacity:0.17;"/><path d="M751.982,49.323c-0.436,0.334 -0.872,0.669 -1.308,1.003l-1.039,0.176c1.1,-0.794 0.989,-0.788 2.347,-1.179Z" style="fill:#5a61a6;fill-opacity:0.16;"/><path d="M203.511,71.67c0.779,1.284 0.915,1.166 1.144,2.341c-0.351,-0.416 -0.701,-0.833 -1.052,-1.249l-0.092,-1.092Z" style="fill:#5e69ac;fill-opacity:0.2;"/><path d="M672.611,85.337c-0.679,0.485 -1.358,0.971 -2.037,1.456c0.679,-0.485 1.358,-0.971 2.037,-1.456Z" style="fill:#656cb4;fill-opacity:0.13;"/><path d="M66.069,47.177c0.547,-0.477 -0.523,-0.771 0.07,-1.288c0.077,-0.067 0.534,-0.465 1.266,0.124c0.968,0.779 -0.407,0.354 -1.336,1.165Z" style="fill:#788dd4;"/><path d="M580.85,111.21c-0.976,0.972 -0.886,0.959 -2.178,1.432c0.701,-0.539 0.468,-0.777 1.344,-1.035c0.478,-0.141 0.339,-0.251 0.834,-0.397Z" style="fill:#636aac;fill-opacity:0.22;"/><path d="M604.92,110.215c0.246,1.744 0.129,1.687 -0.346,3.412c0.029,-0.858 0.044,-0.74 0.346,-3.412Z" style="fill:#6f6fb2;fill-opacity:0.29;"/><path d="M572.664,78.479c-0.251,0.166 0.041,0.684 -2.373,1.185c1.074,-0.812 1.011,-0.802 2.373,-1.185Z" style="fill:#565da5;fill-opacity:0.15;"/><path d="M435.358,41.307c0.85,1.084 0.84,0.992 1.222,2.332c-0.407,-0.777 -0.815,-1.555 -1.222,-2.332Z" style="fill:#5f66aa;fill-opacity:0.17;"/><path d="M488.021,117.04c0.23,1.719 0.283,1.659 0.066,3.367c-0.2,-1.691 -0.238,-1.583 -0.066,-3.367Z" style="fill:#5365c5;fill-opacity:0.27;"/><path d="M803.116,28.301c-0.717,0.468 -1.433,0.937 -2.15,1.405c0.717,-0.468 1.433,-0.937 2.15,-1.405Z" style="fill:#5c65b1;fill-opacity:0.18;"/><path d="M680.863,78.392c-0.743,0.436 -1.486,0.872 -2.229,1.307c0.743,-0.436 1.486,-0.872 2.229,-1.307Z" style="fill:#5052ab;fill-opacity:0.17;"/></g></svg>