<?xml version="1.0" encoding="UTF-8" standalone="no"?><!DOCTYPE svg PUBLIC "-//W3C//DTD SVG 1.1//EN" "http://www.w3.org/Graphics/SVG/1.1/DTD/svg11.dtd"><svg width="100%" height="100%" viewBox="0 0 2095 247" version="1.1" xmlns="http://www.w3.org/2000/svg" xmlns:xlink="http://www.w3.org/1999/xlink" xml:space="preserve" xmlns:serif="http://www.serif.com/" style="fill-rule:evenodd;clip-rule:evenodd;stroke-linejoin:round;stroke-miterlimit:2;"><g id="Background"><path d="M1881.482,29.146c1.223,0.947 0.803,1.436 2.304,1.785c0.928,0.216 0.702,0.379 1.662,0.602c2.512,2.497 30.243,22.797 33.992,63.831c-0.178,2.011 -0.357,4.023 -0.535,6.034c-0.717,8.233 -0.732,8.06 -2.979,16.216c-1.319,4.789 -13.088,16.467 -14.086,16.79c-5.279,1.708 -3.204,4.858 -16.234,12.496c-6.931,4.063 -6.959,9.012 -13.285,4.105c-0.187,-0.894 0.767,-1.784 0.58,-2.678c-0.896,-4.285 -2.755,-2.341 -6.026,0.675c-5.827,-1.24 -4.601,-2.936 -4.605,-8.868c-0.007,-8.904 -1.754,-12.988 -1.853,-14.273c-1.596,-20.798 -7.641,-68.82 -5.823,-75.741c3.52,-13.397 -4.69,-18.046 -2.076,-22.525c1.902,-3.257 18.922,-2.592 20.579,-2.527c2.437,0.095 7.709,3.917 8.383,4.076Zm-16.359,6.82c0.725,-0.21 2.623,-4.498 7.482,2.205c1.555,4.502 2.263,3.86 16.536,18.287c2.254,2.939 1.654,3.128 3.69,6.279c0.562,0.744 1.123,1.487 1.685,2.231c0.514,3.617 1.397,8.115 6.191,10.197c1.904,13.631 4.426,12.738 4.469,13.906c0.455,12.277 2.858,12.76 -2.488,23.829c-0.57,0.773 -2.648,2.179 -4.052,8.139l-1.359,0.449c-3.769,3.739 -3.78,3.654 -4.818,7.695c-5.679,2.943 -4.384,4.505 -7.484,6.312c-12.484,7.277 -9.258,-10.941 -9.449,-11.798c-5.528,-24.752 -4.135,-44.154 -4.151,-44.948c0.653,-10.255 1.367,-10.627 -1.912,-14.432l-0.014,-1.971c-0.352,-4.433 0.584,-4.659 -2.072,-8.238c-0.002,-3.381 -0.004,-6.762 -0.006,-10.144c-0.611,-4.222 -0.361,-4.128 -2.248,-7.999Zm7.482,2.205c9.196,4.832 15.876,12.643 16.536,18.287c-14.273,-14.426 -14.981,-13.785 -16.536,-18.287Zm-3.142,26.146c3.279,3.805 2.565,4.177 1.912,14.432c-2.411,-7.058 -2.931,-7.008 -1.912,-14.432Zm25.363,-1.534c3.249,6.094 3.428,5.849 5.881,12.381c-4.794,-2.082 -5.677,-6.581 -6.191,-10.197l0.31,-2.184Z" style="fill:#83b1d1;fill-opacity:0.91;"/><path d="M129.915,0l4.092,0c5.134,7.51 0.593,17.514 4.066,29.674c0.36,1.262 1.244,11.513 1.331,12.516c-0.33,5.421 -0.47,5.399 -0.356,5.855c0.332,1.332 1.231,0.627 1.584,2.044c0.112,16.78 1.225,16.479 2.897,33.039c-0.425,5.411 -0.576,5.39 -0.459,5.844c0.379,1.465 1.329,0.688 1.685,2.066l-0.027,12.302c-1.684,4.121 -1.597,4.179 0.096,8.152c-0.042,25.276 2.171,39.457 -6.739,39.412c-6.319,-0.032 -6.754,-22.849 -6.793,-24.914c-0.376,-1.213 0.303,-2.596 -0.073,-3.809c-0.28,-0.903 -3.243,-3.254 -3.526,3.01c-7.806,7.136 -4.614,10.248 -13.741,15.552c-6.659,3.87 -3.794,8.527 -14.712,10.253c-2.887,-1.437 -5.773,-2.874 -8.66,-4.311c-8.27,-10.463 -15.58,-12.82 -16.271,-22.865c-1.709,-24.821 -3.918,-34.978 -3.615,-36.849c2.309,-14.28 -0.55,-14.134 -0.694,-28.652c-0.233,-23.454 -0.144,-23.44 1.241,-30.51c0.665,-3.395 -1.612,-28.725 9.667,-24.922c2.517,0.849 2.487,3.592 2.417,10.31c0.682,2.073 1.363,4.145 2.045,6.218l-0.058,2.037c-1.312,9.939 0.002,14.887 0.333,16.135c0.238,0.895 1.418,1.336 1.656,2.231c-0.503,5.193 -0.76,5.101 0.032,10.284l0.132,1.941c0.285,4.425 0.063,4.389 1.89,8.297c0.178,26.844 0.57,26.669 3.977,53.175c1.094,8.509 -3.818,11.576 2.104,18.199c0.702,0.785 7.786,8.706 13.092,1.426c1.438,-1.973 0.354,-2.474 2.041,-4.13c1.242,-1.219 1.381,-1.033 15.876,-14.877c4.49,-4.288 2.123,-5.151 0.865,-12.818c1.184,-3.022 1.211,-3.088 -0.136,-6.182c0.088,-14.038 1.949,-14.236 -1.367,-22.496c-0.154,-0.384 -2.511,-63.672 1.178,-68.103c1.795,-2.157 1.312,-2.351 2.931,-4.532Z" style="fill:#83b1d1;fill-opacity:0.92;"/><path d="M720.59,27.623c0.458,-5.723 0.36,-5.704 0.495,-6.181c1.931,-6.843 4.586,-4.33 10.698,-0.653c12.468,7.501 13.078,7.36 38.429,45.748c5.672,8.588 8.636,-5.098 24.333,-24.814c6.383,-8.017 5.284,-8.494 8.508,-18.175c0.235,-0.706 4.808,-4.252 7.428,-1.357c1.464,1.618 5.36,49.674 5.486,58.601c0.822,58.555 1.942,58.434 1.753,63.514c-0.046,1.239 -3.277,7.716 -8.759,6.752c-3.695,-0.65 -2.354,-14.448 -2.268,-21.11c-0.045,-8.37 -1.026,-8.032 -2.164,-10.251c0.12,-13.455 0.199,-13.269 0.26,-26.59c0.297,-11.301 -1.504,-10.767 -2.26,-12.291c0.054,-16.375 0.326,-28.215 0.382,-30.668c0.348,-17.804 -5.603,1.679 -5.746,2.148c-0.279,0.913 -1.654,1.2 -1.934,2.112c0,0 -0.084,3.838 -0.092,4.172c-5.168,0.691 -3.549,2.4 -3.59,2.439c-0.002,0.001 -2.149,-0.546 -2.395,1.793c-0.125,1.188 0.19,0.986 0.061,2.215c-1.936,1.843 -3.383,3.626 -3.655,3.96c-0.676,1.321 -2.178,0.565 -2.913,5.696c-0.077,0.541 -0.518,3.617 -1.513,6.657c-0.692,0.698 -1.384,1.397 -2.076,2.095c-0.664,0.686 -1.328,1.372 -1.992,2.059c-0.693,0.697 -1.387,1.395 -2.08,2.092c-2.884,2.092 -2.985,2.835 -10.836,1.391c-0.063,-0.268 -0.791,-3.348 -0.791,-3.348c-0.473,-0.477 -1.537,0.323 -2.01,-0.154c-0.599,-0.774 -1.198,-1.549 -1.797,-2.323c-0.594,-0.716 -1.188,-1.433 -1.781,-2.149c-0.825,-5.61 -1.529,-5.399 -6.433,-8.065c-0.522,-0.795 -3.376,-5.145 -5.904,-10.312c-2.641,-5.397 -2.465,-5.379 -2.737,-5.815c-5.894,-9.455 -4.825,-9.874 -5.33,-10.685c-2.568,-7.484 -1.975,-8.26 -3.914,-8.322c-3.386,-0.109 -1.621,1.741 -1.561,6.276c9.078,43.348 4.423,89.071 4.209,100.17c-0.175,9.068 -0.129,12.528 -8.949,10.715c-5.472,-1.125 -0.116,-46.107 -3.203,-53.935c3.401,-17.016 -0.232,-22.655 -1.286,-24.291c0.354,-34.557 0.102,-34.456 0.036,-38.79c0.258,-5.451 -0.238,-5.32 -2.111,-10.327Z" style="fill:#82b1d1;fill-opacity:0.93;"/><path d="M852.351,91.626c3.049,0.517 2.881,0.134 5.873,-1.06c3.426,0.037 6.851,0.075 10.277,0.112c1.38,0.748 2.76,1.495 4.139,2.243c6.33,3.431 10.068,8.199 12.457,12.32c0.551,1.419 1.101,2.838 1.652,4.256c0.865,2.032 1.73,4.064 2.595,6.095c-3.529,7.744 -1.253,8.077 -1.931,16.629l-0.514,1.785c-3.966,0.899 -2.857,2.136 -3.43,2.806c-3.266,2.651 -12.38,12.503 -19.338,14.983c-3.224,-0.673 -3.073,-0.496 -6.253,-0.639c-0.268,-0.273 -0.854,0.513 -1.123,0.24c-0,-0 -2.384,-2.827 -2.591,-3.073c-2.062,-1.818 -2.873,-2.421 -3.984,0.037c-0.275,0.61 0.442,1.39 0.166,2c6.302,12.424 -1.22,16.189 4.074,38.841c0.401,1.714 0.327,32.372 0.36,32.747c0.462,5.239 1.988,4.925 1.472,10.282c-2.914,0.752 -2.965,0.627 -3.147,0.813c-0.853,0.866 0.589,1.248 -0.268,2.119c-2.472,1.522 -2.196,2.175 -4.925,1.682c-7.792,-1.408 -3.651,-53.455 -8.135,-68.036c-1.845,-5.999 -0.122,-6.154 -2.04,-12.276c-0.833,-2.659 -0.519,-18.728 -0.527,-28.648c-0.018,-22.65 -5.714,-23.32 -0.073,-33.237c7.535,-0.154 7.521,0.385 14.791,-2.168l0.422,-0.853Zm23.557,24.057c-0.116,11.061 1.968,11.879 -4.843,20.72c-5.899,7.657 -8.672,1.694 -12.725,1.289c-5.182,-0.518 -7.605,1.531 -7.827,-3.727c-0.097,-2.294 -1.002,-23.714 -2.719,-28.576c-2.439,-6.907 19.573,-8.567 24.214,0.339c2,3.837 3.646,9.139 3.9,9.956Z" style="fill:#80a5cb;fill-opacity:0.88;"/><path d="M1267.336,27.573c1.659,-2.029 4.754,-7.793 8.955,-2.683c3.375,4.105 5.467,1.731 8.142,6.418c34.097,59.714 25.673,66.344 33.413,89.31c16.116,47.821 -3.793,-14.028 -4.127,-64.348c-0.061,-9.136 -5.459,-32.931 4.984,-28.878c3.792,1.472 1.218,9.324 3.351,14.79c-0.39,3.236 0.102,3.006 1.215,5.871c0.032,3.366 0.063,6.733 0.095,10.099c-1.041,9.607 -1.978,9.78 1.835,18.545l0.028,4.015c-1.031,10.494 1.792,9.743 2.14,10.303l0.06,3.975c-0.23,1.305 -0.569,3.23 1.646,16.477c0.503,3.009 2.243,3.87 2.385,4.115l-0.014,6.158c-1.808,4.092 -1.776,4.172 0.004,8.167l0.008,4.107c-0.188,0.341 -2.347,4.261 -2.347,4.261c-1.415,1.591 -1.738,0.264 -1.726,0.405c0.151,1.667 1.81,0.53 1.964,2.221c-22.687,12.702 -17.781,-34.506 -32.525,-52.486c-1.292,-1.575 -1.378,-1.68 -9.529,-23.615c-0.217,-2.478 -0.075,-2.345 -1.166,-4.587c-3.531,-17.372 -6.685,-16.506 -7.77,-15.627c-2.571,2.085 5.564,22.912 3.26,30.051c-2.925,9.065 0.682,9.06 0.72,18.452c0.047,11.323 -0.77,11.211 -0.122,22.46c1.387,24.1 0.046,26.372 -1.107,28.324c-2.774,4.697 -9.861,3.855 -10.2,0.56c-0.342,-3.331 -0.345,-3.204 -0.707,-6.564c0.673,-7.2 1.126,-6.98 0.585,-14.216c0.399,-30.838 0.748,-50.372 -0.657,-57.38c2.154,-8.76 0.441,-8.636 -1.269,-12.046c0.05,-10.537 0.213,-10.344 -0.78,-20.699c0.457,-3.089 0.07,-2.989 -0.747,-5.953Z" style="fill:#83b2d1;fill-opacity:0.89;"/><path d="M1146.138,29.949c-0.653,3.072 0.022,2.87 1.156,5.806c0.29,1.457 0.58,2.913 0.87,4.37c-0.554,3.141 -0.094,2.954 1.119,5.842l0.112,1.972c-1.214,6.28 -0.605,6.252 2.091,12.191c0.243,4.712 -0.74,5.097 2.418,8.552l-0.39,1.735c-1.475,6.091 -0.504,6.019 0.005,12.35c0.269,3.343 0.923,2.974 1.928,6.211l0.026,2.019c-1.241,2.916 -1.297,2.879 -0.116,6.018c0.656,1.409 1.311,2.817 1.967,4.226c0.66,33.642 -0.058,34.776 -1.656,37.3c-0.893,1.357 -1.785,2.713 -2.678,4.07c-1.566,0.041 -5.687,1.25 -6.697,-2.229c-2.567,-8.841 -10.644,6.005 -24.127,1.833c-7.652,-2.368 -8.115,-0.909 -15.04,-5.154c-0.492,-0.506 0.448,-1.61 -0.043,-2.116c-0.195,-0.201 -0.25,-0.067 -3.382,-0.9c-12.903,-23.257 -1.052,-31.303 1.393,-35.253c4.389,-2.037 4.378,-2.058 6.502,-6.354c9.757,-5.977 22.884,-3.59 24.857,-3.231c1.261,-0.13 2.521,-0.259 3.782,-0.389c-0.977,-31.814 -10.69,-62.264 -1.775,-65.477c1.988,-0.716 3.212,-1.486 7.677,6.607Zm-15.916,65.897c11.391,6.226 21.641,32.055 6.478,36.628c-23.416,7.061 -39.368,-23.676 -18.297,-32.991c1.234,-0.545 1.449,-2.055 3.497,-2.898c3.945,-1.624 3.926,-0.757 8.322,-0.739Z" style="fill:#83b2d2;fill-opacity:0.89;"/><path d="M455.942,35.148c2.667,5.383 -1.033,6.145 12.421,74.054c0.025,0.127 -0.008,0.009 3.081,8.485c1.396,3.831 -0.798,7.201 2.065,16.352c0.636,2.033 2.549,19.059 -3.889,20.701c-0.497,0.127 -0.475,0.022 -6.41,0.302c-0.534,-2.703 -0.479,-2.621 -2.474,-4.464l-0.76,-0.458c0.238,-0.962 1.79,-7.236 -0.393,-12.381c-1.791,-4.22 -1.783,0.744 -4.436,4.37c-6.006,7.545 -7.46,5.622 -14.788,11.695c-0.784,0.649 -41.935,8.053 -19.924,-42.3c2.934,-6.712 11.4,-12.905 12.606,-13.787c5.163,-3.777 5.518,-2.779 11.95,-3.179c0.437,0.331 12.673,9.608 5.919,-3.456c0.141,-6.43 -0.515,-6.165 -2.324,-12.289l0.064,-2.028c0.917,-15.396 0.864,-15.181 0.697,-30.698c2.169,-11.924 5.471,-9.985 6.594,-10.918Zm-3.324,74.655c0.374,2.859 0.359,2.69 1.158,5.565c0.297,1.455 0.594,2.909 0.891,4.364c0.235,2.038 0.47,4.075 0.705,6.113c-4.233,6.325 -4.317,6.224 -4.946,7.739c-3.993,5.437 -13.34,13.004 -19.614,8.409c-2.507,-2.626 -2.041,-2.977 -5.269,-4.489c0.002,-0.447 -0.17,-0.273 -0.448,-5.571l0.022,-6.066c0.346,-8.03 11.379,-32.366 27.501,-16.063Zm2.754,16.042l1.419,1.868c-2.064,4.098 -2.138,3.978 -6.365,5.87c0.629,-1.515 0.713,-1.414 4.946,-7.739Zm-29.829,11.658c3.227,1.512 2.762,1.863 5.269,4.489c-4.641,-0.81 -5.233,-2.114 -5.432,-2.551c-0.268,-0.59 0.432,-1.348 0.163,-1.938Z" style="fill:#83b1d1;fill-opacity:0.89;"/><path d="M527.311,139.037c-2.026,0.872 -2.336,-0.144 -4.109,1.769c-1.011,1.091 -0.785,1.107 -1.852,2.259c-3.465,3.338 -3.208,3.676 -4.674,3.754c-3.012,0.161 -30.788,1.648 -31.348,-20.95c-0.18,-7.243 -0.931,-6.98 -1.959,-14.303c-0.197,-1.405 -0.194,-68.24 -0.001,-69.685c1.909,-14.253 7.627,-13.097 8.851,-12.85c8.141,1.645 0.192,88.863 11.53,103.299c9.95,12.669 17.558,-5.201 22.898,-10.751c7.845,-8.154 2.325,-46.888 1.75,-50.923c-0.444,-3.115 -5.035,-35.339 4.494,-39.075c8.043,-3.153 1.935,4.062 4.058,12.439c9.027,35.629 8.588,103.455 4.945,107.212c-9.372,9.667 -4.33,-12.9 -14.583,-12.194Z" style="fill:#7eafc9;fill-opacity:0.92;"/><path d="M0,134.006l0,-14.321c3.365,-1.657 3.515,-1.326 4.216,-2.624c6.271,-11.605 7.712,-10.27 19.315,-16.426c8.282,1.098 9.388,2.805 12.223,1.962c8.051,-2.394 0.649,-17.85 0.017,-19.726c-7.768,-23.058 -18.337,3.223 -26.702,0.266c-11.717,-4.141 15.098,-18.303 16.494,-18.716c20.521,-6.062 24.124,21.744 25.863,30.942c-0.295,5.425 -0.431,5.404 -0.318,5.859c0.353,1.424 1.25,0.726 1.581,2.064c2.998,12.05 2.034,12.07 2.253,24.494c0.416,2.069 0.832,4.138 1.248,6.207c-0.793,4.673 -3.011,4.727 -0.019,12.328c4.49,11.406 -12.17,10.758 -12.81,6.308c-1.879,-13.06 -9.273,1.757 -21.905,-2.185c-12.509,-3.904 -15.867,-6.492 -17.044,-7.399c-1.262,-0.973 -0.866,-1.143 -1.835,-2.424c-0.096,-3.724 -0.208,-3.677 -2.577,-6.609Zm12.204,-10.205c0.857,-2.199 8.527,-21.881 27.165,-11.521c1.379,0.766 2.908,1.616 1.902,19.629c-0.397,7.107 -22.141,15.694 -29.066,-8.107Z" style="fill:#83b1d0;fill-opacity:0.84;"/><path d="M1664.415,93.03c0.51,2.178 0.71,1.977 2.89,5.775c1.38,2.208 5.056,8.091 -8.507,31.418c-8.536,14.68 -16.153,10.086 -16.444,20.136c-0.564,19.466 6.814,71.044 -8.02,52.634c-4.278,-5.31 0.892,-6.962 -4.836,-19.862c-0.793,-1.787 -0.402,-1.814 -0.638,-24.43c0.24,-12.254 -1.799,-11.681 -1.981,-12.405c0.887,-45.161 -2.074,-44.994 -2.003,-49.096c0.221,-12.809 5.491,-9.494 16.951,-12.311c8.796,-2.162 21.048,6.993 22.587,8.143Zm-20.602,-1.416c7.439,3.164 18.052,12.477 10.926,24.288c-0.996,1.65 -0.621,5.528 -4.125,10.285c-7.899,10.726 -9.788,8.439 -10.279,7.545c-2.988,-5.442 4.433,-10.756 -2.136,-38.612c-0.748,-3.174 5.085,-3.478 5.613,-3.506Z" style="fill:#83b1d0;fill-opacity:0.87;"/><path d="M1799.156,90.421c14.643,-4.682 21.535,-14.472 42.984,0.803c1.015,0.723 0.637,0.845 1.142,3.465c-0.091,7.429 2.349,6.4 3.697,8.571c0.035,2.715 0.07,5.43 0.105,8.145c0.239,1.996 0.477,3.993 0.716,5.989c-10.145,25.587 -21.986,24.087 -34.073,29c-0.633,0.257 -2.455,0.998 -8.322,-1.902c-0.802,-1.261 -1.605,-2.522 -2.407,-3.784l-8.406,-8.432c-0.701,-1.393 -1.403,-2.786 -2.104,-4.179c0.284,-4.522 0.181,-4.427 -1.797,-8.386c-0.004,-4.798 -0.008,-9.596 -0.012,-14.394c1.465,-2.354 7.669,-8.901 8.477,-14.897Zm1.064,13.023c8.526,-20.244 38.488,-16.848 33.266,18.188c-0.882,5.917 -2.306,5.015 -6.947,8.954c-6.499,5.515 -7.663,8.286 -14.106,2.511c-11.944,-10.706 -12.176,-27.088 -12.212,-29.653Z" style="fill:#83b1d1;fill-opacity:0.87;"/><path d="M1759.018,32.787c2.193,1.039 1.796,1.779 4.312,2.044c0.94,0.099 0.651,0.591 1.541,0.684c0.364,4.902 1.039,4.573 4.767,7.968c2.017,3.149 2.412,3.138 1.188,6.696c-1.054,3.062 -3.858,2.225 -4.22,2.117c-15.463,-4.615 -17.158,-17.792 -30.991,-8.858c-7.993,5.163 -5.338,15.403 -5.291,18.872c0.105,7.916 16.532,11.81 34.278,28.717c0.732,3.148 0.586,3.21 0.791,3.4c0.479,0.445 1.481,-0.42 1.96,0.025c1.249,2.19 2.498,4.381 3.748,6.571c0.736,0.638 1.471,1.276 2.207,1.915c1.765,4.426 1.675,4.255 4.347,8.265l1.708,2.317c-0.398,10.93 0.638,11.25 -1.73,14.689c-1.048,2.298 -1.784,1.859 -1.994,4.374c-0.076,0.917 -0.475,0.698 -0.554,1.637c-3.255,2.188 -3.459,2.16 -4.181,6.098l-1.527,0.627c-0.445,0.213 -2.29,-0.955 -4.274,2.043c-0.495,0.749 0.069,0.837 -0.395,1.538c-4.075,1.878 -4.109,1.709 -6.907,5.197c-3.785,4.718 -23.521,3.329 -23.926,3.331c-2.772,-1.533 -1.929,-2.463 -4.619,-3.95c-0.267,-0.147 -0.279,-0.04 -3.768,-0.543c-1.555,-1.587 -17.895,-18.262 -10.818,-25.578c11.699,-12.093 17.755,35.952 44.889,12.095c20.446,-17.978 -13.79,-43.356 -17.821,-45.51c-0.498,-0.407 0.339,-1.516 -0.159,-1.923c-0.238,-0.195 -0.283,-0.031 -3.818,-0.412c-0.706,-1.321 -1.411,-2.643 -2.117,-3.964c-2.96,-2.406 -2.867,-2.245 -6.394,-3.679l-1.946,-2.202c-1.49,-0.629 -2.981,-1.258 -4.471,-1.887c-1.318,-2.245 -2.636,-4.49 -3.954,-6.735c-6.073,-10.069 -1.048,-17.758 -0.215,-19.033l2.106,-2.155c0.675,-1.508 1.313,-0.922 1.925,-2.287c0.119,-0.266 0.056,-0.264 0.756,-3.564c5.806,-5.641 5.544,-5.812 6.145,-6.164c18.263,-10.686 27.492,-4.145 29.421,-2.778Z" style="fill:#83b1d1;fill-opacity:0.88;"/><path d="M228.118,0l26.597,0c1.785,3.416 1.548,3.527 2.666,4.323c6.585,4.689 -1.345,10.385 -6.156,6.208c-7.9,-6.86 -8.973,-6.718 -18.606,-2.421c-1.857,0.828 -3.198,12.357 -1.222,25.857c-0.248,3.212 0.105,3.028 1.139,5.902c0.185,17.735 -3.354,29.581 11.866,27.937c9.961,-1.077 14.937,1.693 8.744,9.563c-6.378,0.396 -6.488,-0.838 -12.399,1.958c-0.557,0.637 -1.114,1.275 -1.67,1.912c0.412,1.227 0.823,2.454 1.235,3.681c0.09,0.829 0.225,0.687 2.203,10.187c-1.266,5.276 -1.871,5.332 0.486,10.226l0.128,3.977c-0.063,0.775 -0.038,0.721 -0.061,8.37c0.346,3.38 0.587,3.116 1.893,6.033c0.016,8.376 -0.874,8.263 0.914,16.66c-0.487,2.845 -0.581,2.684 0.074,5.681c-7.167,17.583 -12.14,5.486 -12.224,4.449c-0.9,-11.12 -8.11,-42.882 -8.227,-47.143c-0.334,-12.097 0.632,-17.543 -9.529,-17.921c-3.123,0.006 -3.011,0.08 -6.048,0.952c-15.174,-5.179 8.343,-9.073 9.14,-12.208c3.054,-12.011 -4.92,-12.447 -0.004,-28.288c0.463,-1.494 -2.048,-33.269 2.755,-38.879c0.299,-0.349 3.613,-4.219 3.775,-4.323c1.078,-0.69 1.295,0.884 2.216,-0.095c1.012,-1.075 -0.71,-1.505 0.317,-2.596Z" style="fill:#83b1d0;fill-opacity:0.89;"/><path d="M301.022,127.772c-3.949,-24.368 -3.944,-28.12 -3.94,-30.587c0.085,-60.97 -0.839,-61.124 4.632,-83.913c1.365,-5.685 7.973,-6.614 8.796,-0.108c1.976,15.619 -2.115,15.187 -1.865,16.49c6.061,31.593 -1.796,34.218 3.292,51.18c1.031,3.437 0.525,14.857 0.013,16.332c-2.345,6.745 2.674,12.247 2.562,22.533c-0.089,8.191 -0.353,8.021 0.107,16.258c0.294,5.265 13.342,3.328 34.21,3.559c15.604,0.173 12.294,9.887 10.226,10.857c-4.892,2.296 -4.212,3.216 -4.642,3.378c-6.944,2.621 -18.242,-3.899 -26.03,-1.28c-3.143,-0.825 -3.035,-0.811 -6.187,0.038c-8.267,-3.062 -7.975,4.244 -16.481,2.461c-1.402,-0.294 -3.595,-0.754 -5.327,-17.101c0.501,-9.314 0.609,-9.289 0.633,-10.098Z" style="fill:#83b1d1;fill-opacity:0.88;"/><path d="M1169.226,27.609c14.088,-1.926 16.258,1.502 24.531,-2.107c13.109,-5.72 33.108,11.153 18.513,11.095c-21.763,-0.087 -39.433,-2.55 -38.086,5.32c0.354,2.071 1.162,4.042 1.605,6.095c0.868,4.025 -2.348,23.796 3.736,23.927c1.033,0.022 21.105,-2.186 20.987,4.833c-0.101,5.982 -11.142,4.645 -16.816,4.647c-5.821,0.283 -5.175,1.699 -5.893,2.033c-4.879,4.98 -0.481,5.948 0.375,27.998c0.045,1.153 1.11,0.998 1.927,14.298c0.439,7.142 21.834,1.04 33.906,4.812c6.551,2.047 11.196,2.491 6.243,7.415c-3.387,3.368 -49.364,5.04 -51.072,0.15c-0.762,-2.18 -0.505,-2.111 -1.444,-4.349c1.225,-4.177 0.884,-4.212 -1.129,-7.939c0.015,-4.061 0.03,-8.122 0.045,-12.183c-0.131,-8.448 -1.878,-7.906 -2.054,-8.275c0.012,-2.697 0.025,-5.394 0.037,-8.09c0.993,-8.509 0.426,-8.387 -2.044,-16.473l-0.058,-10.234c0.99,-3.159 1.799,-2.784 1.928,-6.155c0.678,-17.685 0.991,-17.503 0.104,-22.614l0.046,-3.991c1.543,-3.206 1.663,-3.07 1.603,-6.728c0.526,-0.521 1.695,0.473 2.221,-0.048c0.2,-0.198 0.058,-0.254 0.787,-3.435Z" style="fill:#83b2d2;fill-opacity:0.89;"/><path d="M2094.998,93.088l0,14.321c-6.856,10.485 1.369,13.036 -3.871,19.812c-6.286,8.127 -4.804,9.149 -12.077,16.397c-12.773,12.727 -17.633,-2.072 -12.153,-4.038c2.085,-0.748 1.479,-1.274 3.139,-2.923c3.976,-3.949 1.83,-5.06 4.241,-8.213c4.509,-5.895 0.926,-7.03 3.332,-12.852c4.287,-10.369 -0.232,-23.007 -1.435,-30.912c0.516,-3.142 -0.092,-2.984 -1.211,-5.873c-0.263,-1.457 -0.526,-2.913 -0.789,-4.37c0.325,-3.108 -0.152,-2.874 -1.334,-5.678l-0.738,-0.476c0.391,-3.189 -0.09,-2.967 -1.165,-5.793c-3.734,-10.351 -4.801,-9.719 -4.978,-10.642c-0.971,-5.052 -2.401,-4.392 -3.548,-9.32c-1.324,-2.715 -1.242,-2.686 -3.781,-4.352c-0.552,-0.744 -1.105,-1.489 -1.657,-2.233c-0.806,-3.504 -1.125,-3.471 -4.086,-4.072c-0.367,-0.454 -0.054,-1.246 -0.421,-1.701c-8.038,-9.941 -15.818,-15.583 -9.347,-20.391c2.657,0.479 2.497,0.381 5.322,0.109c0.503,0.458 3.665,3.338 6.932,4.925c1.208,0.937 0.762,1.443 2.337,1.812c0.909,0.213 0.678,0.396 1.62,0.616c2.054,2.023 3.881,3.545 4.232,3.837c0.757,0.606 1.514,1.213 2.271,1.819c1.288,1.089 0.763,1.612 2.271,1.921c0.885,0.182 0.656,0.405 1.512,0.58c23.718,31.531 23.386,55.949 23.315,61.187c-0.049,3.628 0.332,3.461 2.068,6.5Z" style="fill:#82b1d1;fill-opacity:0.91;"/><path d="M1068.89,25.531c-3.229,2.358 -3.368,2.431 -3.747,6.374c-3.218,2.236 -2.511,2.654 -3.933,6.138l-0.481,1.816c-2.239,1.849 -1.946,1.966 -3.23,4.5c-1.89,3.556 -2.18,3.53 -1.378,7.585c-0.288,0.779 -0.576,1.558 -0.864,2.337c-0.229,0.683 -2.16,0.285 -2.024,12.343c-2.356,8.815 -1.371,15.153 -1.169,16.457c-0.566,3.127 -0.135,2.946 1.126,5.892l-0.089,8.237c-2.134,4.03 -2.041,4.211 0.093,8.136l-0.008,2.098c-2.134,3.884 -2.194,4.082 -0.072,8.076c0.305,0.789 0.609,1.579 0.914,2.368c-0.558,3.017 0.052,2.806 1.392,5.513c1.474,1.77 1.545,1.66 1.955,4.03c1.87,4.105 1.894,4.088 5.98,5.977c0.01,0.01 -1.369,1.292 3.672,2.54c5.845,5.411 14.482,6.8 14.779,10.291c0.686,8.06 -13.063,3.104 -16.991,2.58c-4.453,-0.594 -3.452,-2.57 -8.104,-4.594c-8.77,-3.815 -18.291,-23.577 -18.841,-30.619c-2.232,-28.57 -4.358,-28.323 -4.044,-30.787c0.956,-7.516 2.244,-7.032 3.445,-14.492c0.529,-3.291 4.467,-27.772 15.198,-38.799c6.712,-6.898 17.227,-19.876 22.845,-19.015c10.753,1.649 -3.591,4.538 -6.425,15.017Z" style="fill:#83b1d0;fill-opacity:0.91;"/><path d="M618.306,27.923c-1.001,4.048 -0.696,4.06 0.996,7.843c-0.922,6.246 -0.914,6.127 -0.123,12.329l-0.019,2.013c0.336,8.438 -3.276,11.322 3.677,12.773c22.096,-4.481 17.303,6.465 16.278,7.467c-1.623,1.586 -14.654,2.759 -15.945,2.875c-7.129,-0.046 -2.413,4.209 -1.792,5.542c-0.051,11.348 -0.113,11.131 -0.027,22.4c0.266,4.457 -0.033,4.421 1.983,8.25c0.856,14.542 3.472,14.053 4.159,28.644c0.746,15.848 34.959,-17.114 26.276,2.139c-2.838,6.293 -5.966,2.7 -17.063,11.485c-2.574,2.037 -17.137,3.851 -20.367,-7.282c-10.897,-37.547 -8.387,-74.312 -8.254,-86.097c0.128,-11.383 3.151,-11.323 0.645,-22.521c-1.561,-6.977 4.527,-15.047 9.578,-7.861Z" style="fill:#83b1d0;fill-opacity:0.91;"/><path d="M913.307,86.77c6.352,-6.294 8.626,-3.421 14.016,-10.457c8.984,-11.727 33.462,21.367 14.674,17.375c-0.932,-0.198 -1.296,-0.275 -10.258,-6.04c-2.568,0.659 -5.135,1.319 -7.703,1.978c-1.015,0.753 -10.744,7.975 -4.025,15.276c0.257,0.227 -0.646,1.528 3.816,2.359c23.517,13.115 24.437,17.944 24.921,20.479c1.626,8.529 8.552,10.636 -3.139,22.003c-1.621,1.576 -1.729,1.269 -3.335,2.822c-3.19,0.793 -3.398,0.925 -4.052,4.128c-3.392,0.641 -3.43,0.506 -3.664,0.692c-0.467,0.372 0.178,1.397 -0.289,1.769l-0.628,0.846c-11.343,-2.328 -11.685,0.388 -14.058,0.726c-0.757,-0.467 -1.514,-0.934 -2.272,-1.401c-10.222,-12.094 -12.791,-12.564 -14.304,-12.841c-0.021,-0.129 0.01,-0.016 -2.328,-6.403c1.094,-1.819 2.267,-12.272 15.009,-0.094c19.766,18.889 25.554,-0.967 18.007,-9.851c-1.133,-1.333 -19.42,-15.255 -20.578,-15.755c-6.544,-2.826 -5.753,-3.997 -6.311,-11.099c1.596,-3.01 1.704,-2.879 1.763,-6.372c0.819,-1.334 1.637,-2.668 2.456,-4.003c0.501,-1.38 1.115,-0.918 1.646,-2.382c0.104,-0.286 0.047,-0.278 0.634,-3.756Z" style="fill:#83b1d0;fill-opacity:0.88;"/><path d="M1969.519,90.544c2.257,2.033 3.91,3.945 4.226,4.31c0.603,1.311 5.084,11.064 -1.23,17.997c-8.968,9.847 -19.685,-4.785 -25.47,4.772c0.037,5.293 -0.183,5.209 0.907,10.43c-0.231,3.15 0.043,2.975 1.158,5.88c7.305,17.461 21.975,-0.065 26.229,4.14c4.674,4.62 -10.093,11.305 -10.623,11.714c-6.809,5.241 -7.449,3.492 -16.082,3.161c-13.753,-0.528 -19.885,-29.81 -12.081,-53.681c6.861,-20.985 13.897,-19.967 32.965,-8.723Zm-20.481,6.674c0.498,-5.565 1.515,-7.95 6.147,-4.78c5.382,3.683 7.08,8.084 7.415,8.951c-1.426,4.555 -1.313,4.572 -1.852,5.385c-7.81,-0.085 -9.787,3.516 -13.651,-3.395c1.408,-3.008 1.617,-2.843 1.941,-6.162Z" style="fill:#83b1d1;fill-opacity:0.89;"/><path d="M700.075,89.288c-1.414,6.538 -0.912,6.492 -1.344,12.018c-0.712,1.136 0.777,3.863 -10.605,9.575c-8.844,4.438 -16.707,2.854 -11.231,18.744c0.069,0.202 0,-0 1.587,2.14c0.656,3.995 0.834,3.907 4.123,6.01c11.646,9.051 24.844,-20.206 27.035,-8.054c1.058,5.871 -4.873,7.758 -6.362,11.005c-2.518,5.489 -4.618,3.153 -9.259,6.866c-1.374,1.099 -9.671,7.738 -21.983,0.798c-0.067,-0.273 -0.84,-3.415 -0.84,-3.415c-0.372,-0.469 -1.388,0.117 -1.76,-0.352c-12.059,-15.907 -9.865,-26.406 -1.487,-53.596c4.912,-15.941 25.45,-12.927 32.126,-1.739Zm-19.591,12.664l-0.381,0.725c-1.172,-0.088 -2.344,-0.176 -3.516,-0.264c-3.817,-2.578 1.085,-20.428 13.368,-12.728c4.886,3.063 0.325,10.344 -3.816,10.867c-2.919,0.526 -2.776,0.495 -5.655,1.4Z" style="fill:#80b0cf;fill-opacity:0.82;"/><path d="M2012.257,89.43c-3.022,1.816 -3.173,2.293 -1.885,5.519c0.03,0.743 -1.405,1.014 -1.376,1.757c0.138,3.47 6.96,3.652 7.638,3.67c2.985,1.967 2.873,2.083 6.364,1.97c0.662,0.756 1.325,1.511 1.987,2.267c0.681,0.838 -0.619,0.989 0.125,1.904c0.652,0.802 0.93,-0.304 1.766,0.422c0.59,0.513 3.786,3.808 4.111,4.143c1.067,1.1 1.122,0.854 2.409,1.835c0.391,0.398 -0.617,1.703 3.5,2.494c0.044,0.378 0.077,0.361 2.257,6.255l0.072,2.008c-0.421,6.256 -0.815,6.18 0.952,12.082c-0.161,0.277 -0.401,0.001 -2.685,2.98c-0.468,0.512 -1.609,-0.406 -2.077,0.105c-0.197,0.215 -0.04,0.267 -0.543,3.604c-3.535,0.606 -3.556,0.488 -3.818,0.654c-0.8,0.506 0.424,1.019 -0.367,1.519c-18.456,7.73 -20.813,6.174 -22.344,5.163c-0.674,-0.445 -3.568,-2.357 -8.83,-4.909c-0.817,-0.621 0.403,-1.104 -0.416,-1.727c-0.224,-0.17 -0.252,-0.067 -3.401,-0.904c-12.618,-22.903 5.005,-17.121 6.202,-16.391c2.514,1.534 13.36,17.532 24.031,9.5c9.097,-6.847 -11.349,-23.939 -17.592,-26.5c-1.294,-0.531 -10.919,-4.478 -10.831,-13.727c0.097,-10.135 23.76,-26.425 38.474,-9.621c1.723,1.967 4.461,24.331 -10.855,8.94c-2.164,-2.175 -3.479,-4.073 -3.744,-4.456c-4.024,-3.19 -4.493,-2.844 -9.123,-0.557Z" style="fill:#82b1d1;fill-opacity:0.89;"/><path d="M1376.088,87.149c4.884,-6.829 6.544,-4.532 18.284,-2.679c0.516,0.081 2.26,0.357 6.028,2.505c1.499,6.127 2.481,5.53 7.151,11.896c0.324,0.9 1.341,1.438 1.665,2.338c3.196,8.868 -30.783,3.855 -26.394,22.372c5.855,24.705 26.754,3.029 29.932,6.272c3.558,3.631 -10.527,22.026 -36.905,12.364c-2.819,-1.033 -19.471,-39.662 0.239,-55.069Zm2.494,12.189c6.719,-20.627 19.618,2.137 15.31,3.189c-4.805,1.173 -4.856,0.325 -9.727,1.782c-4.695,0.059 -5.43,-0.407 -5.583,-4.971Zm0,-0c0.152,4.565 0.887,5.03 5.583,4.971c-4.935,4.815 -8.747,1.139 -5.583,-4.971Z" style="fill:#83b1d1;fill-opacity:0.82;"/><path d="M1590.123,126.045c-0.557,2.931 0.095,2.702 1.451,5.223c2.603,1.307 2.438,1.142 2.603,1.307c9.966,10.011 22.575,-7.631 25.147,-7.596c8.321,0.113 -3.019,14.883 -10.196,17.28c-39.669,13.253 -30.451,-16.403 -34.726,-34.872c-0.267,-1.153 -0.054,-1.141 2.618,-13.988c0.939,-4.514 13.473,-12.373 21.93,-11.012c9.927,1.597 11.538,2.718 10.802,12.813c-0.569,7.805 -10.966,15.776 -16.916,16.772c-8.949,1.499 -4.495,5.289 -2.712,14.072Zm-3.823,-28.86c0.387,-1.505 0.471,-6.173 6.535,-7.391c15.401,-3.093 8.803,12.843 -3.923,12.786c-0.078,-0.081 -0.025,-0.002 -2.611,-5.395Z" style="fill:#83b1d1;fill-opacity:0.85;"/><path d="M1511.15,90.593c1.844,3.526 1.883,3.344 4.314,6.508c-0.151,11.231 0.299,11.376 -0.668,12.139c-5.516,4.351 -6.994,-14.909 -22.342,-17.336c-1.994,-0.315 -2.142,-0.169 -3.098,1.674c-1.014,1.954 -0.104,1.808 1.281,3.448c0.435,3.316 0.348,3.319 0.47,3.581c0.667,1.429 1.424,0.591 2.048,1.93c2.994,2.212 2.611,2.486 5.65,4.661c2.017,1.443 2.091,0.782 4.448,1.663l1.421,0.685c0.62,3.385 0.925,3.517 4.255,3.93c0.025,0.445 0.3,5.25 0.833,5.515c1.047,0.52 2.43,-0.062 3.477,0.459c0.088,0.994 0.164,0.927 1.941,6.361c0.652,12.742 -0.048,12.659 -1.482,14.952c-0.669,0.769 -1.338,1.537 -2.007,2.306c-2.254,1.035 -2.517,0.349 -4.457,2.046c-1.145,1.002 -1.199,0.711 -2.409,1.77c-5.525,0.391 -5.223,3.117 -10.328,1.542c-12.063,-3.721 -13.628,-1.264 -21.755,-10.937c-4.959,-5.903 -3.565,-20.607 8.238,-10.567c4.646,3.952 19.641,18.068 24.866,8.724c5.446,-9.739 -39.765,-33.545 -25.255,-46.127c7.182,-6.228 8.288,-6.963 26.331,-0.876c0.353,0.119 2.437,0.822 4.227,1.95Z" style="fill:#83b2d2;fill-opacity:0.87;"/><path d="M1426.446,142.457c-1.75,-8.412 -2.275,-8.147 -2.501,-16.653c-0.925,-34.802 -5.263,-41.791 3.155,-39.057c12.96,4.209 18.288,-11.737 30.735,2.131c4.336,4.83 5.963,19.175 3.256,21.917c-9.198,9.315 -12.002,-22.787 -22.064,-18.258c-15.286,6.881 12.783,54.445 -10.13,54.257c-0.206,-1.244 -0.016,-1.066 -0.19,-2.112c-0.49,-2.952 -1.805,-1.776 -2.262,-2.225Z" style="fill:#83b2d2;fill-opacity:0.92;"/><path d="M1240.224,105.578c-2.678,7.273 -0.696,7.22 1.227,12.016c-4.263,9.207 2.249,19.7 -0.035,22.793c-0.656,0.888 -1.256,-0.366 -1.779,0.567c-1.083,1.931 0.27,2.125 -0.735,3.917c-15.383,-2.057 -9.235,-26.262 -14.401,-45.654c-3.362,-12.621 10.693,-6.61 15.966,-10.694c15.052,-11.658 23.045,8.761 16.925,14.976c-9.901,10.053 -7.524,-8.565 -12.447,-8.473c-7.23,0.135 -4.937,9.653 -4.72,10.552Z" style="fill:#83b2d1;fill-opacity:0.91;"/><path d="M1338.541,105.385c-0.143,-15.287 -0.975,-23.055 6.809,-21.13c10.943,2.708 11.129,60.264 6.025,62.15c-3.5,1.294 -3.578,0.549 -6.491,-1.875c-0.095,-0.94 -0.601,-0.647 -0.701,-1.634c-0.262,-2.58 -0.755,-2.326 -1.548,-4.767l0.115,-4.094c0.313,-12.063 -1.773,-11.462 -2.201,-12.291c0.015,-3.379 0.029,-6.759 0.044,-10.138c-0.684,-2.074 -1.368,-4.148 -2.053,-6.222Z" style="fill:#83b2d2;fill-opacity:0.95;"/><path d="M268.664,136.076c-0.985,-28.404 -2.235,-28.313 -1.985,-30.767c1.802,-17.713 12.029,-1.737 12.833,6.161c2.173,21.344 16.53,45.608 -4.384,43.097c-0.623,-3.296 -4.248,-11.213 -4.682,-12.161c-0.184,-3.398 -0.344,-3.277 -1.782,-6.33Z" style="fill:#83b2d1;fill-opacity:0.95;"/><path d="M1688.784,89.156c1.234,6.071 1.794,5.782 4.576,12.103c0.39,21.393 -0.333,25.9 -0.029,45.118c-3.434,0.835 -3.54,0.647 -3.709,0.902c-0.651,0.986 0.453,1.1 -0.16,2.028c-2.319,1.371 -2.23,1.983 -4.692,1.122c-2.342,-0.819 -2.303,-1.529 -4.629,-30.67l-0.02,-6.277c0.098,-16.026 -3.232,-26.618 8.661,-24.325Z" style="fill:#83b1d1;fill-opacity:0.97;"/><path d="M1603.035,56.3c-7.137,4.844 -5.544,6.355 -7.662,12.544c-0.827,2.104 -1.654,4.208 -2.481,6.313c-15.88,-0.28 -3.542,-19.88 3.755,-27.26c10.759,-10.882 9.456,2.697 6.388,8.403Z" style="fill:#7eadc9;fill-opacity:0.91;"/><path d="M1693.376,70.693c-2.26,0.863 -4.52,1.727 -6.78,2.59c-18.493,-13.774 -7.473,-17.648 -5.979,-17.742c16.461,-1.036 12.834,10.95 12.759,15.152Z" style="fill:#86b3d1;fill-opacity:0.91;"/><path d="M1338.553,70.763c-0.09,-5.358 -1.566,-12.483 9.058,-7.102c14.193,7.189 6.819,11.324 5.819,11.189c-4.32,-0.585 -3.975,-1.391 -8.285,-1.75c-3.183,-1.771 -3.044,-1.656 -6.592,-2.337Z" style="fill:#83b2d2;fill-opacity:0.91;"/><path d="M279.31,80.837c-3.148,0.723 -3.201,0.585 -3.4,0.781c-0.503,0.497 0.403,1.621 -0.099,2.118c-12.996,8.291 -14.64,-8.102 -6.88,-9.581c7.938,-1.513 10.566,-1.344 10.38,6.682Z" style="fill:#83b3d3;fill-opacity:0.91;"/><path d="M448.335,41.684c0.338,1.46 0.676,2.921 1.013,4.381c0.167,15.517 0.22,15.302 -0.697,30.698c-5.158,-12.206 -3.037,-31.383 -0.317,-35.08Z" style="fill:#70b1c3;fill-opacity:0.06;"/><path d="M0,119.685l0,-6.138c1.185,-0.578 1.679,0.51 3.534,-1.723c6.405,-7.713 5.623,-10.112 19.997,-11.189c-11.603,6.156 -13.045,4.822 -19.315,16.426c-0.701,1.298 -0.851,0.967 -4.216,2.624Z" style="fill:#77a4c8;fill-opacity:0.08;"/><path d="M1241.451,117.594l0.451,0.165c3.174,14.215 3.746,24.593 -3,27.111c1.005,-1.792 -0.348,-1.986 0.735,-3.917c0.523,-0.933 1.123,0.321 1.779,-0.567c2.284,-3.092 -4.227,-13.585 0.035,-22.793Z" style="fill:#87a2af;fill-opacity:0.11;"/><path d="M1164.568,41.812c0.886,5.111 0.574,4.929 -0.104,22.614c-0.129,3.371 -0.938,2.995 -1.928,6.155c-1.063,-27.57 0.951,-27.461 2.033,-28.769Z" style="fill:#719db8;fill-opacity:0.1;"/><path d="M1872.605,38.171c9.196,4.832 15.876,12.643 16.536,18.287c-14.273,-14.426 -14.981,-13.785 -16.536,-18.287Z" style="fill:#729ec7;fill-opacity:0.11;"/><path d="M722.665,76.741c1.054,1.636 4.688,7.275 1.286,24.291c-2.354,-7.139 -1.512,-11.738 -1.286,-24.291Z" style="fill:#739ec1;fill-opacity:0.11;"/><path d="M903.008,146.486c1.513,0.277 4.082,0.747 14.304,12.841c-9.747,-1.667 -10.125,-7.118 -14.304,-12.841Z" style="fill:#74a0c3;fill-opacity:0.13;"/><path d="M872.639,92.921c1.475,-0.213 2.949,-0.426 4.424,-0.639c5.643,2.53 4.677,3.582 8.432,8.642l-0.398,4.316c-2.389,-4.12 -6.127,-8.889 -12.457,-12.32Z" style="fill:#87a1be;fill-opacity:0.13;"/><path d="M1327.428,94.989c3.034,4.341 3.928,18.917 4.031,20.592c-0.142,-0.245 -1.882,-1.106 -2.385,-4.115c-2.214,-13.247 -1.875,-15.173 -1.646,-16.477Z" style="fill:#8097a5;fill-opacity:0.11;"/><path d="M1799.156,90.421c-0.808,5.996 -7.012,12.543 -8.477,14.897c1.119,-12.147 7.192,-14.417 8.477,-14.897Z" style="fill:#75a2c6;fill-opacity:0.11;"/><path d="M1603.035,56.3c-1.466,2.255 -1.391,2.053 -1.466,2.255c-2.417,6.512 -1.551,6.801 -6.102,12.283l-0.094,-1.994c2.118,-6.189 0.525,-7.7 7.662,-12.544Z" style="fill:#7496a9;fill-opacity:0.11;"/><path d="M1091.183,119.297c1.075,1.512 2.15,3.024 3.224,4.537c-1.071,8.279 -4.238,2.279 -4.258,1.907c-0.258,-4.825 0.743,-4.634 1.033,-6.443Z" style="fill:#6e797d;fill-opacity:0.1;"/><path d="M455.942,35.148c-1.123,0.933 -4.424,-1.006 -6.594,10.918c-0.338,-1.46 -0.676,-2.921 -1.013,-4.381c1.494,-6.879 2.094,-10.857 7.607,-6.537Z" style="fill:#76a7c7;fill-opacity:0.17;"/><path d="M1153.514,70.417c0.585,0.751 1.574,0.53 1.933,18.561c-1.005,-3.237 -1.659,-2.868 -1.928,-6.211c-0.509,-6.331 -1.48,-6.259 -0.005,-12.35Z" style="fill:#819a8f;fill-opacity:0.1;"/><path d="M1869.463,64.317c3.279,3.805 2.565,4.177 1.912,14.432c-2.411,-7.058 -2.931,-7.008 -1.912,-14.432Z" style="fill:#9aaa97;fill-opacity:0.07;"/><path d="M455.148,142.109c2.653,-3.627 2.645,-8.59 4.436,-4.37c2.184,5.145 0.631,11.419 0.393,12.381c-0.08,-0.302 -1.002,-3.772 -1.002,-3.772c-0.161,-3.655 -1.32,-2.881 -3.828,-4.239Z" style="fill:#6aa3b4;fill-opacity:0.12;"/><path d="M85.311,21.452c0.461,1.231 2.233,5.964 2.005,16.311l-0.016,2.054c-0.238,-0.895 -1.418,-1.336 -1.656,-2.231c-0.331,-1.248 -1.644,-6.195 -0.333,-16.135Z" style="fill:#85908b;fill-opacity:0.09;"/><path d="M1162.593,80.816c2.47,8.086 3.037,7.964 2.044,16.473c-4.468,-6.206 -2.056,-6.878 -2.044,-16.473Z" style="fill:#6e98b8;fill-opacity:0.12;"/><path d="M1400.4,86.976c5.781,4.55 6.277,4.592 7.151,11.896c-4.671,-6.366 -5.652,-5.769 -7.151,-11.896Z" style="fill:#769bb5;fill-opacity:0.15;"/><path d="M802.913,50.148c-3.455,-0.213 -3.882,-0.741 -5.746,2.148c0.143,-0.469 6.094,-19.952 5.746,-2.148Z" style="fill:#84989d;fill-opacity:0.14;"/><path d="M1323.364,58.151c3.82,5.423 0.595,6.533 1.835,18.545c-3.814,-8.765 -2.877,-8.938 -1.835,-18.545Z" style="fill:#6e8b98;fill-opacity:0.13;"/><path d="M1894.826,62.783c3.249,6.094 3.428,5.849 5.881,12.381c-4.794,-2.082 -5.677,-6.581 -6.191,-10.197l0.31,-2.184Z" style="fill:#6f97c1;fill-opacity:0.16;"/><path d="M785.562,68.988c-0.761,5.871 1.729,6.628 -2.811,11.992l-1.615,0.361c0.995,-3.04 1.435,-6.117 1.513,-6.657c0.735,-5.131 2.237,-4.375 2.913,-5.696Z" style="fill:#919a98;fill-opacity:0.14;"/><path d="M1493.155,102.536l1.954,0.024c5.398,0.84 4.847,1.883 8.144,6.3c-2.357,-0.881 -2.431,-0.22 -4.448,-1.663c-3.039,-2.175 -2.657,-2.449 -5.65,-4.661Z" style="fill:#84acc6;fill-opacity:0.14;"/><path d="M731.895,44.081c-0.06,-4.535 -1.825,-6.385 1.561,-6.276c1.939,0.062 1.346,0.838 3.914,8.322c-1.872,-2.604 -2.133,-2.324 -5.475,-2.046Z" style="fill:#6d94ba;fill-opacity:0.16;"/><path d="M450.912,91.081c6.754,13.065 -5.482,3.788 -5.919,3.456c0.485,-0.05 3.709,-0.382 5.909,-1.48l0.011,-1.977Z" style="fill:#78a8c6;fill-opacity:0.08;"/><path d="M889.343,115.593c0.031,9.924 2.357,10.444 -1.931,16.629c0.678,-8.552 -1.598,-8.886 1.931,-16.629Z" style="fill:#6e8299;fill-opacity:0.16;"/><path d="M270.446,142.406c0.434,0.948 4.059,8.865 4.682,12.161c-5.354,-3.518 -4.226,-4.35 -5.523,-10.57l0.842,-1.591Z" style="fill:#628cb4;fill-opacity:0.15;"/><path d="M1794.593,132.277l8.406,8.432l-2.43,0.365c-3.28,-1.808 -2.898,-2.016 -5.592,-4.745c-0.128,-1.351 -0.256,-2.701 -0.384,-4.052Z" style="fill:#7faed1;fill-opacity:0.15;"/><path d="M1149.395,47.94c1.855,2.393 1.308,2.534 2.895,10.604l-0.804,1.586c-2.695,-5.938 -3.305,-5.91 -2.091,-12.191Z" style="fill:#79969f;fill-opacity:0.12;"/><path d="M1688.784,89.156c7.304,5.492 4.523,10.017 4.576,12.103c-2.783,-6.32 -3.342,-6.032 -4.576,-12.103Z" style="fill:#8b9d9a;fill-opacity:0.14;"/><path d="M448.588,78.792c1.809,6.125 2.465,5.86 2.324,12.289l-0.011,1.977c-0.692,-1.977 -3.341,-2.748 -2.313,-14.266Z" style="fill:#6892ad;fill-opacity:0.11;"/><path d="M2024.985,104.614c5.732,1.898 7.382,5.446 9.903,8.737l-1.492,-0.434c-1.287,-0.98 -1.342,-0.734 -2.409,-1.835c-0.325,-0.335 -3.52,-3.63 -4.111,-4.143c-0.836,-0.727 -1.114,0.379 -1.766,-0.422c-0.744,-0.915 0.556,-1.066 -0.125,-1.904Z" style="fill:#7a92ac;fill-opacity:0.17;"/><path d="M851.928,92.48c-7.27,2.553 -7.256,2.014 -14.791,2.168c0.904,-0.783 2.601,-2.252 14.791,-2.168Z" style="fill:#63809f;fill-opacity:0.1;"/><path d="M619.16,50.108c2.272,6.41 0.154,7.021 3.677,12.773c-6.953,-1.451 -3.341,-4.335 -3.677,-12.773Z" style="fill:#7a8794;fill-opacity:0.14;"/><path d="M455.372,125.844l1.419,1.868c-2.064,4.098 -2.138,3.978 -6.365,5.87c0.629,-1.515 0.713,-1.414 4.946,-7.739Z" style="fill:#86b2cf;fill-opacity:0.07;"/><path d="M1240.224,105.578c0.278,0.944 1.109,3.763 1.678,12.182l-0.451,-0.165c-1.923,-4.796 -3.905,-4.744 -1.227,-12.016Z" style="fill:#829794;fill-opacity:0.12;"/><path d="M2039.224,123.675c2.469,3.289 3.563,3.82 0.952,12.082c-1.767,-5.902 -1.374,-5.826 -0.952,-12.082Z" style="fill:#7b9aa2;fill-opacity:0.12;"/><path d="M1270.789,123.651c0.541,7.237 0.088,7.016 -0.585,14.216c-3.14,-10.313 -0.935,-10.913 0.585,-14.216Z" style="fill:#688eb4;fill-opacity:0.15;"/><path d="M919.583,160.728c2.373,-0.338 2.715,-3.054 14.058,-0.726c-8.323,2.612 -11.381,0.839 -14.058,0.726Z" style="fill:#6b92a9;fill-opacity:0.15;"/><path d="M619.302,35.766c2.243,6.058 2.268,6.224 -0.123,12.329c-0.791,-6.202 -0.799,-6.084 0.123,-12.329Z" style="fill:#9ba66d;fill-opacity:0.09;"/><path d="M1378.582,99.338c0.152,4.565 0.887,5.03 5.583,4.971c-4.935,4.815 -8.747,1.139 -5.583,-4.971Z" style="fill:#75909b;fill-opacity:0.11;"/><path d="M253.145,77.368c-4.518,3.134 -4.813,1.949 -10.33,2.126l-2.068,-0.168c5.911,-2.795 6.021,-1.562 12.399,-1.958Z" style="fill:#7b8b9b;fill-opacity:0.16;"/><path d="M1055.256,54.281c-0.399,7.997 0.859,8.255 -2.024,12.343c-0.136,-12.059 1.795,-11.66 2.024,-12.343Z" style="fill:#78918f;fill-opacity:0.15;"/><path d="M700.075,89.288c3.07,10.224 -0.038,10.645 -1.344,12.018c0.433,-5.527 -0.07,-5.481 1.344,-12.018Z" style="fill:#999b77;fill-opacity:0.11;"/><path d="M1268.863,54.225c1.71,3.411 3.422,3.286 1.269,12.046c-2.113,-6.877 -1.192,-10.667 -1.269,-12.046Z" style="fill:#6194b4;fill-opacity:0.12;"/><path d="M1111.597,92.438c-2.124,4.296 -2.113,4.317 -6.502,6.354c1.884,-4.429 1.926,-4.538 6.502,-6.354Z" style="fill:#82a9ce;fill-opacity:0.09;"/><path d="M1325.228,80.711c3.364,4.413 2.142,4.766 2.14,10.303c-0.348,-0.561 -3.171,0.191 -2.14,-10.303Z" style="fill:#7f98aa;fill-opacity:0.1;"/><path d="M802.53,80.817c0.756,1.523 2.557,0.99 2.26,12.291c-2.323,-5.955 -1.992,-5.917 -2.26,-12.291Z" style="fill:#6698a9;fill-opacity:0.11;"/><path d="M87.315,37.763c2.023,6.235 2.015,6.252 0.016,12.338c-0.792,-5.182 -0.535,-5.091 -0.032,-10.284l0.016,-2.054Z" style="fill:#908570;fill-opacity:0.11;"/><path d="M887.528,105.069c3.076,4.332 1.664,4.604 1.815,10.524c-0.865,-2.032 -1.73,-4.064 -2.595,-6.095l0.78,-4.429Z" style="fill:#8e9d86;fill-opacity:0.11;"/><path d="M1340.55,121.745c0.428,0.829 2.514,0.228 2.201,12.291c-2.211,-6.011 -2.236,-5.917 -2.201,-12.291Z" style="fill:#6a8dac;fill-opacity:0.12;"/><path d="M1693.376,70.693c-1.386,4.745 -2.782,5.401 -6.78,2.59c2.26,-0.863 4.52,-1.727 6.78,-2.59Z" style="fill:#83a8bd;fill-opacity:0.13;"/><path d="M1626.88,146.295c0.181,0.724 2.22,0.151 1.981,12.405c-3.107,-6.81 -1.695,-7.028 -1.981,-12.405Z" style="fill:#6292a5;fill-opacity:0.15;"/><path d="M2010.372,94.95c2.159,1.947 1.201,3.056 4.156,3.585c2.149,0.385 1.413,1.236 2.106,1.843c-0.678,-0.018 -7.5,-0.201 -7.638,-3.67c-0.03,-0.743 1.405,-1.014 1.376,-1.757Z" style="fill:#799fba;fill-opacity:0.13;"/><path d="M1773.307,102.939l1.778,0.159c1.588,1.848 0.916,2.144 2.445,3.964l0.124,4.142c-2.672,-4.01 -2.581,-3.839 -4.347,-8.265Z" style="fill:#85a5b8;fill-opacity:0.16;"/><path d="M1866.876,149.003c3.271,-3.016 5.13,-4.96 6.026,-0.675c0.187,0.894 -0.767,1.784 -0.58,2.678c-2.665,-1.488 -2.544,-1.204 -5.446,-2.003Z" style="fill:#7594b3;fill-opacity:0.08;"/><path d="M720.59,27.623c1.873,5.007 2.368,4.876 2.111,10.327c-3.866,-4.877 -1.857,-5.689 -2.111,-10.327Z" style="fill:#6991aa;fill-opacity:0.12;"/><path d="M90.579,146.685c2.887,1.437 5.773,2.874 8.66,4.311c-5.2,-0.524 -5.196,-0.578 -8.66,-4.311Z" style="fill:#759fb8;fill-opacity:0.15;"/><path d="M1057.376,127.432c0.536,0.194 2.487,0.902 5.616,4.385l0.364,1.591c-4.087,-1.888 -4.11,-1.871 -5.98,-5.977Z" style="fill:#889ab1;fill-opacity:0.13;"/><path d="M1843.283,94.688c3.081,3.728 3.205,3.609 3.697,8.571c-1.347,-2.171 -3.788,-1.142 -3.697,-8.571Z" style="fill:#7d93a6;fill-opacity:0.14;"/><path d="M751.341,72.94c4.905,2.666 5.609,2.455 6.433,8.065c-6.135,-5.951 -5.874,-7.291 -6.433,-8.065Z" style="fill:#668fb7;fill-opacity:0.17;"/><path d="M1790.692,119.711c1.979,3.96 2.081,3.865 1.797,8.386l-0.748,1.586c-1.535,-4.876 -1.163,-4.845 -1.049,-9.973Z" style="fill:#719bb7;fill-opacity:0.11;"/><path d="M1511.15,90.593c4.583,0.74 3.835,1.967 4.314,6.508c-2.431,-3.164 -2.47,-2.982 -4.314,-6.508Z" style="fill:#999ba8;fill-opacity:0.09;"/><path d="M2012.257,89.43c4.63,-2.288 5.099,-2.633 9.123,0.557c-4.283,0.165 -8.4,-0.449 -9.123,-0.557Z" style="fill:#688ea7;fill-opacity:0.09;"/><path d="M242.514,95.107c0.734,5.183 0.474,5.008 0.486,10.226c-2.357,-4.894 -1.751,-4.95 -0.486,-10.226Z" style="fill:#7391a1;fill-opacity:0.13;"/><path d="M1152.29,58.544c0.238,0.786 1.14,3.771 1.614,10.138c-3.158,-3.455 -2.174,-3.84 -2.418,-8.552l0.804,-1.586Z" style="fill:#778c96;fill-opacity:0.14;"/><path d="M0,140.144l0,-6.138c2.369,2.933 2.482,2.885 2.577,6.609l-2.577,-0.472Z" style="fill:#7eadd1;fill-opacity:0.13;"/><path d="M1902.688,112.9c0.24,5.003 -0.483,4.837 -4.052,8.139c1.404,-5.96 3.482,-7.367 4.052,-8.139Z" style="fill:#6297b6;fill-opacity:0.16;"/><path d="M243.128,109.309c0.724,1.047 2.726,0.701 0.856,10.429l-0.916,-2.059c0.023,-7.649 -0.002,-7.595 0.061,-8.37Z" style="fill:#939470;fill-opacity:0.17;"/><path d="M1764.872,35.515c5.841,5.976 4.549,6.676 4.767,7.968c-3.727,-3.395 -4.403,-3.066 -4.767,-7.968Z" style="fill:#708f9e;fill-opacity:0.16;"/><path d="M1725.488,148.562c3.489,0.503 3.502,0.396 3.768,0.543c2.689,1.487 1.846,2.417 4.619,3.95c-5.013,-0.626 -4.958,-0.922 -8.387,-4.493Z" style="fill:#698fa9;fill-opacity:0.14;"/><path d="M1729.251,79.591c3.526,1.434 3.433,1.273 6.394,3.679c-1.351,-0.038 -2.702,-0.077 -4.053,-0.115c-0.672,-0.685 -1.343,-1.37 -2.015,-2.055l-0.326,-1.509Z" style="fill:#78a4c9;fill-opacity:0.13;"/><path d="M1947.045,117.623c2.321,4.947 1.764,5.061 0.907,10.43c-1.09,-5.221 -0.87,-5.137 -0.907,-10.43Z" style="fill:#919f6c;fill-opacity:0.12;"/><path d="M127.692,125.191c0.283,-6.264 3.245,-3.913 3.526,-3.01c0.376,1.213 -0.303,2.596 0.073,3.809c-1.199,-0.266 -2.399,-0.532 -3.598,-0.799Z" style="fill:#719ab6;fill-opacity:0.18;"/><path d="M1331.457,134.013c-0.388,3.796 0.318,3.947 -2.109,6.887c-0.153,-1.691 -1.812,-0.555 -1.964,-2.221c-0.013,-0.141 0.311,1.186 1.726,-0.405c0,0 2.159,-3.92 2.347,-4.261Z" style="fill:#7ea5c2;fill-opacity:0.12;"/><path d="M804.53,119.698c1.138,2.219 2.119,1.881 2.164,10.251c-1.826,-5.12 -1.8,-4.938 -2.164,-10.251Z" style="fill:#6489a5;fill-opacity:0.13;"/><path d="M621.351,101.165c2.869,3.438 1.816,3.742 1.983,8.25c-2.017,-3.829 -1.717,-3.794 -1.983,-8.25Z" style="fill:#7094af;fill-opacity:0.09;"/><path d="M1897.277,121.488c-0.544,4.821 -1.205,4.478 -4.818,7.695c1.039,-4.041 1.049,-3.956 4.818,-7.695Z" style="fill:#678caa;fill-opacity:0.15;"/><path d="M1511.691,143.067l-0.51,1.472c-2.68,2.21 -2.774,1.928 -6.356,2.344c1.211,-1.059 1.264,-0.768 2.409,-1.77c1.94,-1.697 2.203,-1.011 4.457,-2.046Z" style="fill:#759cb7;fill-opacity:0.11;"/><path d="M1767.353,94.453l1.589,0.43c1.711,1.747 0.948,2.118 2.52,3.848l-0.361,2.293c-1.249,-2.19 -2.498,-4.381 -3.748,-6.571Z" style="fill:#83a5c3;fill-opacity:0.19;"/><path d="M885.495,100.924c1.33,1.983 1.256,1.867 2.034,4.144l-0.78,4.429c-0.551,-1.419 -1.101,-2.838 -1.652,-4.256l0.398,-4.316Z" style="fill:#7e9096;fill-opacity:0.15;"/><path d="M1962.6,101.39c2.233,4 3.574,4.584 1.77,5.263c-1.131,0.425 -2.491,-0.303 -3.622,0.122c0.539,-0.813 0.425,-0.83 1.852,-5.385Z" style="fill:#6d95b5;fill-opacity:0.08;"/><path d="M868.5,90.679c4.489,0.115 4.636,-0.803 8.563,1.603c-1.475,0.213 -2.949,0.426 -4.424,0.639c-1.38,-0.748 -2.76,-1.495 -4.139,-2.243Z" style="fill:#6786a3;fill-opacity:0.1;"/><path d="M1053.186,107.445l-0.072,8.076c-2.122,-3.995 -2.063,-4.192 0.072,-8.076Z" style="fill:#829785;fill-opacity:0.11;"/><path d="M1053.1,97.21l0.093,8.136c-2.134,-3.925 -2.228,-4.106 -0.093,-8.136Z" style="fill:#78958a;fill-opacity:0.09;"/><path d="M87.463,52.042c2.748,3.515 1.723,3.794 1.89,8.297c-1.827,-3.908 -1.605,-3.872 -1.89,-8.297Z" style="fill:#6b8aa2;fill-opacity:0.11;"/><path d="M1166.608,125.837c2.013,3.727 2.354,3.762 1.129,7.939c-1.222,-3.978 -0.867,-3.875 -1.129,-7.939Z" style="fill:#6f9db4;fill-opacity:0.11;"/><path d="M910.452,90.41l0.574,2.499c-0.819,1.334 -1.637,2.668 -2.456,4.003l-0.676,-1.566c0.642,-2.857 0.859,-2.592 2.557,-4.936Z" style="fill:#6990b0;fill-opacity:0.14;"/><path d="M1490.637,97.026c2.729,2.564 3.044,2.18 4.472,5.534l-1.954,-0.024c-0.624,-1.338 -1.382,-0.501 -2.048,-1.93c-0.122,-0.262 -0.035,-0.265 -0.47,-3.581Z" style="fill:#6e91a9;fill-opacity:0.12;"/><path d="M1164.6,105.379c0.176,0.368 1.922,-0.173 2.054,8.275c-2.701,-3.573 -1.728,-3.838 -2.054,-8.275Z" style="fill:#6389a1;fill-opacity:0.13;"/><path d="M1718.88,68.769c1.318,2.245 2.636,4.49 3.954,6.735l-1.494,-0.565c-2.187,-2.671 -1.93,-2.759 -2.46,-6.169Z" style="fill:#729cba;fill-opacity:0.18;"/><path d="M2016.634,100.377c3.497,0.259 3.5,-0.109 6.364,1.97c-3.491,0.113 -3.378,-0.003 -6.364,-1.97Z" style="fill:#6f94ab;fill-opacity:0.14;"/><path d="M1508.929,113.475c2.737,2.65 2.067,2.971 4.31,5.973c-1.047,-0.52 -2.43,0.062 -3.477,-0.459c-0.533,-0.265 -0.807,-5.069 -0.833,-5.515Z" style="fill:#6e8ea4;fill-opacity:0.08;"/><path d="M1331.445,121.739l0.004,8.167c-1.78,-3.995 -1.812,-4.075 -0.004,-8.167Z" style="fill:#678aa2;fill-opacity:0.12;"/><path d="M1867.377,54.109c2.655,3.579 1.72,3.805 2.072,8.238c-0.691,-2.746 -1.381,-5.492 -2.072,-8.238Z" style="fill:#668698;fill-opacity:0.15;"/><path d="M268.664,136.076c1.438,3.052 1.598,2.931 1.782,6.33l-0.842,1.591c-1.137,-3.913 -0.779,-3.816 -0.94,-7.921Z" style="fill:#6b95b5;fill-opacity:0.11;"/><path d="M1865.122,35.966c1.887,3.87 1.637,3.776 2.248,7.999c-2.133,-3.711 -2.38,-3.631 -2.248,-7.999Z" style="fill:#99a885;fill-opacity:0.15;"/><path d="M425.544,137.502c3.227,1.512 2.762,1.863 5.269,4.489c-4.641,-0.81 -5.233,-2.114 -5.432,-2.551c-0.268,-0.59 0.432,-1.348 0.163,-1.938Z" style="fill:#738d9b;fill-opacity:0.13;"/><path d="M907.894,95.346l0.676,1.566c-0.059,3.493 -0.168,3.362 -1.763,6.372c0.265,-4.076 -0.038,-3.949 1.087,-7.938Z" style="fill:#6d7eb1;fill-opacity:0.11;"/><path d="M1792.489,128.098c0.701,1.393 1.403,2.786 2.104,4.179c0.128,1.351 0.256,2.701 0.384,4.052c-0.371,-0.461 -1.168,-1.453 -3.236,-6.644l0.748,-1.586Z" style="fill:#5b7a97;fill-opacity:0.16;"/><path d="M527.311,139.037c-2.281,2.408 -1.723,3.066 -5.961,4.028c1.068,-1.152 0.841,-1.168 1.852,-2.259c1.773,-1.913 2.083,-0.897 4.109,-1.769Z" style="fill:#789ab1;fill-opacity:0.17;"/><path d="M1731.591,83.155c1.351,0.038 2.702,0.077 4.053,0.115c0.706,1.321 1.411,2.643 2.117,3.964c-2.948,-2.28 -3.25,-1.651 -6.17,-4.079Z" style="fill:#6082a3;fill-opacity:0.09;"/><path d="M623.17,73.223c-1.32,1.846 -1.733,5.08 -1.792,5.542c-0.62,-1.334 -5.336,-5.589 1.792,-5.542Z" style="fill:#749197;fill-opacity:0.09;"/><path d="M144.726,103.34l0.096,8.152c-1.693,-3.973 -1.781,-4.031 -0.096,-8.152Z" style="fill:#758e88;fill-opacity:0.13;"/><path d="M454.667,119.731c1.493,3.888 1.953,3.656 2.124,7.981l-1.419,-1.868c-0.235,-2.038 -0.47,-4.075 -0.705,-6.113Z" style="fill:#597a9a;fill-opacity:0.1;"/><path d="M301.022,127.772c-0.023,0.809 -0.132,0.784 -0.633,10.098c-1.354,-5.121 -1.289,-5.109 0.633,-10.098Z" style="fill:#629893;fill-opacity:0.21;"/><path d="M1338.553,70.763c3.547,0.682 3.409,0.567 6.592,2.337c-3.673,-0.353 -3.989,0.335 -6.592,-2.337Z" style="fill:#6f9fb9;fill-opacity:0.16;"/><path d="M1057.499,44.359c-0.282,3.93 -0.274,3.821 -1.378,7.585c-0.803,-4.055 -0.512,-4.029 1.378,-7.585Z" style="fill:#688d9c;fill-opacity:0.16;"/><path d="M618.306,27.923c1.12,3.871 0.776,3.783 0.996,7.843c-1.692,-3.783 -1.997,-3.795 -0.996,-7.843Z" style="fill:#75949d;fill-opacity:0.13;"/><path d="M1166.218,31.093c0.059,3.658 -0.061,3.522 -1.603,6.728c0.249,-3.567 -0.395,-3.634 1.603,-6.728Z" style="fill:#6a90b0;fill-opacity:0.12;"/><path d="M1156.366,93.323c1.019,4.018 0.72,3.924 0.957,7.918c-0.656,-1.409 -1.311,-2.817 -1.967,-4.226c0.337,-1.231 0.673,-2.462 1.01,-3.693Z" style="fill:#6e93ad;fill-opacity:0.13;"/><path d="M1771.462,98.731c0.282,0.356 1.783,2.253 3.623,4.367l-1.778,-0.159c-0.736,-0.638 -1.471,-1.276 -2.207,-1.915l0.361,-2.293Z" style="fill:#808596;fill-opacity:0.11;"/><path d="M1595.372,68.844l0.094,1.994c-0.62,2.681 -0.687,2.502 -2.575,4.319c0.827,-2.104 1.654,-4.208 2.481,-6.313Z" style="fill:#7897a3;fill-opacity:0.18;"/><path d="M143.528,83.128c1.182,3.946 0.852,3.895 1.226,7.91c-0.356,-1.378 -1.306,-0.601 -1.685,-2.066c-0.117,-0.454 0.034,-0.433 0.459,-5.844Z" style="fill:#8f9875;fill-opacity:0.22;"/><path d="M1892.589,58.801c0.746,1.327 1.491,2.655 2.237,3.982l-0.31,2.184c-0.562,-0.744 -1.123,-1.487 -1.685,-2.231c-0.081,-1.312 -0.161,-2.624 -0.242,-3.936Z" style="fill:#678fb4;fill-opacity:0.17;"/><path d="M1068.89,25.531c-1.949,3.272 -1.307,3.541 -3.747,6.374c0.379,-3.943 0.518,-4.016 3.747,-6.374Z" style="fill:#67808f;fill-opacity:0.13;"/><path d="M1800.569,141.073l2.43,-0.365c0.802,1.261 1.605,2.522 2.407,3.784c-2.6,-1.668 -2.472,-1.593 -4.837,-3.419Z" style="fill:#6889cb;fill-opacity:0.18;"/><path d="M1723.41,76.996c1.298,0.131 2.597,0.262 3.895,0.393l1.946,2.202l0.326,1.509c-2.936,-2.309 -3.259,-1.641 -6.166,-4.104Z" style="fill:#5d7e96;fill-opacity:0.14;"/><path d="M1769.376,140.946c-2.207,2.009 -2.037,1.903 -4.669,3.582c0.464,-0.701 -0.101,-0.79 0.395,-1.538c1.984,-2.999 3.829,-1.831 4.274,-2.043Z" style="fill:#8895ae;fill-opacity:0.16;"/><path d="M854.164,148.324c-3.527,1.988 -3.542,1.827 -3.817,2.037c0.275,-0.61 -0.442,-1.39 -0.166,-2c1.111,-2.458 1.922,-1.855 3.984,-0.037Z" style="fill:#6382ac;fill-opacity:0.19;"/><path d="M1155.473,90.998c0.298,0.775 0.596,1.55 0.894,2.325c-0.337,1.231 -0.673,2.462 -1.01,3.693c-1.181,-3.139 -1.125,-3.101 0.116,-6.018Z" style="fill:#749db9;fill-opacity:0.15;"/><path d="M857.878,151.157c3.18,0.143 3.029,-0.034 6.253,0.639c-3.36,0.996 -3.47,1.411 -6.253,-0.639Z" style="fill:#718eaf;fill-opacity:0.16;"/><path d="M215.967,85.438c-2.64,1.987 -2.707,1.52 -6.048,0.952c3.037,-0.872 2.925,-0.947 6.048,-0.952Z" style="fill:#7098b3;fill-opacity:0.05;"/><path d="M913.307,86.77c-0.587,3.478 -0.53,3.47 -0.634,3.756c-0.531,1.465 -1.146,1.003 -1.646,2.382l-0.574,-2.499c1.19,-2.111 1.146,-2.018 2.855,-3.639Z" style="fill:#6a84ab;fill-opacity:0.15;"/><path d="M1775.084,134.22c-2.42,2.963 -1.761,3.28 -4.181,6.098c0.721,-3.938 0.925,-3.91 4.181,-6.098Z" style="fill:#677d84;fill-opacity:0.16;"/><path d="M2058.63,38.178c2.539,1.666 2.457,1.636 3.781,4.352c-2.025,-2.087 -1.948,-2 -3.781,-4.352Z" style="fill:#77a0c1;fill-opacity:0.21;"/><path d="M1065.143,31.905c-1.831,2.106 -3.663,5.621 -3.933,6.138c1.421,-3.485 0.714,-3.902 3.933,-6.138Z" style="fill:#627986;fill-opacity:0.18;"/><path d="M1777.631,128.21c-0.286,3.406 -0.281,3.372 -2.547,6.011c0.078,-0.939 0.477,-0.72 0.554,-1.637c0.209,-2.515 0.946,-2.076 1.994,-4.374Z" style="fill:#64839a;fill-opacity:0.13;"/><path d="M51.426,95.363c0.421,2.641 0.842,5.282 1.263,7.924c-0.331,-1.339 -1.229,-0.64 -1.581,-2.064c-0.113,-0.456 0.024,-0.434 0.318,-5.859Z" style="fill:#72957b;fill-opacity:0.21;"/><path d="M1586.3,97.185c2.587,5.393 2.533,5.314 2.611,5.395c-3.164,-1.52 -3.462,-1.854 -2.611,-5.395Z" style="fill:#64869e;fill-opacity:0.12;"/><path d="M460.737,150.578c1.995,1.844 1.94,1.761 2.474,4.464c-1.875,-1.91 -1.947,-1.732 -2.474,-4.464Z" style="fill:#759ec7;fill-opacity:0.15;"/><path d="M139.403,42.19c1.001,3.999 0.804,3.829 1.228,7.899c-0.354,-1.417 -1.252,-0.712 -1.584,-2.044c-0.114,-0.455 0.026,-0.434 0.356,-5.855Z" style="fill:#799972;fill-opacity:0.22;"/><path d="M1889.141,56.458c1.149,0.781 2.299,1.562 3.448,2.343c0.081,1.312 0.161,2.624 0.242,3.936c-2.036,-3.151 -1.436,-3.339 -3.69,-6.279Z" style="fill:#50738d;fill-opacity:0.15;"/><path d="M1693.332,146.377c-1.606,2.036 -1.415,2.121 -3.869,2.93c0.613,-0.929 -0.491,-1.042 0.16,-2.028c0.168,-0.255 0.275,-0.067 3.709,-0.902Z" style="fill:#87a4bd;fill-opacity:0.17;"/><path d="M1721.34,74.938l1.494,0.565c1.49,0.629 2.981,1.258 4.471,1.887c-1.298,-0.131 -2.597,-0.262 -3.895,-0.393c-0.69,-0.686 -1.38,-1.372 -2.07,-2.058Z" style="fill:#6990ab;fill-opacity:0.15;"/><path d="M676.586,102.414c1.172,0.088 2.344,0.176 3.516,0.264c-0.309,0.179 -3.861,2.239 -3.861,2.239c-1.77,0.032 0.109,-0.789 0.345,-2.502Z" style="fill:#6c97b3;fill-opacity:0.16;"/><path d="M127.172,95.132c1.347,3.093 1.321,3.16 0.136,6.182l-0.136,-6.182Z" style="fill:#589ea0;fill-opacity:0.13;"/><path d="M425.117,125.865l-0.022,6.066c-1.295,-2.981 -1.345,-3.053 0.022,-6.066Z" style="fill:#72898f;fill-opacity:0.08;"/><path d="M83.324,13.197c2.035,2.678 1.684,2.743 2.045,6.218c-0.682,-2.073 -1.363,-4.145 -2.045,-6.218Z" style="fill:#6c8693;fill-opacity:0.13;"/><path d="M678.482,131.766c2.463,2.84 1.868,3.132 4.123,6.01c-3.289,-2.103 -3.466,-2.015 -4.123,-6.01Z" style="fill:#667981;fill-opacity:0.15;"/><path d="M1426.446,142.457c0.456,0.449 1.772,-0.727 2.262,2.225c0.174,1.046 -0.017,0.868 0.19,2.112c-1.916,-1.941 -1.912,-1.787 -2.451,-4.337Z" style="fill:#7b99c9;fill-opacity:0.13;"/><path d="M931.739,87.649c-2.568,0.659 -5.135,1.319 -7.703,1.978c2.568,-0.659 5.135,-1.319 7.703,-1.978Z" style="fill:#637e89;fill-opacity:0.11;"/><path d="M791.551,61.02l-0.167,1.832c-0.722,0.726 -1.445,1.451 -2.167,2.177c0.129,-1.23 -0.185,-1.028 -0.061,-2.215c0.245,-2.339 2.393,-1.792 2.395,-1.793Z" style="fill:#82a3bd;fill-opacity:0.1;"/><path d="M1759.018,32.787c3.295,0.527 3.267,0.545 5.854,2.728c-0.89,-0.094 -0.602,-0.585 -1.541,-0.684c-2.516,-0.265 -2.119,-1.004 -4.312,-2.044Z" style="fill:#5d7d94;fill-opacity:0.14;"/><path d="M1664.415,93.03c2.334,2.533 2.268,2.492 2.89,5.775c-2.18,-3.798 -2.38,-3.596 -2.89,-5.775Z" style="fill:#697b8d;fill-opacity:0.19;"/><path d="M1513.239,119.448c2.179,2.724 1.823,2.818 1.941,6.361c-1.777,-5.434 -1.853,-5.367 -1.941,-6.361Z" style="fill:#6f8994;fill-opacity:0.12;"/><path d="M1338.541,105.385c0.684,2.074 1.368,4.148 2.053,6.222c-2.035,-2.77 -1.655,-2.832 -2.053,-6.222Z" style="fill:#5e7f9b;fill-opacity:0.15;"/><path d="M322.198,152.51c3.152,-0.849 3.044,-0.862 6.187,-0.038c-3.221,0.389 -3.05,0.365 -6.187,0.038Z" style="fill:#6f92aa;fill-opacity:0.14;"/><path d="M1721.363,43.75c-0.197,1.277 -0.395,2.553 -0.592,3.83l-2.106,2.155c0.476,-3.386 0.461,-3.345 2.699,-5.985Z" style="fill:#597593;fill-opacity:0.16;"/><path d="M2036.895,115.412c2.23,2.648 1.917,2.743 2.257,6.255c-2.18,-5.894 -2.213,-5.877 -2.257,-6.255Z" style="fill:#648095;fill-opacity:0.12;"/><path d="M1777.53,107.062c1.753,2.947 1.474,2.959 1.832,6.459l-1.708,-2.317l-0.124,-4.142Z" style="fill:#657888;fill-opacity:0.13;"/><path d="M1342.636,138.129c0.793,2.441 1.286,2.187 1.548,4.767c0.1,0.987 0.605,0.694 0.701,1.634c-2.247,-2.744 -1.92,-2.838 -2.249,-6.401Z" style="fill:#5f7e95;fill-opacity:0.11;"/><path d="M1183.695,81.419c-2.662,1.889 -2.689,1.601 -5.893,2.033c0.718,-0.334 0.071,-1.75 5.893,-2.033Z" style="fill:#5f8098;fill-opacity:0.12;"/><path d="M1723.452,41.73c-0.7,3.3 -0.637,3.298 -0.756,3.564c-0.611,1.365 -1.249,0.779 -1.925,2.287c0.197,-1.277 0.395,-2.553 0.592,-3.83c0.696,-0.674 1.392,-1.347 2.089,-2.021Z" style="fill:#6387a2;fill-opacity:0.17;"/><path d="M797.166,52.297c-0.295,3.55 -0.025,3.528 -2.025,6.284c0.007,-0.334 0.092,-4.172 0.092,-4.172c0.279,-0.913 1.654,-1.2 1.934,-2.112Z" style="fill:#687f92;fill-opacity:0.08;"/><path d="M900.679,140.083c2.339,6.387 2.308,6.273 2.328,6.403c-2.291,-2.726 -1.926,-2.806 -2.328,-6.403Z" style="fill:#5a7c94;fill-opacity:0.12;"/><path d="M1504.674,109.545c0.324,0.331 2.014,2.061 4.255,3.93c-3.33,-0.413 -3.635,-0.545 -4.255,-3.93Z" style="fill:#7193ac;fill-opacity:0.12;"/><path d="M795.141,58.581c-2.049,2.037 -3.481,3.909 -3.757,4.271l0.167,-1.832c0.041,-0.039 -1.578,-1.748 3.59,-2.439Z" style="fill:#5a788f;fill-opacity:0.09;"/><path d="M1091.183,119.297c0.937,0.104 1.518,-1.507 2.454,-1.403c2.202,0.246 1.06,1.221 0.77,5.94c-1.075,-1.512 -2.15,-3.024 -3.224,-4.537Z" style="fill:#44494d;fill-opacity:0.05;"/><path d="M1969.519,90.544c2.135,1.488 2.856,0.709 4.226,4.31c-0.316,-0.365 -1.968,-2.277 -4.226,-4.31Z" style="fill:#6a8ea8;fill-opacity:0.19;"/><path d="M1052.063,83.082c0.834,3.007 0.799,2.841 1.126,5.892c-1.261,-2.946 -1.692,-2.764 -1.126,-5.892Z" style="fill:#969887;fill-opacity:0.14;"/><path d="M1146.138,29.949c0.863,2.891 0.8,2.725 1.156,5.806c-1.134,-2.936 -1.809,-2.735 -1.156,-5.806Z" style="fill:#75959d;fill-opacity:0.11;"/><path d="M1764.602,91.028c2.249,1.89 2.112,1.765 4.34,3.855l-1.589,-0.43c-0.479,-0.445 -1.481,0.42 -1.96,-0.025c-0.205,-0.19 -0.059,-0.252 -0.791,-3.4Z" style="fill:#62849c;fill-opacity:0.1;"/><path d="M1155.668,138.541c-0.707,2.509 -0.772,2.367 -2.678,4.07c0.893,-1.357 1.785,-2.713 2.678,-4.07Z" style="fill:#839dba;fill-opacity:0.18;"/><path d="M1267.336,27.573c0.817,2.964 1.204,2.864 0.747,5.953c-0.901,-2.962 -0.748,-2.877 -0.747,-5.953Z" style="fill:#7091b7;fill-opacity:0.14;"/><path d="M1148.164,40.125c0.863,2.991 0.802,2.851 1.119,5.842c-1.213,-2.888 -1.673,-2.701 -1.119,-5.842Z" style="fill:#6d93af;fill-opacity:0.11;"/><path d="M1054.028,117.889c0.982,2.815 0.872,2.625 1.392,5.513c-1.341,-2.707 -1.951,-2.496 -1.392,-5.513Z" style="fill:#7c9590;fill-opacity:0.13;"/><path d="M852.351,91.626c2.996,-0.847 2.875,-0.777 5.873,-1.06c-2.992,1.193 -2.824,1.577 -5.873,1.06Z" style="fill:#6a8aaa;fill-opacity:0.11;"/><path d="M2074.963,78.808c1.119,2.889 1.727,2.731 1.211,5.873c-0.899,-2.959 -0.832,-2.798 -1.211,-5.873Z" style="fill:#698fa8;fill-opacity:0.12;"/><path d="M240.747,79.326l2.068,0.168l-0.313,1.417c-1.142,0.109 -2.284,0.218 -3.426,0.327c0.557,-0.637 1.114,-1.275 1.67,-1.912Z" style="fill:#7ca0b3;fill-opacity:0.15;"/><path d="M1062.992,131.817c1.973,2.104 3.707,3.807 4.036,4.131c-5.042,-1.248 -3.662,-2.53 -3.672,-2.54l-0.364,-1.591Z" style="fill:#6d6e7f;fill-opacity:0.13;"/><path d="M2052.887,31.874c2.961,0.601 3.28,0.568 4.086,4.072c-2.018,-2.043 -3.756,-3.748 -4.086,-4.072Z" style="fill:#4d7496;fill-opacity:0.13;"/><path d="M1060.729,39.859c-1.584,2.47 -1.479,2.312 -3.23,4.5c1.285,-2.534 0.992,-2.651 3.23,-4.5Z" style="fill:#6f848c;fill-opacity:0.21;"/><path d="M1949.038,97.218c-0.324,3.319 -0.533,3.153 -1.941,6.162c0.236,-2.69 0.522,-2.525 1.941,-6.162Z" style="fill:#7c898c;fill-opacity:0.17;"/><path d="M245.874,140.372c0.533,2.928 0.524,2.775 0.074,5.681c-0.654,-2.997 -0.56,-2.836 -0.074,-5.681Z" style="fill:#a3ae89;fill-opacity:0.14;"/><path d="M452.619,109.802c1.235,2.667 1.676,2.527 1.158,5.565c-0.798,-2.876 -0.784,-2.706 -1.158,-5.565Z" style="fill:#648bae;fill-opacity:0.13;"/><path d="M1590.123,126.045c0.917,2.668 0.872,2.531 1.451,5.223c-1.356,-2.521 -2.008,-2.292 -1.451,-5.223Z" style="fill:#6a8da5;fill-opacity:0.12;"/><path d="M1322.055,42.18c0.908,2.956 0.84,2.796 1.215,5.871c-1.113,-2.865 -1.605,-2.635 -1.215,-5.871Z" style="fill:#6e90a2;fill-opacity:0.13;"/><path d="M680.483,101.952c2.879,-0.905 2.736,-0.874 5.655,-1.4c-2.848,1.313 -2.596,1.838 -5.655,1.4Z" style="fill:#5786a9;fill-opacity:0.11;"/><path d="M239.076,81.238c1.142,-0.109 2.284,-0.218 3.426,-0.327c-1.537,1.216 -1.116,1.304 -2.191,4.008c-0.412,-1.227 -0.823,-2.454 -1.235,-3.681Z" style="fill:#3a4b52;fill-opacity:0.07;"/><path d="M1847.085,111.405c0.927,2.996 1.177,2.895 0.716,5.989c-0.239,-1.996 -0.477,-3.993 -0.716,-5.989Z" style="fill:#94af89;fill-opacity:0.16;"/><path d="M942.274,152.566c-0.327,0.328 -2.041,2.048 -4.052,4.128c0.654,-3.203 0.862,-3.335 4.052,-4.128Z" style="fill:#677679;fill-opacity:0.13;"/><path d="M2070.938,62.492c1.075,2.826 1.556,2.603 1.165,5.793c-0.836,-2.928 -0.784,-2.793 -1.165,-5.793Z" style="fill:#5988a3;fill-opacity:0.14;"/><path d="M1169.226,27.609c-0.728,3.181 -0.586,3.237 -0.787,3.435c-0.526,0.521 -1.695,-0.473 -2.221,0.048c1.206,-2.16 1.125,-1.979 3.008,-3.484Z" style="fill:#678eaf;fill-opacity:0.14;"/><path d="M886.898,134.007c-1.497,1.768 -1.337,1.759 -3.43,2.806c0.573,-0.67 -0.536,-1.907 3.43,-2.806Z" style="fill:#758c9c;fill-opacity:0.11;"/><path d="M279.31,80.837c-1.486,1.844 -1.403,1.816 -3.499,2.899c0.503,-0.497 -0.403,-1.621 0.099,-2.118c0.198,-0.196 0.252,-0.058 3.4,-0.781Z" style="fill:#6e95af;fill-opacity:0.11;"/><path d="M761.352,85.477c0.473,0.477 1.537,-0.323 2.01,0.154c0,0 0.728,3.08 0.791,3.348c-0.754,-0.612 -1.507,-1.223 -2.261,-1.835l-0.539,-1.668Z" style="fill:#6c93b0;fill-opacity:0.1;"/><path d="M2043.119,9.783c2.74,-0.451 2.563,-0.495 5.322,0.109c-2.825,0.273 -2.665,0.371 -5.322,-0.109Z" style="fill:#7197b1;fill-opacity:0.11;"/><path d="M2072.841,68.761c1.182,2.804 1.659,2.57 1.334,5.678c-0.85,-2.914 -0.816,-2.759 -1.334,-5.678Z" style="fill:#5781a2;fill-opacity:0.15;"/><path d="M781.136,81.342l1.615,-0.361c-0.698,0.674 -1.395,1.348 -2.093,2.022l-1.598,0.434c0.692,-0.698 1.384,-1.397 2.076,-2.095Z" style="fill:#758697;fill-opacity:0.11;"/><path d="M1737.761,87.234c3.535,0.381 3.58,0.217 3.818,0.412c0.498,0.407 -0.339,1.516 0.159,1.923c-2.281,-0.884 -2.165,-0.829 -3.977,-2.335Z" style="fill:#648aa6;fill-opacity:0.08;"/><path d="M2037.491,138.736c-1.054,2.174 -1.005,2.075 -2.62,3.709c0.503,-3.337 0.346,-3.389 0.543,-3.604c0.468,-0.512 1.609,0.406 2.077,-0.105Z" style="fill:#6c869e;fill-opacity:0.12;"/><path d="M1947.952,128.053c0.818,3.016 0.776,2.868 1.158,5.88c-1.116,-2.906 -1.39,-2.73 -1.158,-5.88Z" style="fill:#72838d;fill-opacity:0.19;"/><path d="M1513.698,140.761c-0.991,2.163 -0.912,2.083 -2.518,3.778l0.51,-1.472c0.669,-0.769 1.338,-1.537 2.007,-2.306Z" style="fill:#6a89a2;fill-opacity:0.09;"/><path d="M779.061,83.437l1.598,-0.434c-0.682,0.682 -1.364,1.363 -2.046,2.045l-1.544,0.448c0.664,-0.686 1.328,-1.372 1.992,-2.059Z" style="fill:#718197;fill-opacity:0.11;"/><path d="M1103.701,134.046c3.131,0.833 3.187,0.699 3.382,0.9c0.492,0.506 -0.448,1.61 0.043,2.116c-2.055,-1.216 -1.885,-1.13 -3.425,-3.016Z" style="fill:#698da9;fill-opacity:0.15;"/><path d="M856.253,232.231c-1.451,1.762 -1.242,1.747 -3.416,2.932c0.858,-0.871 -0.584,-1.253 0.268,-2.119c0.182,-0.185 0.233,-0.06 3.147,-0.813Z" style="fill:#6c84a0;fill-opacity:0.16;"/><path d="M2065.832,22.901l1.703,0.449c0.693,0.684 1.387,1.368 2.08,2.052c-0.856,-0.176 -0.626,-0.399 -1.512,-0.58c-1.508,-0.309 -0.983,-0.832 -2.271,-1.921Z" style="fill:#678ba5;fill-opacity:0.12;"/><path d="M2033.396,112.917l1.492,0.434c0.669,0.687 1.338,1.374 2.007,2.061c-4.116,-0.791 -3.108,-2.096 -3.5,-2.494Z" style="fill:#6a869e;fill-opacity:0.13;"/><path d="M777.069,85.496l1.544,-0.448c-1.604,1.582 -1.385,1.543 -3.624,2.54c0.693,-0.697 1.387,-1.395 2.08,-2.092Z" style="fill:#6e8696;fill-opacity:0.12;"/><path d="M1919.44,95.364c0.489,3.15 0.273,3.053 -0.535,6.034c0.178,-2.011 0.357,-4.023 0.535,-6.034Z" style="fill:#8aa093;fill-opacity:0.24;"/><path d="M938.223,156.694c-1.798,1.531 -1.582,1.483 -3.953,2.461c0.467,-0.372 -0.178,-1.397 0.289,-1.769c0.233,-0.186 0.271,-0.051 3.664,-0.692Z" style="fill:#728b89;fill-opacity:0.12;"/><path d="M231.397,33.967c0.38,1.967 0.759,3.935 1.139,5.902c-1.034,-2.874 -1.387,-2.69 -1.139,-5.902Z" style="fill:#83836e;fill-opacity:0.2;"/><path d="M920.012,104.904c2.201,0.883 1.994,0.849 3.816,2.359c-4.462,-0.831 -3.559,-2.132 -3.816,-2.359Z" style="fill:#819564;fill-opacity:0.12;"/><path d="M54.942,127.781c1.092,3.127 1.088,2.966 1.248,6.207c-0.416,-2.069 -0.832,-4.138 -1.248,-6.207Z" style="fill:#7e8782;fill-opacity:0.24;"/><path d="M669.436,144.623c0.372,0.469 1.388,-0.117 1.76,0.352c0,0 0.773,3.142 0.84,3.415c-1.686,-1.713 -1.643,-1.508 -2.6,-3.767Z" style="fill:#5f85a8;fill-opacity:0.12;"/><path d="M2055.373,14.816c2.259,0.877 2.137,0.836 3.957,2.428c-0.941,-0.221 -0.71,-0.403 -1.62,-0.616c-1.575,-0.369 -1.129,-0.875 -2.337,-1.812Z" style="fill:#64869d;fill-opacity:0.16;"/><path d="M1995.694,142.242c3.149,0.837 3.177,0.733 3.401,0.904c0.819,0.622 -0.401,1.106 0.416,1.727c-2.239,-0.947 -2.136,-0.954 -3.817,-2.63Z" style="fill:#658ba6;fill-opacity:0.13;"/><path d="M759.555,83.154c0.599,0.774 1.198,1.549 1.797,2.323l0.539,1.668c-1.475,-1.856 -1.436,-1.641 -2.336,-3.99Z" style="fill:#527e9f;fill-opacity:0.14;"/><path d="M2034.871,142.445c-1.946,1.468 -1.847,1.407 -4.186,2.173c0.792,-0.501 -0.432,-1.014 0.367,-1.519c0.262,-0.166 0.283,-0.048 3.818,-0.654Z" style="fill:#6a7680;fill-opacity:0.11;"/><path d="M1680.123,113.481l0.02,6.277c-0.785,-3.167 -0.789,-3.118 -0.02,-6.277Z" style="fill:#748f9d;fill-opacity:0.2;"/><path d="M1881.482,29.146c2.35,0.921 2.135,0.88 3.967,2.387c-0.961,-0.223 -0.735,-0.386 -1.662,-0.602c-1.502,-0.349 -1.082,-0.838 -2.304,-1.785Z" style="fill:#788c72;fill-opacity:0.16;"/><path d="M1286.129,60.212c1.091,2.242 0.949,2.108 1.166,4.587c-0.389,-1.529 -0.777,-3.058 -1.166,-4.587Z" style="fill:#749abd;fill-opacity:0.31;"/><path d="M243.067,117.679l0.916,2.059l0.976,3.974c-1.306,-2.917 -1.547,-2.652 -1.893,-6.033Z" style="fill:#5a717a;fill-opacity:0.18;"/><path d="M2063.562,21.082c1.324,0.756 2.649,1.512 3.973,2.268l-1.703,-0.449c-0.757,-0.606 -1.514,-1.213 -2.271,-1.819Z" style="fill:#808e62;fill-opacity:0.16;"/></g></svg>