<?xml version="1.0" encoding="UTF-8" standalone="no"?><!DOCTYPE svg PUBLIC "-//W3C//DTD SVG 1.1//EN" "http://www.w3.org/Graphics/SVG/1.1/DTD/svg11.dtd"><svg width="100%" height="100%" viewBox="0 0 860 217" version="1.1" xmlns="http://www.w3.org/2000/svg" xmlns:xlink="http://www.w3.org/1999/xlink" xml:space="preserve" xmlns:serif="http://www.serif.com/" style="fill-rule:evenodd;clip-rule:evenodd;stroke-linejoin:round;stroke-miterlimit:2;"><g id="Background"><path d="M770.947,142.814c-3.206,5.6 -2.309,6.685 -8.262,9.113c-5.17,2.109 -12.137,-7.864 -12.184,0.573c-0.073,13.147 1.999,12.929 2,26c0.001,18.915 8.789,34.979 0.005,33.946c-6.758,-0.794 -5.961,-29.026 -6.186,-29.902c-0.469,-1.834 -3.077,-23.755 -2.638,-26.001c1.177,-6.028 -1.331,-5.883 -1.182,-12.043c0.648,-26.817 -2.428,-33.116 1.258,-36.74c1.723,-1.694 9.93,-3.769 12.699,-3.082c9.319,2.311 19.391,-2.519 23.858,12.866c0.381,1.311 -0.867,7.286 -0.998,7.91c-0.421,2.017 -2.45,4.142 -2.621,5.103c-1.356,7.615 -3.813,9.484 -5.748,12.257l-6.791,5.237c15.088,-19.887 6.116,-34.845 4.063,-36.141c-0.647,-0.408 -6.715,-3.009 -6.757,-3.015c-11.888,-1.552 -17.74,-2.033 -14.781,9.559c2.389,9.359 0.092,24.375 4.094,26.593c6.49,3.597 6.608,6.021 13.382,3.003l6.791,-5.237Z" style="fill:currentColor;fill-opacity:1;"/><path d="M125.52,118.103c-4,0.925 -2.794,3.982 -4.219,6.271c-9.534,15.31 -11.41,16.071 -12.978,16.707c-6.245,2.533 -6.25,2.586 -6.831,2.539c-10.514,-0.854 -15.033,-18.999 -15.455,-19.884c-6.238,-13.085 -6.536,-89.755 1.419,-88.986c1.774,0.171 -0.572,5.36 -0.551,5.746c1.687,30.344 0.121,30.406 0.775,32.961c1.872,7.316 0.254,12.082 1,15c2.747,10.745 1.464,10.908 2,13c0.183,0.716 1.44,5.627 2.06,9.01c2.428,13.248 9.471,26.406 12.722,25.811c8.79,-1.61 15.437,-17.327 16.287,-18.659c6.651,-10.433 4.531,-11.257 3.716,-28.115c-0.357,-7.379 -0.12,-7.328 -0.184,-7.962c-0.057,-0.562 -0.545,-5.375 -0.96,-6.997c-1.857,-7.264 -0.84,-7.375 -1,-8c-2.163,-8.45 -1.879,-13.574 -1.815,-25.044c0.032,-5.618 5.195,-10.428 5.341,-5.055c0.578,21.173 6.865,46.101 7.691,72.053c0.04,1.267 2.538,13.314 2,21.005c-0.243,3.475 2.808,4.818 2.271,7.059c-0.994,4.149 -1.207,5.424 -5.365,4.281c-6.668,-1.832 -5.231,-20.239 -6.385,-22.055c-0.744,-1.171 -1.082,-0.482 -1.538,-0.685Z" style="fill:currentColor;fill-opacity:1;"/><path d="M18.098,115.098c5.033,-4.663 5.713,-3.678 10.639,-8.337c3.298,-3.119 17.36,5.691 18.711,5.512c3.831,-0.507 9.499,-33.452 0.77,-39.365c-9.471,-6.415 -15.423,2.2 -16.731,2.558c-6.802,1.86 12.206,-16.296 22.774,-5.727c1.146,1.146 6.334,6.334 4.384,19.782c-2.382,16.432 -0.973,16.541 -1.329,17.935c-0.377,1.477 -1.162,4.55 -0.78,19.042c0.022,0.837 1.137,3.523 1.178,3.987c0.366,4.138 -0.886,3.951 -0.967,8.015c-0.154,7.682 -4.794,3.408 -13.192,6.154c-3.42,1.118 -3.515,0.134 -7.012,1.025c-4.56,1.163 -4.6,0.576 -8.856,-1.559c-8.391,-4.209 -19.911,-17.851 -9.59,-29.022l29.944,6.671c-8.655,-9.76 -19.395,-10.751 -23.633,-8.398c-9.676,5.372 -5.162,10.359 -3.5,12.854c2.666,4.002 1.34,5.005 5.316,7.684c9.058,6.101 12.274,8.732 18.993,4.183c2.844,-1.925 4.106,-11.028 2.824,-16.322l-29.944,-6.671Z" style="fill:currentColor;fill-opacity:1;"/><path d="M700.018,82.085c0.028,-0.044 3.567,-4.101 7.031,-8.857c5.272,-7.241 8,-20.255 8.575,-13.778c0.043,0.484 0.518,5.837 0.505,6.052c-0.546,9.229 5.108,16.115 3.551,24.041c-0.784,3.987 0.768,3.83 1.175,8.941c0.18,2.258 0.495,7.819 0.461,7.973c-0.664,3.077 0.144,2.991 0.179,6.043c0.149,13.14 3.078,12.826 3.078,26c-0,10.846 2.533,10.694 1.742,13.956c-1.606,6.626 -0.817,7.539 -2.865,7.819c-6.011,0.821 -1.653,-10.818 -5.534,-22.929c-1.539,-4.803 -0.184,-4.94 -1.237,-9.891c-2.323,-10.922 -1.108,-10.986 -1.358,-11.912c-3.829,-14.195 -0.796,-15.294 -2,-20c-1.964,-7.678 -0.226,-19.439 -3.873,-19.816c-2.325,-0.24 -1.889,0.785 -5.042,4.714c-15.999,19.937 -19.455,31.665 -25.646,24.818c-3.483,-3.852 -14.633,-25.733 -15.802,-28.026c-5.254,-10.31 -4.559,2.595 -4.453,21.266c0.013,2.256 0.918,4 0.954,5.003c0.041,1.123 0.476,13.133 0.385,14.043c-0.555,5.518 0.628,5.409 0.655,10.954c0.01,2 -0.008,4 0.003,6c0.023,4.15 2.196,5.924 2.031,10.002c-0.256,6.331 2.379,5.912 2.052,9.01c-0.558,5.288 -0.839,6.481 -6.16,6.224c-1.211,-0.059 -4.312,-15.938 -3.958,-20.237c0.952,-11.568 -2.439,-63.375 2.659,-75.164c4.792,-11.083 7.15,0.775 25.786,31.885c4.088,6.824 9.774,-5.439 9.83,-5.498c0.623,-0.655 1.974,-2.076 7.277,-8.636Z" style="fill:currentColor;"/><path d="M278.958,143.206c-0.893,-3.673 -0.293,-5.316 -0.637,-6.662c-1.345,-5.257 -1.934,-13.74 -2,-14c-2.927,-11.447 1.552,-93.616 5.558,-96.576c2.549,-1.883 2.851,1.32 1.994,39.56c-0.03,1.355 -0.362,16.174 -0.555,16.928c-0.338,1.322 -1.112,4.355 -0.78,17.042c0.017,0.646 0.888,3.287 0.92,4.006c1.048,23.011 0.704,23.024 1.036,24.998c0.671,3.989 -1.475,3.868 -0.803,6.942c1.172,5.358 31.272,2.601 44.763,5.241c5.22,1.021 7.463,9.23 5.077,8.619c-3.549,-0.908 -3.386,-1.267 -6.987,-1.985c-3.565,-0.711 -3.513,-0.317 -6.979,0.489c-4.169,0.97 -22.554,-0.256 -28.02,-1.487c-6.501,-1.464 -7.166,0.684 -12.588,-3.115Z" style="fill:currentColor;"/><path d="M222.01,25.052c-2.883,3.161 -2.357,3.501 -5.247,6.69c-3.112,3.434 0.315,4.282 -1.071,8.813c-1.621,5.3 -1.214,14.666 -1.159,15.944c0.441,10.149 10.414,4.653 10.966,8.002c0.483,2.932 -11.262,0.164 -9.182,9.044c0.929,3.966 -0.011,4.05 1,8.001c0.971,3.795 1.48,16.499 1.537,17.938c0.345,8.61 -1.076,8.632 0.707,17.002c0.178,0.834 -0.435,5.411 0.355,7.864c1.143,3.553 1.138,3.449 1.775,7.092c0.471,2.696 6.553,3.71 1.092,7.466c-1.874,1.289 -2.597,4.512 -7.224,3.401c-3.9,-0.936 -1.455,-17.487 -2.475,-20.657c-3.876,-12.045 -1.807,-28.503 -4.397,-39.195c-0.836,-3.451 3.395,-9.127 -5.129,-11.144c-6.394,-1.513 2.934,-3.368 2.942,-8.812c0.016,-11.929 -0.41,-11.934 2.182,-23.954c1.809,-8.388 8.622,-12.644 9.743,-13.344c6.885,-4.301 17.579,-19.273 22.894,-0.658c0.744,2.606 -0.412,9.648 -4.408,3.674c-1.019,-1.523 -3.626,-7.085 -7.411,-7.34c-1.492,-0.101 -6.93,3.775 -7.488,4.173Z" style="fill:currentColor;fill-opacity:1;"/><path d="M389.407,105.463c-0.156,0.411 0.607,0.828 0.452,1.239c-0.176,0.465 -0.867,0.503 -1.238,0.836c-11.155,10.014 -7.671,25.663 -7.656,25.69c1.745,3.089 3.388,9.089 7.815,11.861c1.29,0.808 5.826,3.647 18.404,-4.838c2.357,-1.59 -0.312,-16.319 -0.642,-20.753c-0.988,-13.287 -12.84,-15.122 -14.071,-14.766c-2.267,0.656 -1.596,-2.005 0.288,-3.973c3.033,-3.168 9.677,1.195 9.891,1.282c6.68,2.727 -0.809,-23.611 2.642,-39.595c3.121,-14.457 4.61,13.968 5.389,17.01c2.297,8.971 -0.08,9.374 3.402,20.195c0.667,2.073 0.325,9.741 0.598,10.805c1.011,3.947 1.812,15.299 2.001,15.999c0.969,3.576 2.212,3.295 1.856,7.048c-0.385,4.066 1.238,3.884 1,7.999c-0.044,0.752 2.013,8.064 -1.345,10.59c-8.524,6.411 -6.717,-3.698 -8.708,-7.582c-2.115,-4.126 -10.547,2.849 -12.151,3.758c-9.543,5.415 -13.443,1.41 -13.823,1.215c-6.722,-3.456 -11.481,-34.897 5.897,-44.019Z" style="fill:currentColor;fill-opacity:0.99;"/><path d="M620.924,102.084c6.284,6.189 2.236,10.047 -6.531,17.305c-5.419,4.486 -16.423,-1.191 -13.071,13.155c2.513,10.757 11.266,14.763 15.134,13.776c7.732,-1.971 10.803,-1.368 20.045,-7.819c2.315,-1.616 2.359,1.354 -0.081,2.881c-5.47,3.423 -4.547,5.268 -10.868,6.324c-2.699,0.45 -4.425,3.237 -5.171,3.529c-3.782,1.481 -15.878,3.278 -19.472,-2.016c-4.398,-6.479 -4.22,-6.634 -4.447,-12.716c-0.025,-0.678 -0.904,-3.354 -0.921,-4.006c-0.656,-25.336 10.633,-36.12 17.207,-34.27c4.505,1.268 4.799,0.679 8.176,3.857l-17.151,3.684c-0.328,0.577 -0.657,1.154 -0.985,1.731c-3.004,9.538 -4.851,13.144 0.741,12.125c9.463,-1.726 9.793,-1.853 14.32,-5.711c0.736,-0.627 8.756,-7.461 -0.557,-12.068c-8.997,-4.451 -11.744,2.063 -13.519,3.924l17.151,-3.684Z" style="fill:currentColor;fill-opacity:0.98;"/><path d="M571.211,150.009c2.921,-1.899 2.801,-1.887 5.451,-4.247c8.156,-7.262 1.081,3.325 -1.393,5.487c-5.565,4.865 -15.386,4.289 -16.766,4.208c-0.971,-0.057 -7.727,-3.867 -8.591,-5.238c-2.409,-3.82 -1.639,-4.107 -3.952,-7.982c-0.806,-1.35 -1.439,-25.514 -1.497,-27.735c-0.017,-0.651 -0.879,-3.246 -0.921,-4.006c-0.307,-5.523 -1.015,-5.415 -1.039,-10.997c-0.173,-40.87 0.842,-43.141 4.082,-42.151c0.811,0.248 1.914,13.263 1.336,15.297c-2.671,9.399 19.797,1.016 21.561,2.875c3.364,3.545 -21.778,5.467 -21.593,9.997c0.164,4.022 0.58,3.902 0.61,7.982c0.059,8.128 1.2,7.957 2.042,15.998c1.561,14.895 0.197,14.885 0.552,16.126c3.155,11.009 1.603,18.693 5.689,21.468c2.502,1.699 5.747,5.078 14.429,2.918Z" style="fill:currentColor;"/><path d="M482.921,154.933c-6.88,5.055 -5.251,-2.696 -7.238,-10.477c-0.481,-1.882 0.534,-3.635 -1.542,-5.621c-2.284,-2.186 1.112,-2.211 1.321,-5.337c0.224,-3.353 -0.804,-3.274 -0.959,-41.997c-0.014,-3.599 -0.084,-3.539 -0.777,-7.039c-0.667,-3.372 2.13,-3.497 -0.043,-12.006c-0.695,-2.721 3.261,-23.645 6.407,-18.656c1.244,1.972 -1.062,19.864 2.227,32.745c0.746,2.923 -0.879,7.641 1,15c1.501,5.879 -2.728,11.317 0,22c0.467,1.83 -1.056,9.949 1,18c0.868,3.397 0.171,3.497 1.559,6.794c1.207,2.867 -0.777,3.999 -2.955,6.594Z"/><path d="M466.21,142.058c2.085,-1.509 2.058,-1.52 2.252,-1.63c11.63,-6.558 -9.991,12.493 -20.904,9.874c-6.129,-1.471 -9.961,-21.077 -10.016,-21.806c-0.376,-5.043 -1.991,-11.659 -2,-12c-0.596,-22.995 -1.353,-23.017 -0.859,-24.952c1.149,-4.499 -0.141,-4.474 -0.177,-9.045c-0.194,-24.509 0.591,-24.463 1.151,-26.96c4.089,-18.213 3.367,14.025 5.66,23.004c0.83,3.25 -0.872,8.613 -0.776,9.953c0.293,4.105 0.816,3.94 0.997,8c0.093,2.093 0.826,1.901 0.92,4.006c0.224,5.029 0.989,4.901 1.039,9.997c0.15,15.096 4.517,26.096 6.592,29.274c2.48,3.797 4.093,10.186 16.121,2.285Z" style="fill:currentColor;fill-opacity:0.99;"/><path d="M800.71,104.798c2.78,1.526 2.36,2.131 3.855,2.488c15.888,3.784 13.545,9.002 28.888,14.359c27.54,9.614 -8.094,30.317 -12.105,31.438c-4.629,1.294 -4.328,1.909 -8.892,3.233c-3.984,1.156 -18.143,-10.367 -16.756,-16.758c1.887,-8.699 13.448,6.212 19.059,9.482c4.074,2.375 3.963,-6.001 13.684,-7.734c2.089,-0.372 7.975,-7.758 7.979,-9.806c0.008,-4.25 -9.032,-6.581 -9.968,-6.822c-8.278,-2.135 -7.036,-4.307 -15.228,-9.769c-8.992,-5.995 -13.578,-4.868 -10.515,-10.112Z" style="fill:currentColor;"/><path d="M244.071,96.218c4.707,-10.536 1.162,17.808 7.007,36.431c1.433,4.566 -5.964,7.702 -8.126,4.557c-1.561,-2.271 -3.27,-32.734 1.118,-40.989Z" style="fill:currentColor;"/><path d="M248.766,68.961c2.41,-0.338 2.312,0.366 4.741,0.447c1.332,0.045 2.668,-0.016 3.999,0.048c2.21,0.106 2.279,2.935 -1.004,3.066c-9.349,0.372 -9.225,1.171 -10.026,1.077c-2.64,-0.31 1.979,-4.365 2.29,-4.638Z" style="fill:currentColor;"/><path d="M811.836,95.956c1.096,-0.305 1.23,-0.73 3.536,-0.131c5.57,1.448 5.757,0.283 7.96,1.156c7.542,2.989 -8.025,1.712 -10.909,0.64c-2.89,-1.074 -5.8,1.909 -4.494,-0.87c0.758,-1.613 1.215,-0.802 3.907,-0.795Z" style="fill:currentColor;fill-opacity:0.56;"/></g></svg>