<?xml version="1.0" encoding="UTF-8" standalone="no"?><!DOCTYPE svg PUBLIC "-//W3C//DTD SVG 1.1//EN" "http://www.w3.org/Graphics/SVG/1.1/DTD/svg11.dtd"><svg width="100%" height="100%" viewBox="0 0 141 38" version="1.1" xmlns="http://www.w3.org/2000/svg" xmlns:xlink="http://www.w3.org/1999/xlink" xml:space="preserve" xmlns:serif="http://www.serif.com/" style="fill-rule:evenodd;clip-rule:evenodd;stroke-linejoin:round;stroke-miterlimit:2;"><g id="Background"><path d="M121.068,29.251c-0.042,2.576 0.876,3.133 -1.305,4.515c-0.532,0.337 -1.843,2.975 -2.954,0.947c-0.951,-1.735 -2.222,-3.299 -2.44,-3.568c-0.059,-0.073 -5.786,-12.491 -7.011,-13.989c-0.533,-0.652 -0.081,-0.857 -3.832,-9.797c-0.041,-0.099 -1.306,-3.112 -1.198,-0.594c0.225,5.245 -0.091,5.216 0.172,10.464c0.025,0.494 0.317,0.437 0.37,2.505c0.049,1.909 -1.013,2.668 0.01,5.959c0.337,1.085 -0.858,2.283 -0.196,4.089c1.569,4.281 -1.295,5.771 -2.053,3.521c-0.167,-0.496 0.439,-0.566 -0.621,-6.519c-0.458,-2.575 0.601,-2.635 -0.419,-8.001c-0.135,-0.71 0.2,-0.704 0.401,-9.024c0.146,-6.056 -0.462,-10.047 1.876,-8.158c3.398,2.746 3.409,2.777 5.508,6.584c0.77,1.397 2.99,9.395 5.256,12.17c0.59,0.722 4.668,11.182 5.615,10.876c0.912,-0.295 -0.3,-4.23 -0.306,-4.482c-0.109,-4.515 -0.629,-4.455 -0.494,-9.002c0.013,-0.441 -0.431,-0.379 -0.431,-5.495c0,-0.208 -1.489,-7.21 -0.887,-8.559c1.206,-2.706 2.87,-2.997 2.931,-0.942c0.106,3.606 1.947,10.981 1.123,13.47c-0.764,2.308 0.449,2.321 0.363,6.524c-0.067,3.274 -0.052,3.245 0.523,6.506Z" style="fill:#5d9064;"/><path d="M57.25,34.437c1.849,-0.223 1.743,-0.517 3.526,-1.127c2.507,-0.858 2.908,-4.552 2.554,-5.594c-2.673,-7.869 -4.83,-8.589 -5.626,-8.855c-2.842,-0.949 -3.377,-1.664 -3.421,-1.681c-1.942,-0.741 -2.359,0.009 -4.938,-2.528c-2.081,-2.047 -1.367,-7.351 -0.966,-7.789c4.725,-5.164 8.14,-3.316 11.484,-4.865c3.786,-1.753 5.294,4.543 5.001,5.311c-0.146,0.384 -1.463,2.414 -4.368,-2.692c-0.13,-0.229 -0.721,-1.268 -3.265,-0.412c-2.816,0.948 -3.453,-0.383 -5.834,2.167c-0.543,0.582 -0.603,4.499 -0,5.252c1.705,2.131 1.499,2.696 6.901,4.006c0.566,0.137 4.469,1.083 6.038,4.065c3.777,7.176 2.845,7.588 1.651,11.602c-1.437,4.835 -5.365,4.198 -5.77,4.382c-0.817,0.372 -1.594,0.827 -2.414,1.19c-1.56,0.69 -6.608,-1.535 -7.442,-2.717c-2.418,-3.43 -1.951,-4.301 -1.687,-4.942c1.941,-4.703 4.386,4.646 8.575,5.225Z" style="fill:#5b9064;"/><path d="M21.06,29.751c-0.063,0.991 0.016,1.988 -0.047,2.979c-0.016,0.256 -2.605,5.395 -3.054,-0.977c-0.378,-5.357 -0.873,-5.833 -2.252,-6.413c-2.144,-0.902 0.791,-3.26 -3.019,-5.488c-1.944,-1.137 -2.031,-0.299 -3.981,0.824c-0.092,0.053 -3.686,2.559 -3.715,5.57c-0.01,1.051 -1.391,3.477 2.322,5.379c0.376,0.193 3.978,2.038 4.963,1.807c1.312,-0.307 4.512,-3.845 4.134,-1.637c-0.14,0.819 -3.728,3.461 -5.661,3.441c-1.529,-0.015 -8.286,-2.532 -8.297,-5.482c-0.038,-10.319 9.069,-12.828 11.852,-11.631c2.398,1.032 1.653,-0.783 1.656,-3.368c0.002,-2.225 -3.308,-14.373 -0.199,-14.232c1.738,0.079 4.506,12.664 3.643,17.766c-0.423,2.502 1.594,10.611 1.655,11.46Z" style="fill:#608f63;"/><path d="M26.441,28.249c0.06,-0.935 0.061,-0.929 0.065,-1.009c0.097,-2.029 -0.047,-1.998 0.025,-4.014c0.064,-1.789 2.847,-5.963 4.734,-6.258c1.53,-0.239 1.504,-0.234 2.928,-0.845c2.693,-1.156 5.001,3.976 3.442,5.521c-2.02,2.003 -6.352,3.69 -6.946,3.921c-1.868,0.727 0.784,6.055 3.189,8.005c0.353,0.286 0.437,0.176 5.387,-1.783c2.437,-0.964 0.893,2.321 -1.532,2.761c-2.398,0.435 -2.932,1.116 -4.022,1.591c-0.496,0.216 -2.677,-0.362 -3.01,-0.84c-1.663,-2.386 -2.076,-1.98 -2.201,-2.195c-1.723,-2.975 -1.985,-4.44 -2.059,-4.855l6.808,-10.172c-2.803,0.366 -2.639,0.94 -3.568,3.643c-1.349,3.926 9.71,0.027 6.418,-3.323c-0.514,-0.523 -0.55,-0.927 -2.851,-0.319l-6.808,10.172Z" style="fill:#638f63;"/><path d="M77.75,37.499l-1.5,0c-4.88,-2.983 -6.283,-4.224 -4.888,-5.636c2.431,-2.46 5.271,5.41 8.263,2.74c7.727,-6.895 -4.308,-7.383 -6.781,-9.46c-3.585,-3.01 0.108,-4.976 2.016,-6.777c1.203,-1.135 6.838,0.253 6.997,0.817c0.469,1.658 -2.456,0.432 -2.585,0.413c-0.201,-0.03 -1.635,-0.246 -2.542,0.084c-6.254,2.277 0.241,4.654 1.001,4.754c1.532,0.201 1.518,0.274 6.084,2.708c2.686,1.432 -0.449,7.48 -1.178,7.869c-0.269,0.144 -3.241,1.735 -3.38,1.765c-0.844,0.182 -0.738,0.354 -1.506,0.722Z" style="fill:#618e62;"/><path d="M131.75,34.435c5.344,-0.483 4.954,-4.161 0.029,-6.251c-0.4,-0.17 -6.015,-1.63 -5.309,-7.926c0.252,-2.245 4.988,-4.552 6.691,-2.906c1.525,1.473 3.552,2.924 3.364,5.379c-0.139,1.811 -0.941,0.302 -2.653,-0.728c-1.144,-0.689 -4.427,-4.909 -5.368,-2.339c-0.455,1.245 0.639,4.962 3.714,6.157c5.451,2.119 6.528,3.526 5.94,5.393c-0.544,1.729 -0.105,2.196 -1.867,2.778c-0.953,0.315 -2.153,2.001 -4.543,2.022c-1.267,0.011 -1.199,0.136 -2.468,0.352c-1.798,0.307 -5.856,-6.377 -1.989,-4.703c0.869,0.376 1.959,1.783 2.1,1.965c0.815,1.052 1,0.698 2.357,0.806Z" style="fill:#628f63;"/><path d="M94.06,29.751c0.106,3.654 0.178,6.139 -1.793,5.8c-1.515,-0.26 -1.302,-3.491 -1.446,-3.831c-0.159,-0.377 -0.794,-1.876 -1.313,-4.944c-0.504,-2.978 0.205,-7.639 2.287,-7.145c1.177,0.28 1.345,6.581 2.265,10.119Z" style="fill:#648e62;"/><path d="M93.001,9.373c0.632,1.185 1.786,2.502 1.329,2.957c-0.418,0.417 -8.074,-3.174 -6.921,-4.952c0.158,-0.243 2.767,-1.383 3.888,-0.175c0.15,0.162 0.013,0.263 1.704,2.17Z" style="fill:#599064;"/></g></svg>