<?xml version="1.0" encoding="UTF-8" standalone="no"?><!DOCTYPE svg PUBLIC "-//W3C//DTD SVG 1.1//EN" "http://www.w3.org/Graphics/SVG/1.1/DTD/svg11.dtd"><svg width="100%" height="100%" viewBox="0 0 115 45" version="1.1" xmlns="http://www.w3.org/2000/svg" xmlns:xlink="http://www.w3.org/1999/xlink" xml:space="preserve" xmlns:serif="http://www.serif.com/" style="fill-rule:evenodd;clip-rule:evenodd;stroke-linejoin:round;stroke-miterlimit:2;"><g id="Background"><path d="M42.018,26.744c0.022,-1.891 -0.077,-1.862 0.136,-2.532c0.93,-2.936 2.408,-13.73 4.711,-17.903c0.83,-1.504 2.429,-0.456 1.782,1.398c-1.581,4.534 -0.671,4.681 -0.811,5.067c-0.337,0.927 -1.997,5.497 -2.836,11.996c-0.546,4.227 -1.026,4.123 -1.024,4.491c0.008,1.79 -0.255,1.729 -0.484,3.515c-0.046,0.362 -0.395,3.087 -1.393,4.348c-1.074,1.357 -0.715,3.057 -1.491,4.005c-1.579,1.928 -1.574,-1.31 -1.982,-1.781c-1.968,-2.274 -1.596,-2.463 -3.454,-7.065c-4.012,-9.936 -5.119,-16.303 -7.501,-23.504c-1.488,-4.498 0.687,-4.155 0.851,-3.882c3.012,4.988 4.934,12.704 5.31,13.818c2.656,7.877 2.532,7.912 2.817,8.576c1.883,4.374 1.474,4.533 1.725,4.86c1.192,1.556 0.527,2.803 1.311,3.214c0.633,0.331 0.939,-0.117 2.333,-8.621Z" style="fill:#c27eb6;"/><path d="M108.122,12c-3.1,-0.428 -2.456,-2.881 -4.839,-2.158c-0.567,0.172 -3.551,-0.344 -5.885,3.012c-0.408,0.587 0.005,0.809 6.457,7.292c2.525,2.537 5.366,1.824 7.475,8.071c1.019,3.017 0.436,3.038 -0.168,4.492c-0.421,1.013 0.257,1.87 -0.782,3.154c-0.4,0.494 -0.891,2.166 -2.746,3.755c-3.91,3.348 -4.69,1.873 -5.894,1.871c-1.413,-0.002 -1.483,-0.247 -2.607,0.616c-0.234,0.18 -4.723,0.495 -8.739,-4.483c-2.476,-3.068 -1.725,-3.97 -1.494,-4.247c3.228,-3.874 5.516,6.572 10.354,6.633c1.539,0.019 9.576,1.722 9.77,-8.25c0.016,-0.816 -1.352,-4.806 -1.912,-5.391c-5.537,-5.785 -16.444,-9.892 -11.743,-14.497c2.919,-2.858 2.944,-2.95 5.907,-3.416c2.755,-0.434 6.103,-3.914 6.846,3.545Z" style="fill:#c17eb8;"/><path d="M2.975,30.749c0.09,-2.849 -0.124,-8.281 0.07,-9.516c1.209,-7.701 0.41,-7.708 0.474,-15.488c0.015,-1.802 2.152,-3.213 2.63,-2.843c2.044,1.58 1.203,4.434 1.504,5.386c0.915,2.891 -0.199,2.972 0.349,5.987c0.099,0.547 0.689,3.789 -0.353,6.938c-1.212,3.662 -0.383,10.267 -0.805,11.575c-0.161,0.497 -1.533,4.745 1.463,6.362c4.711,2.542 6.619,-0.936 7.158,-1.757c0.361,-0.549 1.43,-0.254 0.93,0.921c-2.469,5.793 -14.845,4.548 -13.352,-4.585c0.156,-0.953 0.279,-0.935 -0.067,-2.979Z" style="fill:#c27fb6;"/><path d="M74.248,40.482c-0.414,-0.032 -3.682,-0.282 -4.847,-1.864c-3.675,-4.992 -2.021,-8.328 -1.84,-9.897c0.78,-6.763 10.296,-8.146 10.977,-3.454c1.025,7.059 -6.676,6.202 -7.339,6.284c-2.975,0.366 3.161,12.847 8.758,3.832c0.606,-0.976 1.811,0.305 0.171,2.258c-2.244,2.672 -2.385,2.878 -5.88,2.842l-4.267,-12.237c0.548,3.262 1.755,2.856 4.791,1.561c5.472,-2.334 1.76,-8.847 -3.872,-4.868c-1.226,0.866 -0.917,3.26 -0.919,3.307l4.267,12.237Z" style="fill:#c47eb0;"/><path d="M51.017,28.75c0.048,-1.007 0,-2.017 0.048,-3.023c0.094,-1.978 2.262,-0.973 2.586,-1.132c1.548,-0.761 1.47,-0.856 3.067,-1.429c3.047,-1.092 5.665,4.765 3.566,5.647c-2.29,0.963 -3.269,-3.074 -3.653,-3.442c-1.789,-1.72 -2.335,3.422 -2.483,3.837c-0.803,2.254 2.548,12.304 -2.402,9.045c-0.259,-0.17 -0.287,-1.679 -0.405,-2.04c-0.604,-1.838 -0.359,-3.346 -0.324,-7.463Z" style="fill:#c87dab;"/><path d="M19.517,27.25c0.129,-1.605 -0.533,-1.969 0.844,-2.836c0.368,-0.231 1.2,0.118 1.456,0.803c0.647,1.735 0.273,1.805 0.827,3.573c0.266,0.849 2.667,8.514 1.678,10.995c-1.301,3.266 -4.678,-1.335 -4.806,-12.535Z" style="fill:#c27eb5;"/><path d="M20.752,19.974c-4.741,-0.13 -2.916,-4.031 -0.977,-3.296c0.637,0.242 7.47,4.379 0.977,3.296Z" style="fill:#c27eb7;"/></g></svg>