<?xml version="1.0" encoding="UTF-8" standalone="no"?><!DOCTYPE svg PUBLIC "-//W3C//DTD SVG 1.1//EN" "http://www.w3.org/Graphics/SVG/1.1/DTD/svg11.dtd"><svg width="100%" height="100%" viewBox="0 0 169 40" version="1.1" xmlns="http://www.w3.org/2000/svg" xmlns:xlink="http://www.w3.org/1999/xlink" xml:space="preserve" xmlns:serif="http://www.serif.com/" style="fill-rule:evenodd;clip-rule:evenodd;stroke-linejoin:round;stroke-miterlimit:2;"><g id="Background"><path d="M107.75,0l5,0c6.934,3.486 7.485,3.113 11.594,9.692c0.986,1.579 2.829,7.72 2.016,9.604c-0.53,1.229 -1.274,2.327 -1.846,5.43c-0.416,2.256 -1.586,1.738 -1.992,4.002c-0.511,2.85 -3.845,4.711 -4.304,4.967c-2.735,1.527 0.903,2.887 -0.056,4.507c-0.363,0.614 -0.203,0.641 -0.412,1.297l-2.5,0c-0.159,-0.403 -0.367,-4.045 -4.528,-2.315c-1.367,0.569 -3.828,3.031 -10.021,0.659c-0.55,-0.211 -5.655,-5.276 -5.691,-7.598c-0.023,-1.45 -1.219,-4.437 -0.181,-7.462c0.107,-0.312 -0.191,-0.384 1.006,-3.999c0.336,-1.015 0.161,-1.008 0.495,-2c3.198,-9.493 7.039,-11.184 8.798,-14.105c0.649,-1.077 2.286,-1.635 2.515,-2.034c0.108,-0.189 -0.002,-0.456 0.107,-0.645Zm2.006,1.999c0.128,0.014 1.015,-0.094 1.936,0.366c4.99,2.496 6.568,4.258 9.133,8.34c1.45,2.306 3.137,8.234 2.506,10.08c-1.57,4.596 -1.712,4.5 -3.687,8.92c-0.214,0.479 -2.387,5.342 -6.272,1.902c-2.58,-2.284 -4.547,0.179 -2.253,2.749c0.21,0.235 0.839,1.354 -3.341,2.098c-5.613,0.999 -8.144,-6.079 -8.157,-6.097c-0.734,-0.94 -0.341,-1.07 -0.759,-2.156c-0.55,-1.429 -0.314,-1.436 -0.686,-2.922c-0.98,-3.913 0.071,-4.317 0.837,-8.552c0.234,-1.292 3.249,-8.189 3.388,-8.347c1.528,-1.73 1.352,-1.849 1.505,-1.976c2.928,-2.423 2.052,-3.938 5.85,-4.406Z" style="fill:#8289d9;"/><path d="M0,19.75l0,-2.5c0.087,-0.002 2.463,-0.877 2.463,3.499c0,4.051 1.868,-2.133 2.723,-2.601c0.404,-0.221 2.974,-1.63 5.163,2.542c1.453,2.769 1.97,6.065 2.819,3.026c0.279,-0.999 4.016,-6.141 5.598,-6.222c8.533,-0.438 7.449,7.149 10.094,14.711c0.78,2.23 -0.363,2.203 -0.392,4.553c-0.019,1.541 -2.787,1.724 -2.97,-0.028c-0.225,-2.143 -2.138,-14.919 -2.176,-15.014c-0.563,-1.394 -4.246,-3.444 -5.92,-1.331c-1.323,1.669 -2.014,1.244 -2.391,3.346c-0.408,2.273 -1.191,2.117 -1.041,4.495c0.226,3.592 -0.452,3.672 0.693,7.062c1.3,3.851 -1.279,3.065 -1.495,2.506c-0.861,-2.228 -0.37,-2.46 -1.28,-3.655c-1.804,-2.366 -0.232,-2.977 -2.746,-8.842c-1.787,-4.171 -1.357,-4.955 -2.836,-4.842c-0.088,0.007 -2.252,1.776 -2.281,4.797c-0.022,2.297 -0.923,2.305 -0.165,4.453c0.069,0.195 0.646,7.014 -0.632,7.311c-2.269,0.529 -2.214,-0.428 -2.25,-2.768c-0.084,-5.395 0.347,-5.893 -0.339,-7.949c-0.224,-0.671 -0.111,-5.893 -0.132,-6.019c-0.041,-0.241 -0.466,-0.288 -0.507,-0.529Z" style="fill:#8189d7;"/><path d="M50.199,30.221c0.55,0.914 0.888,0.935 0.488,1.456c-1.485,1.933 -0.663,2.67 -2.869,3.707c-2.463,1.158 -2.3,1.396 -2.519,1.477c-2.388,0.891 -3.316,0.585 -3.592,0.494c-5.364,-1.767 -6.494,-8.697 -6.874,-9.642c-2.909,-7.227 -0.527,-8.704 -1.507,-11.498c-0.093,-0.266 -0.692,-1.974 -0.186,-3.512c0.732,-2.226 0.186,-6.686 0.492,-7.991c2.243,-9.559 3.276,3.29 3.039,4.005c-0.462,1.39 0.059,7.975 0.258,8.412c1.767,3.884 -0.537,4.502 0.976,6.492c1.972,2.592 1.725,10.089 4.814,11.189c4.405,1.57 6.426,-2.92 7.48,-4.591Z" style="fill:#8384d4;"/><path d="M167.258,32.36c0.817,1.559 -0.229,1.456 -3.028,2.346c-1.973,0.628 -1.964,0.547 -3.937,1.156c-1.308,0.404 -4.678,-0.889 -5.412,-1.727c-3.762,-4.292 -4.525,-6.676 -4.738,-7.342c-1.005,-3.141 5.182,-12.314 6.871,-10.355c1.479,1.715 6.893,0.919 6.513,7.789c-0.006,0.101 -0.069,1.242 -1.199,0.397c-1.307,-0.978 -2.29,0.817 -4.077,0.911c-1.784,0.093 -1.743,-0.072 -3.55,0.036c-0.763,0.045 -1.798,1.338 5.175,8.031c1.319,1.266 7.351,-1.232 7.38,-1.242Zm-14.267,-9.114c1.21,-10.138 8.85,-0.516 7.289,0.051c-4.29,1.557 -5.054,0.73 -5.569,0.821c-1.154,0.203 -1.424,0.273 -1.72,-0.872Z" style="fill:#7f89d9;"/><path d="M51.25,0c0.092,0.411 0.321,1.436 0.278,5.255c-0.065,5.679 2.404,11.623 2.483,13.012c0.393,6.899 0.506,6.882 0.511,7.481c0.01,1.268 0.301,1.178 0.461,2.469c0.464,3.751 0.089,3.754 0.185,4.065c0.172,0.552 0.644,2.07 -0.418,7.217l-1.5,-0c0.42,-3.712 -0.501,-3.592 -1.244,-7.226c-0.355,-1.735 -0.249,-1.776 -1.391,-3.073c0.147,-0.398 0.736,-0.79 0.391,-2.406c-1.292,-6.05 -0.022,-6.233 -1.183,-9.577c-0.837,-2.412 -0.092,-2.47 -0.366,-3.998c-0.133,-0.743 -1.162,-6.491 -0.131,-9.437c0.434,-1.241 -0.277,-1.631 1.924,-3.784Z" style="fill:#8284d4;"/><path d="M65.75,39.499l-1.5,0c-0.516,-1.312 -0.458,-1.327 -1.368,-2.362c-0.135,-0.154 -0.586,-3.175 2.497,-0.544c0.182,0.155 1.484,1.266 2.903,0.722c0.302,-0.116 0.225,-0.248 3.51,-1.998c1.231,-0.656 1.631,-3.542 0.314,-4.942c-4.844,-5.145 -6.496,-2.276 -8.743,-4.253c-1.402,-1.233 -2.332,-5.669 3.909,-6.72c0.325,-0.055 5.528,-0.931 4.095,0.433c-0.252,0.239 -8.911,1.098 -5.62,4.419c1.749,1.764 8.946,0.262 9.801,7.023c0.77,6.094 -2.813,5.228 -4.902,6.845c-1.232,0.953 -3.571,0.611 -3.882,0.566c-0.393,-0.057 -0.489,0.02 -0.522,0.046c-0.366,0.293 -0.097,0.449 -0.49,0.765Z" style="fill:#858ad8;"/><path d="M85.994,29.25c-0.024,4.385 2.534,9.874 -1.694,8.29c-1.489,-0.558 -0.611,-2.274 -1.973,-6.324c-0.656,-1.949 -2.259,-9.787 -0.946,-11.357c2.14,-2.558 4.064,2.215 4.104,6.889c0.011,1.3 0.348,1.215 0.509,2.501Z" style="fill:#7e88d7;"/><path d="M139.931,27.217c-4.014,-9.984 -0.442,-10.271 0.218,-9.841c0.635,0.413 6.566,15.126 4.637,16.91c-2.45,2.265 -3.201,-0.933 -4.408,-5.118c-0.025,-0.158 -0.042,-0.129 -0.447,-1.951Z" style="fill:#8487d5;"/><path d="M138.8,27.821c0.411,0.701 0.474,0.648 0.528,1.48c-2.446,3.174 -8.1,4.032 -9.176,2.01c-0.468,-0.88 -3.432,-6.451 -0.226,-12.456c0.047,-0.088 1.482,-1.243 0.866,0.905c-0.09,0.315 0.626,10.404 3.432,10.682c2.742,0.272 3.58,-1.494 4.576,-2.621Z" style="fill:#868cd9;"/><path d="M81.696,13.995c-1.399,-0.493 -1.404,-0.465 -1.525,-0.509c-1.108,-0.403 -0.802,-3.174 2.639,-1.339c1.085,0.578 1.761,2.901 -1.115,1.848Z" style="fill:#8389d5;"/><path d="M139.931,27.217c0.404,1.822 0.422,1.793 0.447,1.951c-0.35,0.044 -0.7,0.088 -1.05,0.132c-0.054,-0.832 -0.117,-0.779 -0.528,-1.48c0.377,-0.201 0.754,-0.403 1.131,-0.604Z" style="fill:#303342;fill-opacity:0.29;"/></g></svg>