<?xml version="1.0" encoding="UTF-8" standalone="no"?><!DOCTYPE svg PUBLIC "-//W3C//DTD SVG 1.1//EN" "http://www.w3.org/Graphics/SVG/1.1/DTD/svg11.dtd"><svg width="100%" height="100%" viewBox="0 0 1384 734" version="1.1" xmlns="http://www.w3.org/2000/svg" xmlns:xlink="http://www.w3.org/1999/xlink" xml:space="preserve" xmlns:serif="http://www.serif.com/" style="fill-rule:evenodd;clip-rule:evenodd;stroke-linejoin:round;stroke-miterlimit:2;"><g id="Background"><path d="M623.416,360.24c-0.491,2.496 2.089,4.715 -5.248,12.057c-9.878,9.885 -16.973,9.368 -33.36,15.687c-14.285,5.508 -15.438,1.932 -29.079,8.905c-3.03,1.549 -5.41,4.561 -7.334,5.827c-22.024,14.497 -32.184,8.993 -46.582,10.327c-10.475,0.97 -9.128,4.58 -7.569,9.722c3.742,12.34 -0.304,12.882 2.729,25.432c1.921,7.95 1.255,7.988 2.407,16.116c1.97,13.908 -0.668,21.05 0.247,33.451c0.788,10.684 -0.257,10.671 0.865,21.253c0.882,8.322 0.475,8.274 -0.507,16.557c-3.355,28.309 4.238,29.069 3.673,45.756c-0.228,6.731 1.958,7.209 2.343,8.629c1.51,-0.164 3.011,0.734 4.522,0.57c1.379,-0.15 2.567,-1.06 3.888,-1.482c0.668,-0.213 4.058,-1.297 8.6,-1.691c10.316,-0.897 10.257,-0.858 20.43,-3.186c10.542,-2.413 13.875,0.749 25.337,-2.838c17.678,-5.532 19.853,0.432 33.386,-4.033c10.112,-3.336 10.238,-2.302 20.796,-2.48c13.844,-0.233 13.619,-1.372 20.461,-3.225c3.038,-0.823 3.063,-0.52 12.999,-1.062c8.144,-0.444 17.252,-4.182 24.839,-4.001c29.527,0.704 29.487,-0.339 50.078,0.348c15.502,0.517 7.936,12.445 7.091,13.454c-8.193,9.775 -17.924,7.261 -23.981,7.895c-6.497,0.68 -5.973,2.745 -12.497,3.458c-2.8,0.306 -5.643,0.027 -8.444,0.321c-5.428,0.569 -18.587,10.052 -33.06,9.627c-1.397,-0.041 -2.779,-0.412 -4.177,-0.375c-11.371,0.305 -35.216,14.764 -41.881,15.498c-7.566,0.833 -7.744,-0.288 -16.157,2.768c-6.194,2.25 -6.224,1.942 -12.507,4.155c-13.145,4.629 -14.192,-1.626 -33.456,3.966c-13.704,3.978 -20.138,-3.439 -28.378,1.053c-4.894,2.668 -4.757,2.826 -9.939,5.029c-0.14,0.06 -1.014,-1.029 -9.162,8.104c-5.444,2.629 -5.069,3.854 -11.121,4.107c-1.024,0.043 -7.628,0.319 -12.729,-1.403c-22.531,-7.608 -17.775,-24.937 -25.388,-63.149c-2.428,-12.187 -0.635,-33.089 -4.362,-54.125c-1.597,-9.012 0.023,-16.318 -0.822,-24.937c-1.701,-17.341 0.201,-18.855 -1.959,-29.503c-4.491,-22.145 -1.339,-40.032 -4.449,-54.118c-2.721,-12.325 -2.489,-12.352 -2.12,-24.957c0.73,-24.973 -1.488,-75.19 2.792,-108.183c2.708,-20.877 -0.121,-21.049 2.895,-41.867c3.393,-23.418 1.299,-32.099 2.989,-46.014c0.381,-3.134 5.023,-20.713 5.11,-20.916c1.204,-2.813 10.989,-12.533 14.184,-14.8c1.019,-0.723 18.377,-7.758 28.14,-7.928c12.582,-0.22 12.702,0.753 24.627,-2.95c7.467,-2.319 41.37,-0.746 62.962,-1.325c8.623,-0.231 8.947,-1.955 20.568,-0.768c18.233,1.862 32.207,-0.206 41.883,2.9c8.141,2.614 8.204,2.032 16.69,2.463c8.24,0.418 9.872,2.331 16.302,3.466c10.49,1.852 10.531,0.786 29.508,0.474c15.252,-0.251 13.403,9.083 7.77,14.084c-4.911,4.359 -5.538,3.061 -12.033,3.465c-3.439,0.214 -3.373,0.476 -12.145,2.626c-0.678,0.166 -4.06,0.995 -8.683,0.867c-16.288,-0.451 -16.91,-4.179 -25.663,0.602c-10.516,5.745 -11.634,-0.142 -24.018,2.484c-11.395,2.417 -17.425,-0.306 -25.538,2.416c-10.361,3.476 -15.779,6.237 -24.97,7.145c-10.305,1.018 -10.334,0.484 -20.307,2.981c-12.417,3.11 -62.295,-2.391 -75.255,3.074c-7.482,3.155 -8.733,16.078 -7.996,20.616c1.68,10.342 3.03,10.537 -0.866,24.952c-2.147,7.944 -0.079,10.096 -0.929,20.772c-0.999,12.542 0.638,12.501 -0.237,25.06c-1.179,16.929 3.104,16.556 3.901,33.556c0.35,7.472 2.134,9.54 2.907,12.087c2.705,8.911 -2.741,23.823 6.879,26.796c4.901,1.515 4.949,0.639 13.008,0.771c10.331,0.17 10.24,1.839 20.558,0.633c13.958,-1.631 33.801,-0.674 46.124,-1.023c8.659,-0.245 10.205,-3.006 16.493,-3.571c8.51,-0.765 8.474,0.089 16.979,-0.701c3.23,-0.3 11.524,-4.746 15.349,-0.673c0.76,0.81 0.843,2.111 1.603,2.921Z" style="fill:#010102;"/><path d="M166.545,418.717c0.44,12.568 -0.674,12.695 2.968,24.763c1.659,5.497 1.185,16.675 1.196,16.795c0.155,1.651 1.052,3.176 1.208,4.827c-7.358,9.94 -6.985,10.771 -6.545,11.752c0.396,0.883 4.417,9.289 10.978,-5.07c0.433,-0.948 0.299,-2.093 0.732,-3.041c2.072,-1.518 2.413,-0.995 4.769,-3.493c8.132,-8.624 6.934,-9.617 15.829,-17.604c6.091,-5.47 14.443,-19.728 33.893,-32.587c6.273,-4.147 5.95,-4.488 12.472,-8.311c4.657,-2.729 4.252,-3.329 15.855,-9.764c13.079,-7.254 24.483,-17.823 38.119,-23.862c7.029,-3.113 7.117,-2.86 13.166,-7.588c3.734,-2.919 16.799,-8.518 20.307,-5.427c3.806,3.353 2.787,15.987 -1.732,19.121c-4.42,3.066 -6.923,2.767 -20.036,13.661c-9.376,7.789 -10.976,5.145 -20.913,12.278c-7.558,5.426 -15.22,5.438 -29.357,16.562c-5.94,4.674 -6.739,3.475 -12.49,8.437c-11.615,10.024 -14.323,6.416 -29.008,21.122c-6.304,6.313 -6.313,6.24 -11.55,13.43c-1.971,2.706 -4.892,4.471 -6.564,6.033c-6.376,5.958 -16.954,5.83 -14.672,14.766c1.286,5.035 11.493,5.823 12.603,5.909c8.422,0.65 8.228,1.291 16.46,3.442c2.638,0.689 11.803,0.074 25.734,6.431c1.096,0.5 0.962,0.557 13.049,7.503c11.846,6.807 10.824,8.042 20.761,17.319c7.41,6.918 43.488,42.913 47.756,47.942c9.205,10.845 14.546,21.601 19.305,26.872c1.542,1.708 9.494,10.518 12.451,25.931c1.076,5.609 -3.698,8.566 -1.345,16.93c1.802,6.407 3.278,6.57 0.811,12.778c-1.154,2.904 -10.145,13.155 -16.44,7.088c-2.755,-2.655 -7.208,-26.378 -17.366,-32.692c-22.092,-13.731 -20.675,-21.859 -30.421,-32.049c-3.671,-3.838 -11.997,-11.052 -15.926,-17.455c-6.316,-10.295 -19.554,-21.86 -26.869,-31.103c-5.403,-6.828 -5.327,-11.836 -27.431,-22.322c-3.436,-1.63 -30.72,-10.729 -32.888,-10.726c-6.676,0.009 -17.37,8.446 -13.251,22.523c3.563,12.177 8.191,22.294 5.24,33.17c-2.213,8.158 -2.207,8.322 0.339,16.324c4.08,12.821 -0.568,22.237 2.9,33.795c4.754,15.843 3.406,19.033 -5.646,30.58c-0.733,0.935 -3.44,4.389 -11.233,9.708c-1.259,0.859 -10.155,6.932 -19.054,-0.008c-12.658,-9.872 -15.653,-18.121 -16.36,-20.068c-8.009,-22.055 0.303,-69.002 -4.536,-91.475c-1.306,-6.063 -1.596,-6.074 -0.385,-12.17c1.784,-8.983 -0.996,-12.996 -0.699,-16.789c0.217,-2.773 1.057,-5.47 1.339,-8.238c1.025,-10.059 -2.821,-9.774 -3.082,-29.236c-0.256,-19.008 -3.558,-18.626 -4.772,-37.629c-0.66,-10.327 -0.721,-10.248 -2.739,-20.462c-1.858,-9.407 -1.014,-46.238 -0.921,-50.258c0.076,-3.33 -0.372,-3.303 -0.208,-41.639c0.147,-34.223 1.777,-35.715 -1.955,-54.19c-3.414,-16.897 0.809,-24.227 0.974,-33.35c0.167,-9.24 1.549,-23.175 0.26,-29.407c-2.153,-10.412 -3.939,-10.358 -2.003,-20.745c1.14,-6.117 1.182,-6.077 0.282,-12.25c-0.29,-1.986 0.244,-1.976 0.92,-25.073c0.308,-10.518 1.028,-10.439 0.253,-20.909c-0.546,-7.384 1.114,-8.966 -0.687,-16.597c-3.518,-14.91 -2.162,-20.929 7.482,-30.184c15.485,-14.861 18.925,19.286 19.157,21.583c0.862,8.557 0.983,8.45 3.138,16.758c2.128,8.203 -1.532,8.359 -0.091,16.711c0.345,1.998 1.84,10.665 2.437,25.228c0.252,6.15 -1.336,9.372 1.896,16.247c4.486,9.544 5.434,9.608 5.445,37.817c0.014,34.518 0.066,34.8 0.612,37.772c0.642,3.5 2.778,7.365 1.866,12.287c-1.571,8.476 -3.362,8.559 -0.796,16.806c0.509,1.637 3.326,5.146 2.827,20.626c-0.333,10.323 1.352,10.251 0.371,20.595c-1.011,10.661 -1.375,10.784 1.933,20.923c4.016,12.308 -2.687,18.984 6.76,46.434c2.705,7.859 2.6,7.836 3.121,16.192Z" style="fill:#020102;"/><path d="M1041.529,264.583c0.445,-16.933 1.185,-19.411 1.669,-21.028c4.826,-16.144 0.075,-16.978 4.797,-33.113c2.437,-8.328 1.582,-8.45 4.071,-16.698c0.495,-1.639 7.632,-46.083 24.797,-44.802c2.915,0.218 2.885,0.669 4.067,3.344c4.889,11.067 2.02,20.563 2.288,28.962c0.45,14.116 -0.19,28.061 0.184,50.175c0.334,19.725 16.423,-2.042 35.378,-2.431c22.983,-0.472 22.938,-0.808 24.933,-0.764c6.397,0.14 6.251,0.755 12.585,1.073c8.197,0.411 9.885,-1.453 20.7,2.163c16.353,5.467 23.8,-1.82 45.726,4.533c8.462,2.452 19.763,1.444 25.399,2.735c1.036,0.237 10.521,2.41 12.91,3.152c9.006,2.795 6.055,15.007 -0.976,16.489c-2.652,0.559 -5.42,0.197 -8.122,0.414c-2.013,0.162 -1.962,0.304 -12.021,2.93c-14.098,3.681 -40.248,-1.2 -50.604,2.164c-5.977,1.942 -5.971,1.95 -12.319,1.583c-4.24,-0.245 -7.184,1.031 -16.615,1.355c-8.678,0.299 -8.503,1.52 -12.092,2.79c-3.176,1.123 -5.505,1.947 -42.095,1.078c-10.237,-0.243 -11.159,-3.483 -13.113,-4.269c-3.002,-1.208 -6.01,2.277 -6.164,2.786c-1.348,4.438 2.741,18.639 3.194,20.212c3.38,11.737 1.281,31.781 1.463,37.676c0.366,11.834 0.193,20.448 -0.418,50.071c-0.258,12.493 4.07,19.901 4.754,25.065c1.005,7.583 -2.073,7.978 2.164,20.628c2.732,8.156 1.742,8.303 2.084,16.87c0.25,6.267 3.541,17.513 3.261,20.763c-0.239,2.781 -1.188,5.473 -1.408,8.256c-0.484,6.117 8.876,20.607 10.582,37.653c0.967,9.658 2.411,9.234 9.67,25.159c4.409,9.674 1.302,10.51 5.054,20.427c8.219,21.724 29.848,18.432 33.321,17.394c18.527,-5.539 18.6,-5.271 20.151,-5.915c14.684,-6.1 14.998,-5.223 29.192,-12.248c15.075,-7.461 14.332,-8.818 29.848,-15.275c16.733,-6.963 23.751,-14.858 25.365,-16.673c3.829,-4.307 6.179,-5.703 15.155,-14.219c0.495,-0.47 4.569,-4.335 8.325,-1.844c9.173,6.083 -11.896,28.39 -13.628,30.669c-12.086,15.903 -15.297,12.132 -27.6,21.719c-4.277,3.333 -4.183,3.426 -4.558,3.711c-4.299,3.268 -8.958,3.891 -20.731,12.547c-15.658,11.512 -21.904,3.419 -35.498,14.962c-11.294,9.591 -15.953,0.509 -26.731,10.581c-8.23,7.691 -9.101,6.676 -20.364,6.925c-10.928,0.242 -10.484,4.829 -21.102,3.284c-19.868,-2.892 -21.454,-8.623 -21.511,-8.679c-10.979,-10.66 -10.838,-11.034 -14.262,-22.24c-2.802,-9.173 -5.145,-8.148 -10.962,-24.169c-8.867,-24.42 -9.153,-27.227 -9.406,-29.707c-0.851,-8.338 -2.093,-8.051 -3.542,-16.334c-0.272,-1.555 -0.423,-3.13 -0.71,-4.682c-1.012,-5.479 -3.7,-10.321 -4.028,-16.425c-0.784,-14.596 -0.235,-14.582 -2.554,-29.024c-1.778,-11.072 -1.272,-19.38 -2.915,-25.3c-2.856,-10.286 -2.463,-10.282 -4.556,-20.682c-1.787,-8.876 0.172,-9.055 -1.011,-20.684c-2.541,-24.961 -1.445,-30.46 1.376,-45.816c1.401,-7.626 2.849,-34.07 -1.037,-49.995c-3.057,-12.525 -1.24,-12.666 -1.812,-29.28Z" style="fill:#020102;"/><path d="M836.185,377.618c19.276,-21.721 36.798,-20.074 37.052,-20.132c2.625,-0.601 5.072,-1.828 7.668,-2.547c4.126,-1.142 11.168,-0.936 25.345,-0.919c0.39,0 2.451,-2.191 29.558,4.907c6.265,1.641 22.333,10.623 25.452,17.747c0.556,1.27 0.679,2.697 1.19,3.986c3.45,8.69 7.692,7.06 8.179,17.131c0.597,12.361 -1.142,19.898 6.58,41.739c4.742,13.412 -1.469,14.518 -1.793,29.181c-0.695,31.432 0.528,35.242 1.285,37.677c3.171,10.198 0.814,10.662 3.967,20.906c3.73,12.115 1.862,12.376 3.098,24.994c3.328,33.978 12.077,31.917 19.132,53.695c1.439,4.442 0.836,4.528 2.43,8.949c3.285,9.111 10.523,12.052 5.966,21.05c-3.649,7.204 -12.372,4.09 -13.422,3.715c-6.69,-2.388 -11.154,-2.442 -21.932,-15.903c-5.462,-6.821 -4.27,-8.102 -11.834,-12.482c-4.104,-2.376 -15.097,-6.077 -17.766,-17.17c-3.127,-12.994 -4.168,-19.286 -4.447,-20.978c-1.421,-8.593 -3.233,-8.121 -4.103,-16.729c-1.857,-18.394 -4.263,-19.217 -4.408,-37.636c-0.099,-12.607 -0.579,-12.52 -1.106,-25.112c-0.559,-13.349 2.106,-13.306 0.629,-37.547c-0.511,-8.389 0.201,-8.348 -0.856,-16.69c-3.102,-24.482 -0.497,-43.445 -17.114,-47.178c-1.399,-0.314 -2.861,-0.249 -4.271,-0.511c-3.912,-0.73 -9.752,-4.42 -25.247,-4.416c-26.808,0.007 -27.133,-0.05 -29.454,-0.457c-16.666,-2.92 -16.943,-2.726 -17.684,-3.973c-0.233,-0.392 -0.155,-0.392 -2.093,-5.297Z" style="fill:#020102;"/><path d="M804.336,456.274c-1.227,-24.611 -3.494,-24.412 -2.908,-37.566c0.749,-16.83 -2.898,-19.536 -0.417,-33.517c4.734,-26.677 4.285,-26.791 5.216,-28.952c3.738,-8.679 16.883,-17.298 20.368,0.136c1.529,7.649 -0.14,13.859 -0.044,16.599c0.169,4.835 3.556,25.744 4.539,29.163c5.217,18.155 -0.136,18.982 4.812,37.311c1.457,5.396 2.993,18.316 3.663,20.974c2.59,10.282 2.155,10.305 4.984,20.577c1.988,7.22 0.443,13.971 2.924,21.264c7.045,20.708 7.467,37.759 9.205,53.923c2.144,19.943 10.594,17.622 12.584,37.541c0.924,9.252 3.32,16.145 -1.348,24.552c-0.478,0.86 -8.318,18.464 -23.474,11.457c-16.698,-7.719 -16.13,-14.693 -16.364,-15.47c-2.435,-8.11 -2.938,-7.958 -3.569,-16.475c-1.016,-13.711 -7.273,-33.887 -8.046,-45.837c-0.657,-10.152 -2.833,-9.784 -4.15,-25.015c-0.9,-10.41 -1.923,-10.213 -3.057,-20.548c-1.612,-14.687 -0.678,-14.732 -3.095,-29.292c-2.835,-17.08 -1.74,-19.052 -1.822,-20.823Z" style="fill:#030204;"/><path d="M596.778,412.958c-1.734,0.389 -1.251,1.278 -3.014,1.672c-0.326,0.073 -1.809,0.405 -4.177,-0.061c-5.965,-1.175 -5.018,-4.826 0.43,-7.512c1.132,-0.558 2.801,0.217 3.732,-0.635c1.143,-1.046 0.617,-3.213 1.691,-4.329c0.578,-0.601 1.809,-0.49 2.502,-0.026c1.486,0.995 3.705,2.276 3.515,4.054c-0.294,2.746 -4.386,4.09 -4.68,6.836Z" style="fill:#fafafa;"/><path d="M171.917,465.103c1.722,1.214 3.443,2.428 5.165,3.641c-0.433,0.948 -0.299,2.093 -0.732,3.041c-6.56,14.359 -10.581,5.952 -10.978,5.07c-0.441,-0.982 -0.814,-1.813 6.545,-11.752Z" style="fill:#55ab78;"/><path d="M512.865,606.553c2.122,-1.01 3.538,-3.192 5.66,-4.202c3.301,-1.571 3.936,3.551 3.991,4c0.549,4.437 -3.229,4.66 -3.707,4.688c-1.393,0.082 -2.711,-0.908 -4.104,-0.826l-1.841,-3.66Z" style="fill:#0b0513;"/><path d="M175.883,352.568c-0.99,-4.505 -0.764,-4.502 -1.977,-8.994c-0.868,-3.217 -0.133,-3.604 3.104,-4.238c5.154,-1.008 3.866,3.881 3.749,4.323c-0.187,0.71 -1.435,0.716 -1.701,1.401c-0.493,1.271 0.111,2.812 -0.42,4.067c-0.572,1.353 -2.183,2.088 -2.756,3.441Z" style="fill:#f6fefc;"/><path d="M531.648,650.985c-0.004,-0.908 -1.6,-1.292 -1.604,-2.2c-0.004,-0.88 -0.043,-9.59 9.831,-4.925c1.151,0.544 -0.196,2.642 -0.878,3.716c-1.665,2.62 -3.39,3.42 -3.768,3.596c-1.754,0.814 -1.85,-0.989 -3.58,-0.186Z" style="fill:#f0fdf4;"/></g></svg>